<?xml version="1.0" encoding="UTF-8"?>
<!DOCTYPE svg PUBLIC "-//W3C//DTD SVG 1.1//EN" "http://www.w3.org/Graphics/SVG/1.1/DTD/svg11.dtd">
<svg xmlns="http://www.w3.org/2000/svg" version="1.1" width="500px" height="500px" style="shape-rendering:geometricPrecision; text-rendering:geometricPrecision; image-rendering:optimizeQuality; fill-rule:evenodd; clip-rule:evenodd" xmlns:xlink="http://www.w3.org/1999/xlink">
<g><path style="opacity:1" fill="#fefefe" d="M -0.5,-0.5 C 166.167,-0.5 332.833,-0.5 499.5,-0.5C 499.5,166.167 499.5,332.833 499.5,499.5C 332.833,499.5 166.167,499.5 -0.5,499.5C -0.5,332.833 -0.5,166.167 -0.5,-0.5 Z"/></g>
<g><path style="opacity:1" fill="#0c62ac" d="M 133.5,148.5 C 210.833,148.5 288.167,148.5 365.5,148.5C 365.5,215.833 365.5,283.167 365.5,350.5C 288.167,350.5 210.833,350.5 133.5,350.5C 133.5,283.167 133.5,215.833 133.5,148.5 Z"/></g>
<g><path style="opacity:1" fill="#f4f9fa" d="M 286.5,206.5 C 307.955,208.675 324.122,219.341 335,238.5C 347.161,281.189 331.994,308.522 289.5,320.5C 288.833,320.333 288.167,320.167 287.5,320C 321.697,300.747 332.197,272.581 319,235.5C 311.108,222.436 300.275,212.769 286.5,206.5 Z"/></g>
<g><path style="opacity:1" fill="#f6fafb" d="M 269.5,220.5 C 288.53,220.113 302.696,228.446 312,245.5C 320.386,279.077 307.719,299.41 274,306.5C 272.5,306.333 271,306.167 269.5,306C 293.176,294.335 302.343,275.502 297,249.5C 292.099,235.766 282.932,226.099 269.5,220.5 Z"/></g>
<g><path style="opacity:1" fill="#f7fafb" d="M 216.5,286.5 C 216.5,288.167 216.5,289.833 216.5,291.5C 211.833,291.5 207.167,291.5 202.5,291.5C 202.737,290.209 202.404,289.209 201.5,288.5C 201.326,286.139 200.993,283.806 200.5,281.5C 197.062,280.177 193.229,279.51 189,279.5C 184.985,279.501 181.151,279.835 177.5,280.5C 175.318,284.353 172.984,288.186 170.5,292C 166.179,292.499 161.846,292.666 157.5,292.5C 157.336,289.813 157.503,287.146 158,284.5C 168.167,267.667 178.333,250.833 188.5,234C 195.158,233.5 201.825,233.334 208.5,233.5C 211.353,251.139 214.02,268.805 216.5,286.5 Z"/></g>
<g><path style="opacity:1" fill="#fafcfc" d="M 221.5,233.5 C 233.838,233.333 246.171,233.5 258.5,234C 281.795,240.424 289.295,254.924 281,277.5C 275.601,285.458 268.101,290.291 258.5,292C 246.171,292.5 233.838,292.667 221.5,292.5C 221.5,272.833 221.5,253.167 221.5,233.5 Z"/></g>
<g><path style="opacity:1" fill="#0f62ac" d="M 251.5,248.5 C 259.465,249.969 263.798,254.803 264.5,263C 263.995,270.327 260.328,275.16 253.5,277.5C 249.833,277.5 246.167,277.5 242.5,277.5C 242.5,267.833 242.5,258.167 242.5,248.5C 245.5,248.5 248.5,248.5 251.5,248.5 Z"/></g>
<g><path style="opacity:1" fill="#4079aa" d="M 251.5,248.5 C 248.5,248.5 245.5,248.5 242.5,248.5C 242.5,258.167 242.5,267.833 242.5,277.5C 246.167,277.5 249.833,277.5 253.5,277.5C 249.702,278.483 245.702,278.817 241.5,278.5C 241.5,268.167 241.5,257.833 241.5,247.5C 245.042,247.187 248.375,247.521 251.5,248.5 Z"/></g>
<g><path style="opacity:1" fill="#1a65aa" d="M 194.5,247.5 C 196.117,248.589 196.95,250.256 197,252.5C 198.095,257.78 198.595,263.113 198.5,268.5C 193.786,268.827 189.12,268.493 184.5,267.5C 187.86,260.78 191.193,254.114 194.5,247.5 Z"/></g>
<g><path style="opacity:1" fill="#5389b1" d="M 177.5,280.5 C 181.151,279.835 184.985,279.501 189,279.5C 193.229,279.51 197.062,280.177 200.5,281.5C 192.92,280.534 185.253,280.201 177.5,280.5 Z"/></g>
<g><path style="opacity:1" fill="#a9d0e6" d="M 216.5,286.5 C 217.461,288.265 217.795,290.265 217.5,292.5C 212.167,292.5 206.833,292.5 201.5,292.5C 201.5,291.167 201.5,289.833 201.5,288.5C 202.404,289.209 202.737,290.209 202.5,291.5C 207.167,291.5 211.833,291.5 216.5,291.5C 216.5,289.833 216.5,288.167 216.5,286.5 Z"/></g>
</svg>
