<?xml version="1.0" encoding="UTF-8"?>
<!DOCTYPE svg PUBLIC "-//W3C//DTD SVG 1.1//EN" "http://www.w3.org/Graphics/SVG/1.1/DTD/svg11.dtd">
<svg xmlns="http://www.w3.org/2000/svg" version="1.1" width="500px" height="500px" style="shape-rendering:geometricPrecision; text-rendering:geometricPrecision; image-rendering:optimizeQuality; fill-rule:evenodd; clip-rule:evenodd" xmlns:xlink="http://www.w3.org/1999/xlink">
<g><path style="opacity:1" fill="#fefefe" d="M -0.5,-0.5 C 166.167,-0.5 332.833,-0.5 499.5,-0.5C 499.5,166.167 499.5,332.833 499.5,499.5C 332.833,499.5 166.167,499.5 -0.5,499.5C -0.5,332.833 -0.5,166.167 -0.5,-0.5 Z"/></g>
<g><path style="opacity:1" fill="#eeeeee" d="M 153.5,361.5 C 216.478,362.652 279.478,362.819 342.5,362C 352.866,358.639 359.366,351.805 362,341.5C 362.996,279.025 362.662,216.692 361,154.5C 360.833,216.335 360.333,278.001 359.5,339.5C 359.667,277.166 359.5,214.832 359,152.5C 355.641,144.471 349.808,139.304 341.5,137C 279.167,136.333 216.833,136.333 154.5,137C 145.797,139.368 139.963,144.868 137,153.5C 136.333,216.5 136.333,279.5 137,342.5C 139.198,349.194 143.365,354.194 149.5,357.5C 148.325,357.281 147.325,357.614 146.5,358.5C 147.77,359.288 148.77,360.288 149.5,361.5C 141.244,357.738 136.077,351.405 134,342.5C 133.011,278.776 133.344,215.109 135,151.5C 139.09,142.407 145.923,136.574 155.5,134C 217.833,133.333 280.167,133.333 342.5,134C 353.693,137.193 360.86,144.36 364,155.5C 364.989,219.224 364.656,282.891 363,346.5C 362,348.5 361,350.5 360,352.5C 356.833,354.333 354.333,356.833 352.5,360C 349.754,361.75 346.754,362.75 343.5,363C 280.833,363.667 218.167,363.667 155.5,363C 154.584,362.722 153.918,362.222 153.5,361.5 Z"/></g>
<g><path style="opacity:1" fill="#fdfdfe" d="M 359.5,339.5 C 356.994,350.839 349.994,357.672 338.5,360C 277.833,360.667 217.167,360.667 156.5,360C 153.896,359.61 151.562,358.776 149.5,357.5C 143.365,354.194 139.198,349.194 137,342.5C 136.333,279.5 136.333,216.5 137,153.5C 139.963,144.868 145.797,139.368 154.5,137C 216.833,136.333 279.167,136.333 341.5,137C 349.808,139.304 355.641,144.471 359,152.5C 359.5,214.832 359.667,277.166 359.5,339.5 Z"/></g>
<g><path style="opacity:1" fill="#a1bbde" d="M 339.5,146.5 C 278.832,146.333 218.166,146.5 157.5,147C 155.846,147.608 154.179,148.108 152.5,148.5C 153.058,147.21 154.058,146.377 155.5,146C 217.001,145.168 278.335,145.335 339.5,146.5 Z"/></g>
<g><path style="opacity:1" fill="#2071b8" d="M 339.5,146.5 C 342.846,147.515 345.513,149.515 347.5,152.5C 348.06,154.801 348.56,157.134 349,159.5C 349.5,219.499 349.667,279.499 349.5,339.5C 348.232,343.767 345.565,346.767 341.5,348.5C 280.862,349.655 220.195,349.822 159.5,349C 157.134,348.56 154.801,348.06 152.5,347.5C 150.473,346.139 148.806,344.473 147.5,342.5C 146.515,280.189 146.181,217.856 146.5,155.5C 147.723,152.602 149.723,150.269 152.5,148.5C 154.179,148.108 155.846,147.608 157.5,147C 218.166,146.5 278.832,146.333 339.5,146.5 Z"/></g>
<g><path style="opacity:1" fill="#d7d7d7" d="M 153.5,361.5 C 152.167,361.5 150.833,361.5 149.5,361.5C 148.77,360.288 147.77,359.288 146.5,358.5C 147.325,357.614 148.325,357.281 149.5,357.5C 151.562,358.776 153.896,359.61 156.5,360C 217.167,360.667 277.833,360.667 338.5,360C 349.994,357.672 356.994,350.839 359.5,339.5C 360.333,278.001 360.833,216.335 361,154.5C 362.662,216.692 362.996,279.025 362,341.5C 359.366,351.805 352.866,358.639 342.5,362C 279.478,362.819 216.478,362.652 153.5,361.5 Z"/></g>
<g><path style="opacity:1" fill="#8db2d9" d="M 146.5,155.5 C 146.181,217.856 146.515,280.189 147.5,342.5C 146.732,341.737 146.232,340.737 146,339.5C 145.168,277.999 145.335,216.665 146.5,155.5 Z"/></g>
<g><path style="opacity:1" fill="#91add9" d="M 347.5,152.5 C 348.966,153.347 349.8,154.68 350,156.5C 350.832,217.668 350.665,278.668 349.5,339.5C 349.667,279.499 349.5,219.499 349,159.5C 348.56,157.134 348.06,154.801 347.5,152.5 Z"/></g>
<g><path style="opacity:1" fill="#adc2e3" d="M 282.5,165.5 C 281.167,165.5 279.833,165.5 278.5,165.5C 279.665,162.978 280.998,162.978 282.5,165.5 Z"/></g>
<g><path style="opacity:1" fill="#f4f6fb" d="M 278.5,165.5 C 279.833,165.5 281.167,165.5 282.5,165.5C 286.269,167.22 289.936,169.22 293.5,171.5C 294.262,173.262 295.596,174.262 297.5,174.5C 300.474,177.138 303.474,179.805 306.5,182.5C 306.427,184.027 307.094,185.027 308.5,185.5C 315.871,192.88 321.204,201.547 324.5,211.5C 324.796,213.403 325.463,215.07 326.5,216.5C 327.434,217.568 327.768,218.901 327.5,220.5C 328.642,224.071 329.309,227.738 329.5,231.5C 328.209,231.263 327.209,231.596 326.5,232.5C 324.833,232.5 323.167,232.5 321.5,232.5C 321.675,230.379 321.341,228.379 320.5,226.5C 318.983,220.445 317.149,214.445 315,208.5C 314.617,207.944 314.117,207.611 313.5,207.5C 310.997,202.49 307.997,197.824 304.5,193.5C 304.573,191.973 303.906,190.973 302.5,190.5C 295.74,184.071 288.407,178.404 280.5,173.5C 280.027,172.094 279.027,171.427 277.5,171.5C 276.479,169.477 276.812,167.477 278.5,165.5 Z"/></g>
<g><path style="opacity:1" fill="#a9c1e2" d="M 277.5,171.5 C 279.027,171.427 280.027,172.094 280.5,173.5C 278.973,173.573 277.973,172.906 277.5,171.5 Z"/></g>
<g><path style="opacity:1" fill="#7ca4d3" d="M 293.5,171.5 C 295.404,171.738 296.738,172.738 297.5,174.5C 295.596,174.262 294.262,173.262 293.5,171.5 Z"/></g>
<g><path style="opacity:1" fill="#f2f5fa" d="M 306.5,213.5 C 306.427,215.027 307.094,216.027 308.5,216.5C 309.11,217.391 309.443,218.391 309.5,219.5C 309.259,221.898 309.926,223.898 311.5,225.5C 312.299,228.43 312.632,231.43 312.5,234.5C 309.881,234.768 307.381,234.435 305,233.5C 303.572,222.208 299.239,212.208 292,203.5C 285.099,196.648 277.599,190.648 269.5,185.5C 270.023,183.067 271.19,181.067 273,179.5C 288.43,186.762 299.596,198.095 306.5,213.5 Z"/></g>
<g><path style="opacity:1" fill="#9ebadf" d="M 306.5,182.5 C 307.906,182.973 308.573,183.973 308.5,185.5C 307.094,185.027 306.427,184.027 306.5,182.5 Z"/></g>
<g><path style="opacity:1" fill="#acc3e2" d="M 257.5,193.5 C 248.167,192.167 238.833,192.167 229.5,193.5C 229.918,192.778 230.584,192.278 231.5,192C 239.167,191.333 246.833,191.333 254.5,192C 255.737,192.232 256.737,192.732 257.5,193.5 Z"/></g>
<g><path style="opacity:1" fill="#94b2db" d="M 302.5,190.5 C 303.906,190.973 304.573,191.973 304.5,193.5C 303.094,193.027 302.427,192.027 302.5,190.5 Z"/></g>
<g><path style="opacity:1" fill="#f7f8fc" d="M 257.5,193.5 C 269.505,196.985 279.172,203.652 286.5,213.5C 286.427,215.027 287.094,216.027 288.5,216.5C 291.652,221.089 294.152,226.089 296,231.5C 297.319,244.131 296.152,256.464 292.5,268.5C 290.75,269.659 289.75,271.326 289.5,273.5C 287.674,275.147 286.34,277.147 285.5,279.5C 281.167,283.167 277.167,287.167 273.5,291.5C 270.757,293.239 268.757,295.573 267.5,298.5C 266.833,299.167 266.167,299.833 265.5,300.5C 264.094,300.973 263.427,301.973 263.5,303.5C 260.448,306.937 258.448,310.937 257.5,315.5C 255.838,318.12 254.172,320.787 252.5,323.5C 249.292,326.924 245.625,329.591 241.5,331.5C 241.167,331.5 240.833,331.5 240.5,331.5C 235.897,332.383 231.23,332.717 226.5,332.5C 223.665,331.482 220.998,329.982 218.5,328C 215.443,324.411 215.943,321.578 220,319.5C 221.585,320.044 223.085,320.711 224.5,321.5C 224.918,322.222 225.584,322.722 226.5,323C 230.833,323.667 235.167,323.667 239.5,323C 240.056,322.617 240.389,322.117 240.5,321.5C 242.48,320.516 244.147,319.183 245.5,317.5C 246.906,317.027 247.573,316.027 247.5,314.5C 249.771,312.388 251.104,309.721 251.5,306.5C 252.406,303.926 253.739,301.593 255.5,299.5C 258.828,297.013 261.162,293.679 262.5,289.5C 262.5,288.833 262.833,288.5 263.5,288.5C 264.906,288.027 265.573,287.027 265.5,285.5C 266.167,285.5 266.5,285.167 266.5,284.5C 268.5,284.5 269.5,283.5 269.5,281.5C 272.14,278.194 275.14,275.194 278.5,272.5C 279.906,272.027 280.573,271.027 280.5,269.5C 282.942,267.879 284.275,265.546 284.5,262.5C 284.557,261.391 284.89,260.391 285.5,259.5C 286.117,259.389 286.617,259.056 287,258.5C 288.953,250.16 288.953,241.827 287,233.5C 286.617,232.944 286.117,232.611 285.5,232.5C 285.59,229.848 284.924,227.515 283.5,225.5C 279.092,217.424 272.758,211.424 264.5,207.5C 261.318,204.118 257.318,202.284 252.5,202C 245.783,201.244 239.117,201.411 232.5,202.5C 229.284,202.345 226.617,203.345 224.5,205.5C 222.847,205.66 221.514,206.326 220.5,207.5C 217.911,208.419 215.911,210.086 214.5,212.5C 213.5,212.833 212.833,213.5 212.5,214.5C 209.027,216.637 206.694,219.637 205.5,223.5C 204.833,223.5 204.5,223.833 204.5,224.5C 202.102,228.403 200.769,232.736 200.5,237.5C 200.209,238.649 199.376,239.316 198,239.5C 195.601,239.387 193.768,238.387 192.5,236.5C 192.342,233.098 192.676,229.764 193.5,226.5C 193.557,225.391 193.89,224.391 194.5,223.5C 196.245,221.967 197.245,219.967 197.5,217.5C 197.932,216.29 198.599,215.29 199.5,214.5C 200.906,214.027 201.573,213.027 201.5,211.5C 206.001,205.325 211.667,200.658 218.5,197.5C 221.947,196.917 224.947,195.584 227.5,193.5C 228.167,193.5 228.833,193.5 229.5,193.5C 238.833,192.167 248.167,192.167 257.5,193.5 Z"/></g>
<g><path style="opacity:1" fill="#abc2e2" d="M 227.5,193.5 C 224.947,195.584 221.947,196.917 218.5,197.5C 221.053,195.416 224.053,194.083 227.5,193.5 Z"/></g>
<g><path style="opacity:1" fill="#4d86c4" d="M 264.5,207.5 C 254.347,202.676 243.681,201.342 232.5,203.5C 232.5,203.167 232.5,202.833 232.5,202.5C 239.117,201.411 245.783,201.244 252.5,202C 257.318,202.284 261.318,204.118 264.5,207.5 Z"/></g>
<g><path style="opacity:1" fill="#90afd9" d="M 232.5,202.5 C 232.5,202.833 232.5,203.167 232.5,203.5C 229.779,203.963 227.112,204.629 224.5,205.5C 226.617,203.345 229.284,202.345 232.5,202.5 Z"/></g>
<g><path style="opacity:1" fill="#8fafd9" d="M 248.5,208.5 C 243.77,208.283 239.103,208.617 234.5,209.5C 234.611,208.883 234.944,208.383 235.5,208C 240.02,207.186 244.354,207.353 248.5,208.5 Z"/></g>
<g><path style="opacity:1" fill="#f4f6fb" d="M 248.5,208.5 C 258.803,209.901 267.303,214.568 274,222.5C 276.038,225.243 277.538,228.243 278.5,231.5C 278.796,233.403 279.463,235.07 280.5,236.5C 282.908,247.954 280.575,258.454 273.5,268C 271.326,268.877 269.659,268.377 268.5,266.5C 268.674,264.139 269.007,261.806 269.5,259.5C 270.309,257.972 270.976,256.306 271.5,254.5C 273.006,251.644 273.672,248.477 273.5,245C 273.333,242.833 273.167,240.667 273,238.5C 272.722,237.584 272.222,236.918 271.5,236.5C 269.073,229.662 264.74,224.329 258.5,220.5C 257.365,218.787 255.698,218.12 253.5,218.5C 250.814,217.009 247.814,216.343 244.5,216.5C 241.467,216.669 238.467,217.002 235.5,217.5C 233.033,217.755 231.033,218.755 229.5,220.5C 227.246,221.124 225.579,222.457 224.5,224.5C 221.395,227.275 219.062,230.608 217.5,234.5C 215.142,234.747 213.142,234.081 211.5,232.5C 211.448,230.097 211.781,227.764 212.5,225.5C 215.167,220.167 219.167,216.167 224.5,213.5C 226.027,213.573 227.027,212.906 227.5,211.5C 229.515,210.076 231.848,209.41 234.5,209.5C 239.103,208.617 243.77,208.283 248.5,208.5 Z"/></g>
<g><path style="opacity:1" fill="#6b97cd" d="M 220.5,207.5 C 219.089,209.914 217.089,211.581 214.5,212.5C 215.911,210.086 217.911,208.419 220.5,207.5 Z"/></g>
<g><path style="opacity:1" fill="#a1badf" d="M 227.5,211.5 C 227.027,212.906 226.027,213.573 224.5,213.5C 224.973,212.094 225.973,211.427 227.5,211.5 Z"/></g>
<g><path style="opacity:1" fill="#a9c1e2" d="M 201.5,211.5 C 201.573,213.027 200.906,214.027 199.5,214.5C 199.427,212.973 200.094,211.973 201.5,211.5 Z"/></g>
<g><path style="opacity:1" fill="#90b1da" d="M 324.5,211.5 C 326.213,212.635 326.88,214.302 326.5,216.5C 325.463,215.07 324.796,213.403 324.5,211.5 Z"/></g>
<g><path style="opacity:1" fill="#afc5e4" d="M 286.5,213.5 C 287.906,213.973 288.573,214.973 288.5,216.5C 287.094,216.027 286.427,215.027 286.5,213.5 Z"/></g>
<g><path style="opacity:1" fill="#a9c0e2" d="M 306.5,213.5 C 307.906,213.973 308.573,214.973 308.5,216.5C 307.094,216.027 306.427,215.027 306.5,213.5 Z"/></g>
<g><path style="opacity:1" fill="#5e8ec8" d="M 313.5,207.5 C 314.117,207.611 314.617,207.944 315,208.5C 317.149,214.445 318.983,220.445 320.5,226.5C 316.84,220.775 314.507,214.442 313.5,207.5 Z"/></g>
<g><path style="opacity:1" fill="#568ac6" d="M 253.5,218.5 C 247.5,218.5 241.5,218.5 235.5,218.5C 235.5,218.167 235.5,217.833 235.5,217.5C 238.467,217.002 241.467,216.669 244.5,216.5C 247.814,216.343 250.814,217.009 253.5,218.5 Z"/></g>
<g><path style="opacity:1" fill="#aac2e2" d="M 253.5,218.5 C 255.698,218.12 257.365,218.787 258.5,220.5C 256.597,220.204 254.93,219.537 253.5,218.5 Z"/></g>
<g><path style="opacity:1" fill="#9cb8de" d="M 235.5,217.5 C 235.5,217.833 235.5,218.167 235.5,218.5C 233.579,219.363 231.579,220.029 229.5,220.5C 231.033,218.755 233.033,217.755 235.5,217.5 Z"/></g>
<g><path style="opacity:1" fill="#a6bfe1" d="M 197.5,217.5 C 197.245,219.967 196.245,221.967 194.5,223.5C 194.755,221.033 195.755,219.033 197.5,217.5 Z"/></g>
<g><path style="opacity:1" fill="#5d8fc9" d="M 212.5,214.5 C 212.461,215.583 212.127,216.583 211.5,217.5C 209.063,219.27 207.063,221.27 205.5,223.5C 206.694,219.637 209.027,216.637 212.5,214.5 Z"/></g>
<g><path style="opacity:1" fill="#719ccf" d="M 327.5,220.5 C 328.88,220.962 329.547,221.962 329.5,223.5C 330.302,226.449 330.636,229.449 330.5,232.5C 329.167,232.5 327.833,232.5 326.5,232.5C 327.209,231.596 328.209,231.263 329.5,231.5C 329.309,227.738 328.642,224.071 327.5,220.5 Z"/></g>
<g><path style="opacity:1" fill="#9ebade" d="M 309.5,219.5 C 311.074,221.102 311.741,223.102 311.5,225.5C 309.926,223.898 309.259,221.898 309.5,219.5 Z"/></g>
<g><path style="opacity:1" fill="#a5bee0" d="M 212.5,225.5 C 211.781,227.764 211.448,230.097 211.5,232.5C 210.853,231.726 210.52,230.726 210.5,229.5C 210.34,227.645 211.007,226.312 212.5,225.5 Z"/></g>
<g><path style="opacity:1" fill="#aac0e2" d="M 193.5,226.5 C 192.676,229.764 192.342,233.098 192.5,236.5C 191.351,236.209 190.684,235.376 190.5,234C 190.921,231.815 191.421,229.649 192,227.5C 192.383,226.944 192.883,226.611 193.5,226.5 Z"/></g>
<g><path style="opacity:1" fill="#5b8ec8" d="M 224.5,224.5 C 223.162,228.679 220.828,232.013 217.5,234.5C 219.062,230.608 221.395,227.275 224.5,224.5 Z"/></g>
<g><path style="opacity:1" fill="#7ea5d4" d="M 278.5,231.5 C 280.213,232.635 280.88,234.302 280.5,236.5C 279.463,235.07 278.796,233.403 278.5,231.5 Z"/></g>
<g><path style="opacity:1" fill="#6395cb" d="M 283.5,225.5 C 284.924,227.515 285.59,229.848 285.5,232.5C 285.5,233.167 285.5,233.833 285.5,234.5C 284.343,231.727 283.676,228.727 283.5,225.5 Z"/></g>
<g><path style="opacity:1" fill="#5a8cc7" d="M 204.5,224.5 C 204.209,229.379 202.876,233.712 200.5,237.5C 200.769,232.736 202.102,228.403 204.5,224.5 Z"/></g>
<g><path style="opacity:1" fill="#c8d6ec" d="M 246.5,246.5 C 241.126,249.645 239.292,247.978 241,241.5C 244.424,239.733 246.59,240.733 247.5,244.5C 247.457,245.416 247.124,246.083 246.5,246.5 Z"/></g>
<g><path style="opacity:1" fill="#fdfdfe" d="M 246.5,246.5 C 244.833,246.5 243.167,246.5 241.5,246.5C 241.5,245.167 241.5,243.833 241.5,242.5C 244.95,241.756 246.616,243.09 246.5,246.5 Z"/></g>
<g><path style="opacity:1" fill="#bccde8" d="M 285.5,232.5 C 286.117,232.611 286.617,232.944 287,233.5C 288.953,241.827 288.953,250.16 287,258.5C 286.617,259.056 286.117,259.389 285.5,259.5C 286.787,251.038 286.787,242.705 285.5,234.5C 285.5,233.833 285.5,233.167 285.5,232.5 Z"/></g>
<g><path style="opacity:1" fill="#7ea7d4" d="M 271.5,236.5 C 272.222,236.918 272.722,237.584 273,238.5C 273.167,240.667 273.333,242.833 273.5,245C 273.672,248.477 273.006,251.644 271.5,254.5C 272.833,248.5 272.833,242.5 271.5,236.5 Z"/></g>
<g><path style="opacity:1" fill="#f6f8fc" d="M 227.5,254.5 C 228.451,255.919 228.784,257.585 228.5,259.5C 226.958,260.301 225.292,260.634 223.5,260.5C 222.833,260.5 222.5,260.167 222.5,259.5C 222.183,255.828 223.849,254.162 227.5,254.5 Z"/></g>
<g><path style="opacity:1" fill="#a4bfe0" d="M 227.5,254.5 C 223.849,254.162 222.183,255.828 222.5,259.5C 221.265,257.983 221.265,256.316 222.5,254.5C 224.299,253.212 225.965,253.212 227.5,254.5 Z"/></g>
<g><path style="opacity:1" fill="#87abd7" d="M 228.5,259.5 C 228.209,260.649 227.376,261.316 226,261.5C 224.93,261.472 224.097,261.139 223.5,260.5C 224.097,261.139 224.93,261.472 226,261.5C 227.376,261.316 228.209,260.649 228.5,259.5 Z"/></g>
<g><path style="opacity:1" fill="#f3f6fb" d="M 213.5,273.5 C 213.267,275.062 212.6,276.395 211.5,277.5C 209.932,278.473 208.265,278.64 206.5,278C 204.671,274.682 202.671,271.516 200.5,268.5C 200.433,267.041 200.766,265.708 201.5,264.5C 202.895,262.7 204.561,262.366 206.5,263.5C 208.859,266.851 211.192,270.185 213.5,273.5 Z"/></g>
<g><path style="opacity:1" fill="#b8cae6" d="M 269.5,259.5 C 269.007,261.806 268.674,264.139 268.5,266.5C 267.503,266.53 266.836,266.03 266.5,265C 267.14,262.88 268.14,261.046 269.5,259.5 Z"/></g>
<g><path style="opacity:1" fill="#b8cae7" d="M 201.5,264.5 C 200.766,265.708 200.433,267.041 200.5,268.5C 199.503,268.53 198.836,268.03 198.5,267C 198.748,265.251 199.748,264.418 201.5,264.5 Z"/></g>
<g><path style="opacity:1" fill="#b9cbe7" d="M 284.5,262.5 C 284.275,265.546 282.942,267.879 280.5,269.5C 281.468,266.9 282.801,264.566 284.5,262.5 Z"/></g>
<g><path style="opacity:1" fill="#adc3e3" d="M 280.5,269.5 C 280.573,271.027 279.906,272.027 278.5,272.5C 278.427,270.973 279.094,269.973 280.5,269.5 Z"/></g>
<g><path style="opacity:1" fill="#6896cc" d="M 292.5,268.5 C 292.408,270.848 291.408,272.514 289.5,273.5C 289.75,271.326 290.75,269.659 292.5,268.5 Z"/></g>
<g><path style="opacity:1" fill="#80a4d4" d="M 213.5,273.5 C 214.976,275.709 214.309,277.042 211.5,277.5C 212.6,276.395 213.267,275.062 213.5,273.5 Z"/></g>
<g><path style="opacity:1" fill="#759ed1" d="M 289.5,273.5 C 289.155,276.198 287.822,278.198 285.5,279.5C 286.34,277.147 287.674,275.147 289.5,273.5 Z"/></g>
<g><path style="opacity:1" fill="#80aad6" d="M 189.5,280.5 C 188.041,280.433 186.708,280.766 185.5,281.5C 185.62,280.414 186.287,279.747 187.5,279.5C 188.416,279.543 189.083,279.876 189.5,280.5 Z"/></g>
<g><path style="opacity:1" fill="#ecf0f8" d="M 189.5,280.5 C 191.377,281.659 191.877,283.326 191,285.5C 189.322,287.553 187.489,287.887 185.5,286.5C 185.5,284.833 185.5,283.167 185.5,281.5C 186.708,280.766 188.041,280.433 189.5,280.5 Z"/></g>
<g><path style="opacity:1" fill="#aac0e2" d="M 185.5,281.5 C 185.5,283.167 185.5,284.833 185.5,286.5C 182.952,284.704 182.952,283.038 185.5,281.5 Z"/></g>
<g><path style="opacity:1" fill="#aec4e4" d="M 269.5,281.5 C 269.5,283.5 268.5,284.5 266.5,284.5C 267.167,283.167 268.167,282.167 269.5,281.5 Z"/></g>
<g><path style="opacity:1" fill="#a1bce0" d="M 265.5,285.5 C 265.573,287.027 264.906,288.027 263.5,288.5C 263.427,286.973 264.094,285.973 265.5,285.5 Z"/></g>
<g><path style="opacity:1" fill="#e9eef7" d="M 167.5,293.5 C 173.555,292.942 174.888,295.109 171.5,300C 166.57,300.427 165.237,298.26 167.5,293.5 Z"/></g>
<g><path style="opacity:1" fill="#789fd1" d="M 273.5,291.5 C 272.243,294.427 270.243,296.761 267.5,298.5C 268.757,295.573 270.757,293.239 273.5,291.5 Z"/></g>
<g><path style="opacity:1" fill="#c3d3eb" d="M 262.5,289.5 C 261.162,293.679 258.828,297.013 255.5,299.5C 257.062,295.608 259.395,292.275 262.5,289.5 Z"/></g>
<g><path style="opacity:1" fill="#97b4dc" d="M 265.5,300.5 C 265.573,302.027 264.906,303.027 263.5,303.5C 263.427,301.973 264.094,300.973 265.5,300.5 Z"/></g>
<g><path style="opacity:1" fill="#afc5e4" d="M 251.5,306.5 C 251.104,309.721 249.771,312.388 247.5,314.5C 247.896,311.279 249.229,308.612 251.5,306.5 Z"/></g>
<g><path style="opacity:1" fill="#adc2e3" d="M 247.5,314.5 C 247.573,316.027 246.906,317.027 245.5,317.5C 245.427,315.973 246.094,314.973 247.5,314.5 Z"/></g>
<g><path style="opacity:1" fill="#6a96cc" d="M 257.5,315.5 C 257.33,319.186 255.664,321.853 252.5,323.5C 254.172,320.787 255.838,318.12 257.5,315.5 Z"/></g>
<g><path style="opacity:1" fill="#5e92ca" d="M 224.5,321.5 C 229.856,322.704 235.189,322.704 240.5,321.5C 240.389,322.117 240.056,322.617 239.5,323C 235.167,323.667 230.833,323.667 226.5,323C 225.584,322.722 224.918,322.222 224.5,321.5 Z"/></g>
<g><path style="opacity:1" fill="#5c8dc8" d="M 252.5,323.5 C 250.659,328.509 246.992,331.176 241.5,331.5C 245.625,329.591 249.292,326.924 252.5,323.5 Z"/></g>
<g><path style="opacity:1" fill="#5991c9" d="M 240.5,331.5 C 238.603,332.805 236.269,333.471 233.5,333.5C 230.975,333.497 228.641,333.163 226.5,332.5C 231.23,332.717 235.897,332.383 240.5,331.5 Z"/></g>
<g><path style="opacity:1" fill="#6d99ce" d="M 152.5,347.5 C 154.801,348.06 157.134,348.56 159.5,349C 220.195,349.822 280.862,349.655 341.5,348.5C 341.082,349.222 340.416,349.722 339.5,350C 278.167,350.667 216.833,350.667 155.5,350C 154.058,349.623 153.058,348.79 152.5,347.5 Z"/></g>
</svg>
