<?xml version="1.0" encoding="UTF-8"?>
<!DOCTYPE svg PUBLIC "-//W3C//DTD SVG 1.1//EN" "http://www.w3.org/Graphics/SVG/1.1/DTD/svg11.dtd">
<svg xmlns="http://www.w3.org/2000/svg" version="1.1" width="500px" height="500px" style="shape-rendering:geometricPrecision; text-rendering:geometricPrecision; image-rendering:optimizeQuality; fill-rule:evenodd; clip-rule:evenodd" xmlns:xlink="http://www.w3.org/1999/xlink">
<g><path style="opacity:1" fill="#fefefe" d="M -0.5,-0.5 C 166.167,-0.5 332.833,-0.5 499.5,-0.5C 499.5,166.167 499.5,332.833 499.5,499.5C 332.833,499.5 166.167,499.5 -0.5,499.5C -0.5,332.833 -0.5,166.167 -0.5,-0.5 Z"/></g>
<g><path style="opacity:1" fill="#eeeeee" d="M 155.5,133.5 C 217.834,133.333 280.168,133.5 342.5,134C 353.693,137.193 360.86,144.36 364,155.5C 364.667,218.167 364.667,280.833 364,343.5C 363.443,345.615 362.609,347.615 361.5,349.5C 358.342,352.828 355.342,356.328 352.5,360C 349.666,361.6 346.666,362.766 343.5,363.5C 280.503,364.667 217.503,364.833 154.5,364C 143.831,360.335 136.998,353.168 134,342.5C 133.333,279.833 133.333,217.167 134,154.5C 137.785,143.88 144.952,136.88 155.5,133.5 Z"/></g>
<g><path style="opacity:1" fill="#fdfdfe" d="M 359.5,340.5 C 356.734,350.433 350.4,356.933 340.5,360C 279.167,360.667 217.833,360.667 156.5,360C 151.824,359.397 147.824,357.564 144.5,354.5C 140.809,351.287 138.309,347.287 137,342.5C 136.333,279.5 136.333,216.5 137,153.5C 139.929,144.904 145.763,139.404 154.5,137C 217.167,136.333 279.833,136.333 342.5,137C 350.245,139.744 355.745,144.911 359,152.5C 359.5,215.166 359.667,277.832 359.5,340.5 Z"/></g>
<g><path style="opacity:1" fill="#6994cb" d="M 339.5,147.5 C 278.167,147.5 216.833,147.5 155.5,147.5C 185.826,146.167 216.493,145.5 247.5,145.5C 278.507,145.5 309.174,146.167 339.5,147.5 Z"/></g>
<g><path style="opacity:1" fill="#1f70b8" d="M 155.5,147.5 C 216.833,147.5 278.167,147.5 339.5,147.5C 343.141,147.652 345.807,149.318 347.5,152.5C 348.06,154.801 348.56,157.134 349,159.5C 349.5,219.499 349.667,279.499 349.5,339.5C 348.232,343.767 345.565,346.767 341.5,348.5C 280.862,349.655 220.195,349.822 159.5,349C 157.134,348.56 154.801,348.06 152.5,347.5C 150.473,346.139 148.806,344.473 147.5,342.5C 146.515,280.189 146.181,217.856 146.5,155.5C 148.202,151.469 151.202,148.802 155.5,147.5 Z"/></g>
<g><path style="opacity:1" fill="#d7d7d7" d="M 144.5,354.5 C 147.824,357.564 151.824,359.397 156.5,360C 217.833,360.667 279.167,360.667 340.5,360C 350.4,356.933 356.734,350.433 359.5,340.5C 360.333,278.668 360.833,216.668 361,154.5C 362.662,216.692 362.996,279.025 362,341.5C 359.265,351.902 352.765,358.736 342.5,362C 280.833,362.667 219.167,362.667 157.5,362C 151.723,362.028 147.057,359.861 143.5,355.5C 143.624,354.893 143.957,354.56 144.5,354.5 Z"/></g>
<g><path style="opacity:1" fill="#8db2d9" d="M 146.5,155.5 C 146.181,217.856 146.515,280.189 147.5,342.5C 146.732,341.737 146.232,340.737 146,339.5C 145.168,277.999 145.335,216.665 146.5,155.5 Z"/></g>
<g><path style="opacity:1" fill="#91add9" d="M 347.5,152.5 C 348.966,153.347 349.8,154.68 350,156.5C 350.832,217.668 350.665,278.668 349.5,339.5C 349.667,279.499 349.5,219.499 349,159.5C 348.56,157.134 348.06,154.801 347.5,152.5 Z"/></g>
<g><path style="opacity:1" fill="#f8fbfc" d="M 232.5,171.5 C 234.833,171.5 237.167,171.5 239.5,171.5C 240.045,178.673 241.378,185.673 243.5,192.5C 243.755,194.967 244.755,196.967 246.5,198.5C 251.916,200.117 257.583,200.784 263.5,200.5C 268.175,202.576 273.175,203.91 278.5,204.5C 279.833,204.5 281.167,204.5 282.5,204.5C 284.629,205.203 286.629,206.203 288.5,207.5C 289.93,208.537 291.597,209.204 293.5,209.5C 293.833,209.5 294.167,209.5 294.5,209.5C 294.973,210.906 295.973,211.573 297.5,211.5C 299.426,212.486 301.426,213.486 303.5,214.5C 303.973,215.906 304.973,216.573 306.5,216.5C 308.833,218.5 311.167,220.5 313.5,222.5C 315.55,224.547 317.883,226.214 320.5,227.5C 325.089,232.394 329.423,237.394 333.5,242.5C 336.471,245.694 337.138,249.361 335.5,253.5C 333.478,254.507 332.145,256.174 331.5,258.5C 329.457,259.579 328.124,261.246 327.5,263.5C 324.833,265.5 322.5,267.833 320.5,270.5C 320.5,270.833 320.5,271.167 320.5,271.5C 318.251,272.08 316.585,273.413 315.5,275.5C 313.251,276.08 311.585,277.413 310.5,279.5C 307.95,280.057 305.95,281.39 304.5,283.5C 302.517,284.471 300.517,285.471 298.5,286.5C 296.847,286.66 295.514,287.326 294.5,288.5C 293.448,288.351 292.448,288.517 291.5,289C 289.681,289.74 288.348,290.907 287.5,292.5C 284.833,293.167 282.167,293.833 279.5,294.5C 276.189,294.307 273.522,295.307 271.5,297.5C 270.833,297.5 270.5,297.833 270.5,298.5C 269.876,298.917 269.543,299.584 269.5,300.5C 270.426,304.13 271.093,307.797 271.5,311.5C 271.259,313.898 271.926,315.898 273.5,317.5C 273.5,317.833 273.5,318.167 273.5,318.5C 274.833,324.5 272.5,326.833 266.5,325.5C 265.596,324.791 265.263,323.791 265.5,322.5C 265.554,319.008 264.554,316.008 262.5,313.5C 262.5,313.167 262.5,312.833 262.5,312.5C 262.342,308.159 261.342,304.159 259.5,300.5C 257.701,294.157 256.034,287.823 254.5,281.5C 253.848,280.275 252.681,279.608 251,279.5C 248.992,279.307 247.492,279.974 246.5,281.5C 246.5,282.5 246.5,283.5 246.5,284.5C 247.627,289.469 248.627,294.469 249.5,299.5C 246.5,299.5 243.5,299.5 240.5,299.5C 240.59,296.848 239.924,294.515 238.5,292.5C 238.59,289.848 237.924,287.515 236.5,285.5C 236.337,281 234.004,278.334 229.5,277.5C 228.791,276.596 227.791,276.263 226.5,276.5C 226.337,278.857 226.503,281.19 227,283.5C 227.383,284.056 227.883,284.389 228.5,284.5C 228.993,286.806 229.326,289.139 229.5,291.5C 229.357,293.262 229.691,294.929 230.5,296.5C 229.311,297.429 227.978,297.762 226.5,297.5C 224.585,297.784 222.919,297.451 221.5,296.5C 220.619,292.546 219.952,288.546 219.5,284.5C 219.554,281.008 218.554,278.008 216.5,275.5C 216.59,272.848 215.924,270.515 214.5,268.5C 214.048,264.454 213.381,260.454 212.5,256.5C 212.88,254.302 212.213,252.635 210.5,251.5C 209.924,248.124 209.257,244.791 208.5,241.5C 208.59,238.848 207.924,236.515 206.5,234.5C 205.92,229.666 204.92,224.999 203.5,220.5C 203.38,219.414 202.713,218.747 201.5,218.5C 200.584,218.543 199.917,218.876 199.5,219.5C 198.5,220.167 197.5,220.833 196.5,221.5C 195.098,225.29 195.431,228.956 197.5,232.5C 198.482,235.763 199.149,239.097 199.5,242.5C 199.41,245.152 200.076,247.485 201.5,249.5C 202.341,251.379 202.675,253.379 202.5,255.5C 202.41,258.152 203.076,260.485 204.5,262.5C 205.234,263.708 205.567,265.041 205.5,266.5C 206.219,268.764 206.552,271.097 206.5,273.5C 206.41,276.152 207.076,278.485 208.5,280.5C 209.371,283.003 210.037,285.67 210.5,288.5C 210.5,289.833 210.5,291.167 210.5,292.5C 209.5,292.5 208.5,292.5 207.5,292.5C 207.167,292.5 206.833,292.5 206.5,292.5C 206.027,291.094 205.027,290.427 203.5,290.5C 202.833,290.167 202.167,289.833 201.5,289.5C 201.483,287.435 201.15,285.435 200.5,283.5C 200.741,281.102 200.074,279.102 198.5,277.5C 198.167,275.5 197.833,273.5 197.5,271.5C 197.741,269.102 197.074,267.102 195.5,265.5C 195.3,262.37 194.634,259.37 193.5,256.5C 193.483,254.435 193.15,252.435 192.5,250.5C 192.495,247.468 192.162,244.468 191.5,241.5C 191.36,239.97 190.693,238.97 189.5,238.5C 189.5,238.167 189.5,237.833 189.5,237.5C 189.585,234.253 188.585,231.419 186.5,229C 184.588,228.721 183.254,229.554 182.5,231.5C 181.883,231.611 181.383,231.944 181,232.5C 180.121,236.477 180.621,240.144 182.5,243.5C 183.038,245.117 183.371,246.784 183.5,248.5C 183.676,251.727 184.343,254.727 185.5,257.5C 186.913,260.219 187.58,263.219 187.5,266.5C 187.658,270.841 188.658,274.841 190.5,278.5C 190.5,279.167 190.5,279.833 190.5,280.5C 190.672,281.492 190.338,282.158 189.5,282.5C 186.151,281.831 183.484,280.164 181.5,277.5C 181.59,274.848 180.924,272.515 179.5,270.5C 178.706,267.198 178.04,263.865 177.5,260.5C 177.741,258.102 177.074,256.102 175.5,254.5C 175.236,250.508 174.236,246.841 172.5,243.5C 171.508,243.328 170.842,243.662 170.5,244.5C 168.069,245.607 167.069,247.607 167.5,250.5C 167.754,254.05 168.421,257.383 169.5,260.5C 169.768,262.099 169.434,263.432 168.5,264.5C 167.833,264.167 167.167,263.833 166.5,263.5C 164.794,260.808 163.128,258.141 161.5,255.5C 159.616,253.231 158.283,250.564 157.5,247.5C 157.668,245.829 158.335,244.496 159.5,243.5C 161.878,241.122 163.878,238.455 165.5,235.5C 169.234,232.769 172.234,229.436 174.5,225.5C 175.167,225.167 175.833,224.833 176.5,224.5C 178.795,223.864 180.461,222.531 181.5,220.5C 183.404,220.262 184.738,219.262 185.5,217.5C 189.865,214.317 194.532,211.65 199.5,209.5C 202.947,208.917 205.947,207.584 208.5,205.5C 208.833,205.5 209.167,205.5 209.5,205.5C 211.698,205.125 213.698,204.458 215.5,203.5C 218.219,202.087 221.219,201.42 224.5,201.5C 228.167,200.833 231.833,200.167 235.5,199.5C 234.882,194.67 234.215,189.837 233.5,185C 233.392,183.319 232.725,182.152 231.5,181.5C 231.62,179.266 231.287,177.099 230.5,175C 230.978,173.697 231.645,172.531 232.5,171.5 Z"/></g>
<g><path style="opacity:1" fill="#6aa5d8" d="M 232.5,171.5 C 231.645,172.531 230.978,173.697 230.5,175C 231.287,177.099 231.62,179.266 231.5,181.5C 231.833,182.833 232.167,184.167 232.5,185.5C 231.883,185.389 231.383,185.056 231,184.5C 229.675,180.572 229.342,176.572 230,172.5C 230.671,171.748 231.504,171.414 232.5,171.5 Z"/></g>
<g><path style="opacity:1" fill="#609ed5" d="M 243.5,192.5 C 245.245,194.033 246.245,196.033 246.5,198.5C 244.755,196.967 243.755,194.967 243.5,192.5 Z"/></g>
<g><path style="opacity:1" fill="#a2c7e8" d="M 231.5,181.5 C 232.725,182.152 233.392,183.319 233.5,185C 234.215,189.837 234.882,194.67 235.5,199.5C 231.833,200.167 228.167,200.833 224.5,201.5C 227.146,199.747 230.146,198.747 233.5,198.5C 233.533,194.131 233.2,189.798 232.5,185.5C 232.167,184.167 231.833,182.833 231.5,181.5 Z"/></g>
<g><path style="opacity:1" fill="#acceeb" d="M 246.5,198.5 C 253.374,198.521 260.041,199.187 266.5,200.5C 265.5,200.5 264.5,200.5 263.5,200.5C 257.583,200.784 251.916,200.117 246.5,198.5 Z"/></g>
<g><path style="opacity:1" fill="#d1e5f5" d="M 263.5,200.5 C 264.5,200.5 265.5,200.5 266.5,200.5C 269.627,201.581 272.96,202.247 276.5,202.5C 277.167,203.167 277.833,203.833 278.5,204.5C 273.175,203.91 268.175,202.576 263.5,200.5 Z"/></g>
<g><path style="opacity:1" fill="#5897d1" d="M 276.5,202.5 C 278.898,202.259 280.898,202.926 282.5,204.5C 281.167,204.5 279.833,204.5 278.5,204.5C 277.833,203.833 277.167,203.167 276.5,202.5 Z"/></g>
<g><path style="opacity:1" fill="#7eb2e1" d="M 215.5,203.5 C 213.698,204.458 211.698,205.125 209.5,205.5C 210.99,203.72 212.99,203.054 215.5,203.5 Z"/></g>
<g><path style="opacity:1" fill="#94bfe6" d="M 208.5,205.5 C 205.947,207.584 202.947,208.917 199.5,209.5C 202.053,207.416 205.053,206.083 208.5,205.5 Z"/></g>
<g><path style="opacity:1" fill="#7eb0dc" d="M 288.5,207.5 C 290.698,207.12 292.365,207.787 293.5,209.5C 291.597,209.204 289.93,208.537 288.5,207.5 Z"/></g>
<g><path style="opacity:1" fill="#5293cd" d="M 259.5,211.5 C 256.193,210.949 252.86,210.616 249.5,210.5C 249.5,212.167 249.5,213.833 249.5,215.5C 248.532,213.393 248.198,211.059 248.5,208.5C 252.525,208.63 256.191,209.63 259.5,211.5 Z"/></g>
<g><path style="opacity:1" fill="#2575bc" d="M 230.5,209.5 C 232.833,209.5 235.167,209.5 237.5,209.5C 237.833,212.167 238.167,214.833 238.5,217.5C 236.299,218.566 233.965,219.233 231.5,219.5C 230.676,216.236 230.342,212.902 230.5,209.5 Z"/></g>
<g><path style="opacity:1" fill="#2674bb" d="M 259.5,211.5 C 264.478,213.991 269.145,216.991 273.5,220.5C 274.08,222.749 275.413,224.415 277.5,225.5C 278.401,226.29 279.068,227.29 279.5,228.5C 279.427,230.027 280.094,231.027 281.5,231.5C 281.989,232.995 282.655,234.329 283.5,235.5C 284.701,243.507 284.701,251.507 283.5,259.5C 282.85,261.435 282.517,263.435 282.5,265.5C 281.295,268.389 279.628,271.056 277.5,273.5C 276.094,273.973 275.427,274.973 275.5,276.5C 273.167,278.167 271.167,280.167 269.5,282.5C 268.167,282.5 266.833,282.5 265.5,282.5C 265.768,280.901 265.434,279.568 264.5,278.5C 264.343,277.127 264.51,275.793 265,274.5C 269.274,271.412 272.108,267.412 273.5,262.5C 275.045,261.77 275.878,260.437 276,258.5C 276.667,252.5 276.667,246.5 276,240.5C 275.617,239.944 275.117,239.611 274.5,239.5C 274.245,237.033 273.245,235.033 271.5,233.5C 269.858,231.185 268.192,228.851 266.5,226.5C 263.508,224.829 260.841,222.829 258.5,220.5C 256.316,218.415 253.649,217.415 250.5,217.5C 249.662,217.158 249.328,216.492 249.5,215.5C 249.5,213.833 249.5,212.167 249.5,210.5C 252.86,210.616 256.193,210.949 259.5,211.5 Z"/></g>
<g><path style="opacity:1" fill="#89b6df" d="M 294.5,209.5 C 296.027,209.427 297.027,210.094 297.5,211.5C 295.973,211.573 294.973,210.906 294.5,209.5 Z"/></g>
<g><path style="opacity:1" fill="#5898d2" d="M 220.5,217.5 C 218.597,214.357 215.93,213.69 212.5,215.5C 216.556,211.077 219.223,211.744 220.5,217.5 Z"/></g>
<g><path style="opacity:1" fill="#81b5e4" d="M 237.5,209.5 C 238.117,209.611 238.617,209.944 239,210.5C 239.497,212.81 239.663,215.143 239.5,217.5C 239.167,217.5 238.833,217.5 238.5,217.5C 238.167,214.833 237.833,212.167 237.5,209.5 Z"/></g>
<g><path style="opacity:1" fill="#2474bb" d="M 220.5,217.5 C 221.234,218.708 221.567,220.041 221.5,221.5C 221.663,223.857 221.497,226.19 221,228.5C 219.519,229.471 218.685,230.804 218.5,232.5C 217.833,232.5 217.167,232.5 216.5,232.5C 216.472,229.084 215.472,226.084 213.5,223.5C 213.425,220.794 213.092,218.127 212.5,215.5C 215.93,213.69 218.597,214.357 220.5,217.5 Z"/></g>
<g><path style="opacity:1" fill="#7eafdc" d="M 230.5,209.5 C 230.342,212.902 230.676,216.236 231.5,219.5C 230.883,219.389 230.383,219.056 230,218.5C 229.564,216.153 229.064,213.819 228.5,211.5C 228.747,210.287 229.414,209.62 230.5,209.5 Z"/></g>
<g><path style="opacity:1" fill="#6da6d8" d="M 303.5,214.5 C 305.027,214.427 306.027,215.094 306.5,216.5C 304.973,216.573 303.973,215.906 303.5,214.5 Z"/></g>
<g><path style="opacity:1" fill="#5e9bd4" d="M 250.5,217.5 C 253.649,217.415 256.316,218.415 258.5,220.5C 255.351,220.585 252.684,219.585 250.5,217.5 Z"/></g>
<g><path style="opacity:1" fill="#9ec7ea" d="M 288.5,217.5 C 287.417,217.461 286.417,217.127 285.5,216.5C 284.702,216.957 284.369,217.624 284.5,218.5C 283.596,217.791 283.263,216.791 283.5,215.5C 285.698,215.12 287.365,215.787 288.5,217.5 Z"/></g>
<g><path style="opacity:1" fill="#aaceed" d="M 185.5,217.5 C 184.738,219.262 183.404,220.262 181.5,220.5C 182.262,218.738 183.596,217.738 185.5,217.5 Z"/></g>
<g><path style="opacity:1" fill="#aed2ef" d="M 199.5,219.5 C 199.917,218.876 200.584,218.543 201.5,218.5C 202.713,218.747 203.38,219.414 203.5,220.5C 202.292,219.766 200.959,219.433 199.5,219.5 Z"/></g>
<g><path style="opacity:1" fill="#bad6ee" d="M 238.5,217.5 C 238.833,217.5 239.167,217.5 239.5,217.5C 237.285,220.34 234.618,221.007 231.5,219.5C 233.965,219.233 236.299,218.566 238.5,217.5 Z"/></g>
<g><path style="opacity:1" fill="#2272ba" d="M 288.5,217.5 C 290.517,218.529 292.517,219.529 294.5,220.5C 294.973,221.906 295.973,222.573 297.5,222.5C 299.149,223.473 300.816,224.473 302.5,225.5C 302.973,226.906 303.973,227.573 305.5,227.5C 308.751,230.481 312.085,233.481 315.5,236.5C 316.419,239.089 318.086,241.089 320.5,242.5C 325.304,245.25 326.304,248.917 323.5,253.5C 321.413,254.585 320.08,256.251 319.5,258.5C 318.833,258.5 318.5,258.833 318.5,259.5C 316.5,259.5 315.5,260.5 315.5,262.5C 314.833,262.5 314.5,262.833 314.5,263.5C 312.5,263.5 311.5,264.5 311.5,266.5C 307.37,269.737 303.037,272.737 298.5,275.5C 296.847,275.66 295.514,276.326 294.5,277.5C 294.5,278.167 294.167,278.5 293.5,278.5C 292.167,278.833 290.833,279.167 289.5,279.5C 288.503,279.53 287.836,279.03 287.5,278C 288.148,276.56 288.481,275.06 288.5,273.5C 289.537,272.07 290.204,270.403 290.5,268.5C 292.104,267.713 292.771,266.38 292.5,264.5C 292.263,263.209 292.596,262.209 293.5,261.5C 294.268,260.737 294.768,259.737 295,258.5C 295.667,252.167 295.667,245.833 295,239.5C 294.963,237.026 294.13,235.026 292.5,233.5C 292.771,231.62 292.104,230.287 290.5,229.5C 290.672,228.508 290.338,227.842 289.5,227.5C 289.245,225.033 288.245,223.033 286.5,221.5C 285.833,220.5 285.167,219.5 284.5,218.5C 284.369,217.624 284.702,216.957 285.5,216.5C 286.417,217.127 287.417,217.461 288.5,217.5 Z"/></g>
<g><path style="opacity:1" fill="#76abd9" d="M 273.5,220.5 C 275.587,221.585 276.92,223.251 277.5,225.5C 275.413,224.415 274.08,222.749 273.5,220.5 Z"/></g>
<g><path style="opacity:1" fill="#91bee7" d="M 294.5,220.5 C 296.027,220.427 297.027,221.094 297.5,222.5C 295.973,222.573 294.973,221.906 294.5,220.5 Z"/></g>
<g><path style="opacity:1" fill="#c4ddf2" d="M 181.5,220.5 C 180.461,222.531 178.795,223.864 176.5,224.5C 177.579,222.457 179.246,221.124 181.5,220.5 Z"/></g>
<g><path style="opacity:1" fill="#659fd3" d="M 313.5,222.5 C 316.803,222.735 319.137,224.402 320.5,227.5C 317.883,226.214 315.55,224.547 313.5,222.5 Z"/></g>
<g><path style="opacity:1" fill="#8cbae3" d="M 221.5,221.5 C 224.423,226.042 223.423,229.709 218.5,232.5C 218.685,230.804 219.519,229.471 221,228.5C 221.497,226.19 221.663,223.857 221.5,221.5 Z"/></g>
<g><path style="opacity:1" fill="#aed1ec" d="M 302.5,225.5 C 304.027,225.427 305.027,226.094 305.5,227.5C 303.973,227.573 302.973,226.906 302.5,225.5 Z"/></g>
<g><path style="opacity:1" fill="#b2d2ec" d="M 286.5,221.5 C 288.245,223.033 289.245,225.033 289.5,227.5C 287.755,225.967 286.755,223.967 286.5,221.5 Z"/></g>
<g><path style="opacity:1" fill="#a3c8e7" d="M 196.5,221.5 C 196.552,225.198 196.886,228.865 197.5,232.5C 195.431,228.956 195.098,225.29 196.5,221.5 Z"/></g>
<g><path style="opacity:1" fill="#8dbae2" d="M 213.5,223.5 C 215.472,226.084 216.472,229.084 216.5,232.5C 214.69,229.855 213.69,226.855 213.5,223.5 Z"/></g>
<g><path style="opacity:1" fill="#abceec" d="M 174.5,225.5 C 172.234,229.436 169.234,232.769 165.5,235.5C 167.766,231.564 170.766,228.231 174.5,225.5 Z"/></g>
<g><path style="opacity:1" fill="#8ebae3" d="M 279.5,228.5 C 280.906,228.973 281.573,229.973 281.5,231.5C 280.094,231.027 279.427,230.027 279.5,228.5 Z"/></g>
<g><path style="opacity:1" fill="#91bde4" d="M 189.5,237.5 C 188.422,235.461 187.422,233.294 186.5,231C 185.181,230.805 183.847,230.972 182.5,231.5C 183.254,229.554 184.588,228.721 186.5,229C 188.585,231.419 189.585,234.253 189.5,237.5 Z"/></g>
<g><path style="opacity:1" fill="#b5d3ee" d="M 290.5,229.5 C 292.104,230.287 292.771,231.62 292.5,233.5C 293.15,235.435 293.483,237.435 293.5,239.5C 292.007,236.417 291.007,233.083 290.5,229.5 Z"/></g>
<g><path style="opacity:1" fill="#77aedc" d="M 206.5,234.5 C 207.924,236.515 208.59,238.848 208.5,241.5C 207.076,239.485 206.41,237.152 206.5,234.5 Z"/></g>
<g><path style="opacity:1" fill="#6ca6da" d="M 315.5,236.5 C 317.914,237.911 319.581,239.911 320.5,242.5C 318.086,241.089 316.419,239.089 315.5,236.5 Z"/></g>
<g><path style="opacity:1" fill="#aeceec" d="M 271.5,233.5 C 273.245,235.033 274.245,237.033 274.5,239.5C 272.755,237.967 271.755,235.967 271.5,233.5 Z"/></g>
<g><path style="opacity:1" fill="#abcdea" d="M 165.5,235.5 C 163.878,238.455 161.878,241.122 159.5,243.5C 160.353,239.98 162.353,237.313 165.5,235.5 Z"/></g>
<g><path style="opacity:1" fill="#a2c6e7" d="M 182.5,231.5 C 181.38,235.472 181.38,239.472 182.5,243.5C 180.621,240.144 180.121,236.477 181,232.5C 181.383,231.944 181.883,231.611 182.5,231.5 Z"/></g>
<g><path style="opacity:1" fill="#cee2f4" d="M 189.5,238.5 C 190.693,238.97 191.36,239.97 191.5,241.5C 192.162,244.468 192.495,247.468 192.5,250.5C 192.167,250.5 191.833,250.5 191.5,250.5C 190.925,246.477 190.259,242.477 189.5,238.5 Z"/></g>
<g><path style="opacity:1" fill="#a4cbec" d="M 199.5,242.5 C 200.924,244.515 201.59,246.848 201.5,249.5C 200.076,247.485 199.41,245.152 199.5,242.5 Z"/></g>
<g><path style="opacity:1" fill="#649fd2" d="M 274.5,239.5 C 275.117,239.611 275.617,239.944 276,240.5C 276.667,246.5 276.667,252.5 276,258.5C 275.878,260.437 275.045,261.77 273.5,262.5C 275.591,254.9 275.924,247.233 274.5,239.5 Z"/></g>
<g><path style="opacity:1" fill="#7eb3e2" d="M 283.5,235.5 C 285.813,243.274 286.147,251.274 284.5,259.5C 284.167,259.5 283.833,259.5 283.5,259.5C 284.701,251.507 284.701,243.507 283.5,235.5 Z"/></g>
<g><path style="opacity:1" fill="#609cd3" d="M 170.5,244.5 C 169.425,246.157 168.758,247.991 168.5,250C 169.286,253.458 169.62,256.958 169.5,260.5C 168.421,257.383 167.754,254.05 167.5,250.5C 167.069,247.607 168.069,245.607 170.5,244.5 Z"/></g>
<g><path style="opacity:1" fill="#4f93ce" d="M 292.5,233.5 C 294.13,235.026 294.963,237.026 295,239.5C 295.667,245.833 295.667,252.167 295,258.5C 294.768,259.737 294.268,260.737 293.5,261.5C 294.722,254.116 294.722,246.783 293.5,239.5C 293.483,237.435 293.15,235.435 292.5,233.5 Z"/></g>
<g><path style="opacity:1" fill="#5698d4" d="M 172.5,243.5 C 174.236,246.841 175.236,250.508 175.5,254.5C 175.5,254.833 175.5,255.167 175.5,255.5C 173.658,251.841 172.658,247.841 172.5,243.5 Z"/></g>
<g><path style="opacity:1" fill="#91bce4" d="M 183.5,248.5 C 184.117,248.611 184.617,248.944 185,249.5C 185.497,252.146 185.664,254.813 185.5,257.5C 184.343,254.727 183.676,251.727 183.5,248.5 Z"/></g>
<g><path style="opacity:1" fill="#5494d1" d="M 333.5,242.5 C 336.617,243.725 337.95,246.059 337.5,249.5C 337.415,251.333 336.748,252.666 335.5,253.5C 337.138,249.361 336.471,245.694 333.5,242.5 Z"/></g>
<g><path style="opacity:1" fill="#65a1d8" d="M 191.5,250.5 C 191.833,250.5 192.167,250.5 192.5,250.5C 193.15,252.435 193.483,254.435 193.5,256.5C 191.926,254.898 191.259,252.898 191.5,250.5 Z"/></g>
<g><path style="opacity:1" fill="#90bee6" d="M 210.5,251.5 C 212.213,252.635 212.88,254.302 212.5,256.5C 210.787,255.365 210.12,253.698 210.5,251.5 Z"/></g>
<g><path style="opacity:1" fill="#abcdeb" d="M 323.5,253.5 C 322.92,255.749 321.587,257.415 319.5,258.5C 320.08,256.251 321.413,254.585 323.5,253.5 Z"/></g>
<g><path style="opacity:1" fill="#609ad1" d="M 335.5,253.5 C 335.21,256.127 333.876,257.794 331.5,258.5C 332.145,256.174 333.478,254.507 335.5,253.5 Z"/></g>
<g><path style="opacity:1" fill="#619cd3" d="M 161.5,255.5 C 163.128,258.141 164.794,260.808 166.5,263.5C 163.167,261.841 161.5,259.175 161.5,255.5 Z"/></g>
<g><path style="opacity:1" fill="#9cc5e8" d="M 175.5,254.5 C 177.074,256.102 177.741,258.102 177.5,260.5C 176.069,259.22 175.402,257.553 175.5,255.5C 175.5,255.167 175.5,254.833 175.5,254.5 Z"/></g>
<g><path style="opacity:1" fill="#9cc2e4" d="M 318.5,259.5 C 317.833,260.833 316.833,261.833 315.5,262.5C 315.5,260.5 316.5,259.5 318.5,259.5 Z"/></g>
<g><path style="opacity:1" fill="#a0c7e8" d="M 202.5,255.5 C 204.163,257.438 204.829,259.772 204.5,262.5C 203.076,260.485 202.41,258.152 202.5,255.5 Z"/></g>
<g><path style="opacity:1" fill="#bfd9f0" d="M 283.5,259.5 C 283.833,259.5 284.167,259.5 284.5,259.5C 284.741,261.898 284.074,263.898 282.5,265.5C 282.517,263.435 282.85,261.435 283.5,259.5 Z"/></g>
<g><path style="opacity:1" fill="#90bfe5" d="M 169.5,260.5 C 170.793,262.364 170.793,264.364 169.5,266.5C 168.702,266.043 168.369,265.376 168.5,264.5C 169.434,263.432 169.768,262.099 169.5,260.5 Z"/></g>
<g><path style="opacity:1" fill="#a9cbe8" d="M 314.5,263.5 C 313.833,264.833 312.833,265.833 311.5,266.5C 311.5,264.5 312.5,263.5 314.5,263.5 Z"/></g>
<g><path style="opacity:1" fill="#a7cbeb" d="M 292.5,264.5 C 292.771,266.38 292.104,267.713 290.5,268.5C 290.66,266.847 291.326,265.514 292.5,264.5 Z"/></g>
<g><path style="opacity:1" fill="#5b9bd4" d="M 205.5,266.5 C 206.117,266.611 206.617,266.944 207,267.5C 207.696,270.478 208.196,273.478 208.5,276.5C 207.833,275.5 207.167,274.5 206.5,273.5C 206.552,271.097 206.219,268.764 205.5,266.5 Z"/></g>
<g><path style="opacity:1" fill="#6fa6d8" d="M 327.5,263.5 C 326.167,266.833 323.833,269.167 320.5,270.5C 322.5,267.833 324.833,265.5 327.5,263.5 Z"/></g>
<g><path style="opacity:1" fill="#88b9e3" d="M 195.5,265.5 C 197.074,267.102 197.741,269.102 197.5,271.5C 195.926,269.898 195.259,267.898 195.5,265.5 Z"/></g>
<g><path style="opacity:1" fill="#c8dff2" d="M 311.5,266.5 C 308.077,271.042 303.743,274.375 298.5,276.5C 298.5,276.167 298.5,275.833 298.5,275.5C 303.037,272.737 307.37,269.737 311.5,266.5 Z"/></g>
<g><path style="opacity:1" fill="#6ca6d9" d="M 214.5,268.5 C 215.924,270.515 216.59,272.848 216.5,275.5C 215.076,273.485 214.41,271.152 214.5,268.5 Z"/></g>
<g><path style="opacity:1" fill="#6aa3d7" d="M 273.5,262.5 C 272.108,267.412 269.274,271.412 265,274.5C 264.51,275.793 264.343,277.127 264.5,278.5C 263.387,277.054 263.22,275.387 264,273.5C 267.806,270.208 270.973,266.541 273.5,262.5 Z"/></g>
<g><path style="opacity:1" fill="#66a0d6" d="M 320.5,271.5 C 319.415,273.587 317.749,274.92 315.5,275.5C 316.585,273.413 318.251,272.08 320.5,271.5 Z"/></g>
<g><path style="opacity:1" fill="#82b4de" d="M 179.5,270.5 C 180.924,272.515 181.59,274.848 181.5,277.5C 180.076,275.485 179.41,273.152 179.5,270.5 Z"/></g>
<g><path style="opacity:1" fill="#a4c7e7" d="M 277.5,273.5 C 277.573,275.027 276.906,276.027 275.5,276.5C 275.427,274.973 276.094,273.973 277.5,273.5 Z"/></g>
<g><path style="opacity:1" fill="#6ba3d4" d="M 298.5,275.5 C 298.5,275.833 298.5,276.167 298.5,276.5C 297.292,277.234 295.959,277.567 294.5,277.5C 295.514,276.326 296.847,275.66 298.5,275.5 Z"/></g>
<g><path style="opacity:1" fill="#b5d4ee" d="M 187.5,266.5 C 189.342,270.159 190.342,274.159 190.5,278.5C 188.658,274.841 187.658,270.841 187.5,266.5 Z"/></g>
<g><path style="opacity:1" fill="#c2dcf2" d="M 216.5,275.5 C 218.554,278.008 219.554,281.008 219.5,284.5C 219.167,284.5 218.833,284.5 218.5,284.5C 217.833,281.5 217.167,278.5 216.5,275.5 Z"/></g>
<g><path style="opacity:1" fill="#bbd8f1" d="M 206.5,273.5 C 207.167,274.5 207.833,275.5 208.5,276.5C 208.5,277.833 208.5,279.167 208.5,280.5C 207.076,278.485 206.41,276.152 206.5,273.5 Z"/></g>
<g><path style="opacity:1" fill="#9dc7e9" d="M 254.5,281.5 C 251.871,280.286 249.204,280.286 246.5,281.5C 247.492,279.974 248.992,279.307 251,279.5C 252.681,279.608 253.848,280.275 254.5,281.5 Z"/></g>
<g><path style="opacity:1" fill="#5493d0" d="M 288.5,273.5 C 288.481,275.06 288.148,276.56 287.5,278C 287.836,279.03 288.503,279.53 289.5,279.5C 289.5,279.833 289.5,280.167 289.5,280.5C 287.685,281.63 285.685,282.296 283.5,282.5C 284.729,279.267 286.396,276.267 288.5,273.5 Z"/></g>
<g><path style="opacity:1" fill="#b0d0ec" d="M 293.5,278.5 C 292.817,280.176 291.483,280.843 289.5,280.5C 289.5,280.167 289.5,279.833 289.5,279.5C 290.833,279.167 292.167,278.833 293.5,278.5 Z"/></g>
<g><path style="opacity:1" fill="#8ec2ea" d="M 190.5,280.5 C 191.776,281.386 191.776,282.386 190.5,283.5C 189.893,283.376 189.56,283.043 189.5,282.5C 190.338,282.158 190.672,281.492 190.5,280.5 Z"/></g>
<g><path style="opacity:1" fill="#91bfe6" d="M 198.5,277.5 C 200.074,279.102 200.741,281.102 200.5,283.5C 200.167,283.5 199.833,283.5 199.5,283.5C 198.85,281.565 198.517,279.565 198.5,277.5 Z"/></g>
<g><path style="opacity:1" fill="#accdec" d="M 229.5,277.5 C 228.503,277.47 227.836,277.97 227.5,279C 228.233,280.766 228.567,282.599 228.5,284.5C 227.883,284.389 227.383,284.056 227,283.5C 226.503,281.19 226.337,278.857 226.5,276.5C 227.791,276.263 228.791,276.596 229.5,277.5 Z"/></g>
<g><path style="opacity:1" fill="#5694ce" d="M 310.5,279.5 C 309.172,281.719 307.172,283.052 304.5,283.5C 305.95,281.39 307.95,280.057 310.5,279.5 Z"/></g>
<g><path style="opacity:1" fill="#b1cfea" d="M 264.5,278.5 C 265.434,279.568 265.768,280.901 265.5,282.5C 266.833,282.5 268.167,282.5 269.5,282.5C 268.22,283.931 266.553,284.598 264.5,284.5C 264.5,282.5 264.5,280.5 264.5,278.5 Z"/></g>
<g><path style="opacity:1" fill="#5797d2" d="M 199.5,283.5 C 199.833,283.5 200.167,283.5 200.5,283.5C 201.15,285.435 201.483,287.435 201.5,289.5C 199.926,287.898 199.259,285.898 199.5,283.5 Z"/></g>
<g><path style="opacity:1" fill="#9ac5e7" d="M 298.5,286.5 C 297.713,288.104 296.38,288.771 294.5,288.5C 295.514,287.326 296.847,286.66 298.5,286.5 Z"/></g>
<g><path style="opacity:1" fill="#86b6e2" d="M 294.5,288.5 C 292.664,290.588 290.331,291.921 287.5,292.5C 288.348,290.907 289.681,289.74 291.5,289C 292.448,288.517 293.448,288.351 294.5,288.5 Z"/></g>
<g><path style="opacity:1" fill="#7bb0dc" d="M 203.5,290.5 C 205.027,290.427 206.027,291.094 206.5,292.5C 204.973,292.573 203.973,291.906 203.5,290.5 Z"/></g>
<g><path style="opacity:1" fill="#4c8fcf" d="M 218.5,284.5 C 218.833,284.5 219.167,284.5 219.5,284.5C 219.952,288.546 220.619,292.546 221.5,296.5C 220.414,296.38 219.747,295.713 219.5,294.5C 218.673,291.217 218.34,287.884 218.5,284.5 Z"/></g>
<g><path style="opacity:1" fill="#6ba4d8" d="M 236.5,285.5 C 237.924,287.515 238.59,289.848 238.5,292.5C 237.076,290.485 236.41,288.152 236.5,285.5 Z"/></g>
<g><path style="opacity:1" fill="#639fd6" d="M 246.5,284.5 C 247.117,284.611 247.617,284.944 248,285.5C 249.158,290.457 249.992,295.457 250.5,300.5C 246.958,300.813 243.625,300.479 240.5,299.5C 243.5,299.5 246.5,299.5 249.5,299.5C 248.627,294.469 247.627,289.469 246.5,284.5 Z"/></g>
<g><path style="opacity:1" fill="#77b0e0" d="M 210.5,288.5 C 211.451,289.919 211.784,291.585 211.5,293.5C 209.901,293.768 208.568,293.434 207.5,292.5C 208.5,292.5 209.5,292.5 210.5,292.5C 210.5,291.167 210.5,289.833 210.5,288.5 Z"/></g>
<g><path style="opacity:1" fill="#87b7e2" d="M 229.5,291.5 C 230.117,291.611 230.617,291.944 231,292.5C 231.495,294.473 231.662,296.473 231.5,298.5C 229.585,298.784 227.919,298.451 226.5,297.5C 227.978,297.762 229.311,297.429 230.5,296.5C 229.691,294.929 229.357,293.262 229.5,291.5 Z"/></g>
<g><path style="opacity:1" fill="#a1c8e9" d="M 279.5,294.5 C 277.021,295.795 274.354,296.795 271.5,297.5C 273.522,295.307 276.189,294.307 279.5,294.5 Z"/></g>
<g><path style="opacity:1" fill="#4e92cf" d="M 270.5,298.5 C 271.681,302.743 272.348,307.076 272.5,311.5C 272.167,311.5 271.833,311.5 271.5,311.5C 271.093,307.797 270.426,304.13 269.5,300.5C 269.543,299.584 269.876,298.917 270.5,298.5 Z"/></g>
<g><path style="opacity:1" fill="#7ab1e1" d="M 259.5,300.5 C 261.342,304.159 262.342,308.159 262.5,312.5C 260.658,308.841 259.658,304.841 259.5,300.5 Z"/></g>
<g><path style="opacity:1" fill="#b1d2ef" d="M 262.5,313.5 C 264.554,316.008 265.554,319.008 265.5,322.5C 264.054,319.746 263.054,316.746 262.5,313.5 Z"/></g>
<g><path style="opacity:1" fill="#95bfe5" d="M 271.5,311.5 C 271.833,311.5 272.167,311.5 272.5,311.5C 273.15,313.435 273.483,315.435 273.5,317.5C 271.926,315.898 271.259,313.898 271.5,311.5 Z"/></g>
<g><path style="opacity:1" fill="#80b2de" d="M 273.5,318.5 C 276.167,325.833 273.833,328.167 266.5,325.5C 272.5,326.833 274.833,324.5 273.5,318.5 Z"/></g>
<g><path style="opacity:1" fill="#6d99ce" d="M 152.5,347.5 C 154.801,348.06 157.134,348.56 159.5,349C 220.195,349.822 280.862,349.655 341.5,348.5C 341.082,349.222 340.416,349.722 339.5,350C 278.167,350.667 216.833,350.667 155.5,350C 154.058,349.623 153.058,348.79 152.5,347.5 Z"/></g>
</svg>
