<?xml version="1.0" encoding="UTF-8"?>
<!DOCTYPE svg PUBLIC "-//W3C//DTD SVG 1.1//EN" "http://www.w3.org/Graphics/SVG/1.1/DTD/svg11.dtd">
<svg xmlns="http://www.w3.org/2000/svg" version="1.1" width="500px" height="500px" style="shape-rendering:geometricPrecision; text-rendering:geometricPrecision; image-rendering:optimizeQuality; fill-rule:evenodd; clip-rule:evenodd" xmlns:xlink="http://www.w3.org/1999/xlink">
<g><path style="opacity:1" fill="#fefefe" d="M -0.5,-0.5 C 166.167,-0.5 332.833,-0.5 499.5,-0.5C 499.5,166.167 499.5,332.833 499.5,499.5C 332.833,499.5 166.167,499.5 -0.5,499.5C -0.5,332.833 -0.5,166.167 -0.5,-0.5 Z"/></g>
<g><path style="opacity:1" fill="#efefee" d="M 155.5,133.5 C 217.834,133.333 280.168,133.5 342.5,134C 353.693,137.193 360.86,144.36 364,155.5C 364.667,218.167 364.667,280.833 364,343.5C 363.443,345.615 362.609,347.615 361.5,349.5C 358.342,352.828 355.342,356.328 352.5,360C 349.666,361.6 346.666,362.766 343.5,363.5C 280.503,364.667 217.503,364.833 154.5,364C 143.831,360.335 136.998,353.168 134,342.5C 133.333,279.833 133.333,217.167 134,154.5C 137.785,143.88 144.952,136.88 155.5,133.5 Z"/></g>
<g><path style="opacity:1" fill="#fdfdfe" d="M 359.5,340.5 C 356.734,350.433 350.4,356.933 340.5,360C 279.167,360.667 217.833,360.667 156.5,360C 151.824,359.397 147.824,357.564 144.5,354.5C 140.809,351.287 138.309,347.287 137,342.5C 136.333,279.5 136.333,216.5 137,153.5C 139.929,144.904 145.763,139.404 154.5,137C 217.167,136.333 279.833,136.333 342.5,137C 350.245,139.744 355.745,144.911 359,152.5C 359.5,215.166 359.667,277.832 359.5,340.5 Z"/></g>
<g><path style="opacity:1" fill="#6994cb" d="M 339.5,147.5 C 278.167,147.5 216.833,147.5 155.5,147.5C 185.826,146.167 216.493,145.5 247.5,145.5C 278.507,145.5 309.174,146.167 339.5,147.5 Z"/></g>
<g><path style="opacity:1" fill="#1f71b8" d="M 155.5,147.5 C 216.833,147.5 278.167,147.5 339.5,147.5C 343.141,147.652 345.807,149.318 347.5,152.5C 348.06,154.801 348.56,157.134 349,159.5C 349.5,219.499 349.667,279.499 349.5,339.5C 348.232,343.767 345.565,346.767 341.5,348.5C 280.862,349.655 220.195,349.822 159.5,349C 157.134,348.56 154.801,348.06 152.5,347.5C 150.473,346.139 148.806,344.473 147.5,342.5C 146.515,280.189 146.181,217.856 146.5,155.5C 148.202,151.469 151.202,148.802 155.5,147.5 Z"/></g>
<g><path style="opacity:1" fill="#6fa7d8" d="M 215.5,159.5 C 212.167,158.167 208.833,158.167 205.5,159.5C 205.611,158.883 205.944,158.383 206.5,158C 209.167,157.333 211.833,157.333 214.5,158C 215.056,158.383 215.389,158.883 215.5,159.5 Z"/></g>
<g><path style="opacity:1" fill="#65a1d4" d="M 291.5,158.5 C 288.43,158.368 285.43,158.701 282.5,159.5C 282.611,158.883 282.944,158.383 283.5,158C 286.367,157.199 289.034,157.366 291.5,158.5 Z"/></g>
<g><path style="opacity:1" fill="#d7d7d7" d="M 144.5,354.5 C 147.824,357.564 151.824,359.397 156.5,360C 217.833,360.667 279.167,360.667 340.5,360C 350.4,356.933 356.734,350.433 359.5,340.5C 360.333,278.668 360.833,216.668 361,154.5C 362.662,216.692 362.996,279.025 362,341.5C 359.265,351.902 352.765,358.736 342.5,362C 280.833,362.667 219.167,362.667 157.5,362C 151.723,362.028 147.057,359.861 143.5,355.5C 143.624,354.893 143.957,354.56 144.5,354.5 Z"/></g>
<g><path style="opacity:1" fill="#8db2d9" d="M 146.5,155.5 C 146.181,217.856 146.515,280.189 147.5,342.5C 146.732,341.737 146.232,340.737 146,339.5C 145.168,277.999 145.335,216.665 146.5,155.5 Z"/></g>
<g><path style="opacity:1" fill="#fafcfe" d="M 215.5,159.5 C 219.089,160.092 221.422,162.092 222.5,165.5C 223.762,170.152 223.762,174.819 222.5,179.5C 221.461,181.531 219.795,182.864 217.5,183.5C 215.973,183.427 214.973,184.094 214.5,185.5C 210.5,184.833 206.5,184.167 202.5,183.5C 202.167,182.5 201.5,181.833 200.5,181.5C 200.573,179.973 199.906,178.973 198.5,178.5C 197.404,174.587 197.238,170.587 198,166.5C 199.395,162.936 201.895,160.603 205.5,159.5C 208.833,158.167 212.167,158.167 215.5,159.5 Z"/></g>
<g><path style="opacity:1" fill="#fafcfe" d="M 291.5,158.5 C 296.504,160.17 299.837,163.504 301.5,168.5C 301.5,170.833 301.5,173.167 301.5,175.5C 301.039,178.303 299.705,180.637 297.5,182.5C 295.25,183.13 293.25,184.13 291.5,185.5C 288.14,185.384 284.807,185.051 281.5,184.5C 280.205,183.512 278.872,182.512 277.5,181.5C 277.245,179.033 276.245,177.033 274.5,175.5C 274.5,173.833 274.5,172.167 274.5,170.5C 276.065,168.491 277.065,166.157 277.5,163.5C 278.579,161.457 280.246,160.124 282.5,159.5C 285.43,158.701 288.43,158.368 291.5,158.5 Z"/></g>
<g><path style="opacity:1" fill="#91add9" d="M 347.5,152.5 C 348.966,153.347 349.8,154.68 350,156.5C 350.832,217.668 350.665,278.668 349.5,339.5C 349.667,279.499 349.5,219.499 349,159.5C 348.56,157.134 348.06,154.801 347.5,152.5 Z"/></g>
<g><path style="opacity:1" fill="#b7d5ef" d="M 277.5,163.5 C 277.065,166.157 276.065,168.491 274.5,170.5C 274.5,169.5 274.5,168.5 274.5,167.5C 275.026,165.77 276.026,164.436 277.5,163.5 Z"/></g>
<g><path style="opacity:1" fill="#cae1f4" d="M 222.5,165.5 C 226.489,170.127 226.489,174.794 222.5,179.5C 223.762,174.819 223.762,170.152 222.5,165.5 Z"/></g>
<g><path style="opacity:1" fill="#4991d0" d="M 274.5,167.5 C 274.5,168.5 274.5,169.5 274.5,170.5C 274.5,172.167 274.5,173.833 274.5,175.5C 273.252,174.666 272.585,173.333 272.5,171.5C 272.585,169.667 273.252,168.334 274.5,167.5 Z"/></g>
<g><path style="opacity:1" fill="#66a3d9" d="M 301.5,168.5 C 302.993,169.312 303.66,170.645 303.5,172.5C 303.36,174.03 302.693,175.03 301.5,175.5C 301.5,173.167 301.5,170.833 301.5,168.5 Z"/></g>
<g><path style="opacity:1" fill="#7fb3e1" d="M 198.5,178.5 C 199.906,178.973 200.573,179.973 200.5,181.5C 199.094,181.027 198.427,180.027 198.5,178.5 Z"/></g>
<g><path style="opacity:1" fill="#79aede" d="M 274.5,175.5 C 276.245,177.033 277.245,179.033 277.5,181.5C 275.755,179.967 274.755,177.967 274.5,175.5 Z"/></g>
<g><path style="opacity:1" fill="#add1ef" d="M 217.5,183.5 C 217.027,184.906 216.027,185.573 214.5,185.5C 214.973,184.094 215.973,183.427 217.5,183.5 Z"/></g>
<g><path style="opacity:1" fill="#76adde" d="M 297.5,182.5 C 296.267,184.796 294.267,186.13 291.5,186.5C 291.5,186.167 291.5,185.833 291.5,185.5C 293.25,184.13 295.25,183.13 297.5,182.5 Z"/></g>
<g><path style="opacity:1" fill="#c2dbf1" d="M 202.5,183.5 C 206.5,184.167 210.5,184.833 214.5,185.5C 210.167,187.123 206.167,186.457 202.5,183.5 Z"/></g>
<g><path style="opacity:1" fill="#b7d5ef" d="M 281.5,184.5 C 284.807,185.051 288.14,185.384 291.5,185.5C 291.5,185.833 291.5,186.167 291.5,186.5C 288.813,186.664 286.146,186.497 283.5,186C 282.584,185.722 281.918,185.222 281.5,184.5 Z"/></g>
<g><path style="opacity:1" fill="#9ec6e9" d="M 204.5,207.5 C 208.646,206.353 212.98,206.186 217.5,207C 218.942,207.377 219.942,208.21 220.5,209.5C 215.324,207.816 209.991,207.15 204.5,207.5 Z"/></g>
<g><path style="opacity:1" fill="#a7ccec" d="M 296.5,208.5 C 291.86,207.603 287.194,207.436 282.5,208C 281.211,209.802 279.544,210.969 277.5,211.5C 278.625,209.871 279.959,208.371 281.5,207C 285.833,206.333 290.167,206.333 294.5,207C 295.416,207.278 296.082,207.778 296.5,208.5 Z"/></g>
<g><path style="opacity:1" fill="#fafcfe" d="M 204.5,207.5 C 209.991,207.15 215.324,207.816 220.5,209.5C 220.833,210.5 221.5,211.167 222.5,211.5C 223.229,216.13 223.563,220.797 223.5,225.5C 222.326,226.514 221.66,227.847 221.5,229.5C 220.833,229.5 220.5,229.833 220.5,230.5C 215.882,233.02 210.882,234.02 205.5,233.5C 203.858,232.197 202.191,230.864 200.5,229.5C 200.315,227.804 199.481,226.471 198,225.5C 197.502,222.518 197.335,219.518 197.5,216.5C 198.375,212.3 200.709,209.3 204.5,207.5 Z"/></g>
<g><path style="opacity:1" fill="#fbfcfe" d="M 296.5,208.5 C 297.793,210.296 299.293,211.963 301,213.5C 301.483,214.448 301.649,215.448 301.5,216.5C 301.919,220.773 301.252,224.773 299.5,228.5C 298.5,228.833 297.833,229.5 297.5,230.5C 292.099,234.071 286.433,234.404 280.5,231.5C 279.5,229.833 278.167,228.5 276.5,227.5C 276.843,225.517 276.176,224.183 274.5,223.5C 274.5,221.167 274.5,218.833 274.5,216.5C 276.408,215.514 277.408,213.848 277.5,211.5C 279.544,210.969 281.211,209.802 282.5,208C 287.194,207.436 291.86,207.603 296.5,208.5 Z"/></g>
<g><path style="opacity:1" fill="#b5d4ef" d="M 277.5,211.5 C 277.408,213.848 276.408,215.514 274.5,216.5C 274.75,214.326 275.75,212.659 277.5,211.5 Z"/></g>
<g><path style="opacity:1" fill="#c6def3" d="M 222.5,211.5 C 225.919,215.992 226.252,220.659 223.5,225.5C 223.563,220.797 223.229,216.13 222.5,211.5 Z"/></g>
<g><path style="opacity:1" fill="#81b6e4" d="M 301.5,216.5 C 302.641,219.64 302.808,222.973 302,226.5C 301.292,227.381 300.458,228.047 299.5,228.5C 301.252,224.773 301.919,220.773 301.5,216.5 Z"/></g>
<g><path style="opacity:1" fill="#acceec" d="M 274.5,223.5 C 276.176,224.183 276.843,225.517 276.5,227.5C 275.326,226.486 274.66,225.153 274.5,223.5 Z"/></g>
<g><path style="opacity:1" fill="#5598d4" d="M 197.5,216.5 C 197.335,219.518 197.502,222.518 198,225.5C 199.481,226.471 200.315,227.804 200.5,229.5C 199.206,228.71 198.039,227.71 197,226.5C 196.192,222.973 196.359,219.64 197.5,216.5 Z"/></g>
<g><path style="opacity:1" fill="#7bafdc" d="M 223.5,225.5 C 223.771,227.38 223.104,228.713 221.5,229.5C 221.66,227.847 222.326,226.514 223.5,225.5 Z"/></g>
<g><path style="opacity:1" fill="#76acdb" d="M 276.5,227.5 C 278.167,228.5 279.5,229.833 280.5,231.5C 278.167,231.167 276.833,229.833 276.5,227.5 Z"/></g>
<g><path style="opacity:1" fill="#5b9bd3" d="M 220.5,230.5 C 219.657,232.173 218.324,233.34 216.5,234C 212.642,234.81 208.976,234.643 205.5,233.5C 210.882,234.02 215.882,233.02 220.5,230.5 Z"/></g>
<g><path style="opacity:1" fill="#5494cf" d="M 297.5,230.5 C 295.661,233.52 292.827,234.853 289,234.5C 286.833,234.333 284.667,234.167 282.5,234C 281.244,233.583 280.577,232.75 280.5,231.5C 286.433,234.404 292.099,234.071 297.5,230.5 Z"/></g>
<g><path style="opacity:1" fill="#67a3da" d="M 297.5,257.5 C 293.6,254.963 289.266,253.963 284.5,254.5C 284.167,254.5 283.833,254.5 283.5,254.5C 283.611,253.883 283.944,253.383 284.5,253C 290.002,251.613 294.335,253.113 297.5,257.5 Z"/></g>
<g><path style="opacity:1" fill="#98c6ec" d="M 214.5,254.5 C 211.43,254.368 208.43,254.701 205.5,255.5C 205.611,254.883 205.944,254.383 206.5,254C 209.367,253.199 212.034,253.366 214.5,254.5 Z"/></g>
<g><path style="opacity:1" fill="#fafcfe" d="M 214.5,254.5 C 215.391,255.11 216.391,255.443 217.5,255.5C 217.973,256.906 218.973,257.573 220.5,257.5C 221.6,258.605 222.267,259.938 222.5,261.5C 224.178,264.552 224.845,267.885 224.5,271.5C 222.986,275.531 220.319,278.531 216.5,280.5C 211.797,280.563 207.13,280.229 202.5,279.5C 202.167,278.5 201.5,277.833 200.5,277.5C 200.573,275.973 199.906,274.973 198.5,274.5C 197.167,270.167 197.167,265.833 198.5,261.5C 199.906,261.027 200.573,260.027 200.5,258.5C 201.659,256.75 203.326,255.75 205.5,255.5C 208.43,254.701 211.43,254.368 214.5,254.5 Z"/></g>
<g><path style="opacity:1" fill="#fafcfe" d="M 284.5,254.5 C 289.266,253.963 293.6,254.963 297.5,257.5C 302.818,262.369 303.818,268.036 300.5,274.5C 298.937,275.945 297.604,277.611 296.5,279.5C 295.833,279.5 295.167,279.5 294.5,279.5C 290.167,280.833 285.833,280.833 281.5,279.5C 278.833,278.833 277.167,277.167 276.5,274.5C 274.835,268.826 275.502,263.493 278.5,258.5C 280.966,257.702 282.966,256.369 284.5,254.5 Z"/></g>
<g><path style="opacity:1" fill="#76abd9" d="M 217.5,255.5 C 219.027,255.427 220.027,256.094 220.5,257.5C 218.973,257.573 217.973,256.906 217.5,255.5 Z"/></g>
<g><path style="opacity:1" fill="#bfdbf2" d="M 283.5,254.5 C 283.833,254.5 284.167,254.5 284.5,254.5C 282.966,256.369 280.966,257.702 278.5,258.5C 279.579,256.457 281.246,255.124 283.5,254.5 Z"/></g>
<g><path style="opacity:1" fill="#8cb9e1" d="M 200.5,258.5 C 200.573,260.027 199.906,261.027 198.5,261.5C 198.427,259.973 199.094,258.973 200.5,258.5 Z"/></g>
<g><path style="opacity:1" fill="#c5def3" d="M 278.5,258.5 C 275.502,263.493 274.835,268.826 276.5,274.5C 275.883,274.389 275.383,274.056 275,273.5C 274.333,269.833 274.333,266.167 275,262.5C 275.66,260.676 276.827,259.343 278.5,258.5 Z"/></g>
<g><path style="opacity:1" fill="#a5cced" d="M 222.5,261.5 C 223.458,261.953 224.292,262.619 225,263.5C 225.801,266.367 225.634,269.034 224.5,271.5C 224.845,267.885 224.178,264.552 222.5,261.5 Z"/></g>
<g><path style="opacity:1" fill="#74addf" d="M 198.5,274.5 C 199.906,274.973 200.573,275.973 200.5,277.5C 199.094,277.027 198.427,276.027 198.5,274.5 Z"/></g>
<g><path style="opacity:1" fill="#65a2d8" d="M 300.5,274.5 C 300.33,277.204 298.997,278.871 296.5,279.5C 297.604,277.611 298.937,275.945 300.5,274.5 Z"/></g>
<g><path style="opacity:1" fill="#b6d5ef" d="M 202.5,279.5 C 207.13,280.229 211.797,280.563 216.5,280.5C 214.696,281.162 212.696,281.495 210.5,281.5C 207.473,281.713 204.807,281.047 202.5,279.5 Z"/></g>
<g><path style="opacity:1" fill="#bad7f0" d="M 281.5,279.5 C 285.833,280.833 290.167,280.833 294.5,279.5C 294.389,280.117 294.056,280.617 293.5,281C 289.833,281.667 286.167,281.667 282.5,281C 281.944,280.617 281.611,280.117 281.5,279.5 Z"/></g>
<g><path style="opacity:1" fill="#c5dff3" d="M 193.5,300.5 C 186.5,300.5 179.5,300.5 172.5,300.5C 172.5,312.833 172.5,325.167 172.5,337.5C 180.167,337.5 187.833,337.5 195.5,337.5C 195.5,337.833 195.5,338.167 195.5,338.5C 187.586,339.467 179.586,339.801 171.5,339.5C 171.5,326.167 171.5,312.833 171.5,299.5C 179.019,299.175 186.352,299.508 193.5,300.5 Z"/></g>
<g><path style="opacity:1" fill="#f5f9fd" d="M 193.5,300.5 C 195.784,300.975 197.784,301.975 199.5,303.5C 199.963,306.482 200.296,309.482 200.5,312.5C 199.275,313.937 198.275,315.604 197.5,317.5C 198.901,319.277 200.401,320.944 202,322.5C 202.678,326.221 202.511,329.888 201.5,333.5C 199.772,335.226 197.772,336.559 195.5,337.5C 187.833,337.5 180.167,337.5 172.5,337.5C 172.5,325.167 172.5,312.833 172.5,300.5C 179.5,300.5 186.5,300.5 193.5,300.5 Z"/></g>
<g><path style="opacity:1" fill="#448fd0" d="M 267.5,305.5 C 267.795,303.265 267.461,301.265 266.5,299.5C 264.585,299.216 262.919,299.549 261.5,300.5C 260.549,301.919 260.216,303.585 260.5,305.5C 259.189,303.44 259.189,301.274 260.5,299C 263.146,298.503 265.813,298.336 268.5,298.5C 268.802,301.059 268.468,303.393 267.5,305.5 Z"/></g>
<g><path style="opacity:1" fill="#f0f6fc" d="M 266.5,299.5 C 266.5,301.167 266.5,302.833 266.5,304.5C 264.833,304.5 263.167,304.5 261.5,304.5C 261.5,303.167 261.5,301.833 261.5,300.5C 262.919,299.549 264.585,299.216 266.5,299.5 Z"/></g>
<g><path style="opacity:1" fill="#c0ddf3" d="M 274.5,299.5 C 276.5,299.5 278.5,299.5 280.5,299.5C 280.5,312.833 280.5,326.167 280.5,339.5C 278.5,339.5 276.5,339.5 274.5,339.5C 274.5,326.167 274.5,312.833 274.5,299.5 Z"/></g>
<g><path style="opacity:1" fill="#fcfdfe" d="M 275.5,300.5 C 276.833,300.5 278.167,300.5 279.5,300.5C 279.5,313.167 279.5,325.833 279.5,338.5C 278.167,338.5 276.833,338.5 275.5,338.5C 275.5,325.833 275.5,313.167 275.5,300.5 Z"/></g>
<g><path style="opacity:1" fill="#d6e8f7" d="M 288.5,299.5 C 290.415,299.216 292.081,299.549 293.5,300.5C 292.167,300.5 290.833,300.5 289.5,300.5C 289.5,312.833 289.5,325.167 289.5,337.5C 290.833,337.5 292.167,337.5 293.5,337.5C 292.081,338.451 290.415,338.784 288.5,338.5C 288.5,325.5 288.5,312.5 288.5,299.5 Z"/></g>
<g><path style="opacity:1" fill="#97c1e6" d="M 288.5,299.5 C 288.5,312.5 288.5,325.5 288.5,338.5C 290.415,338.784 292.081,338.451 293.5,337.5C 293.5,325.167 293.5,312.833 293.5,300.5C 294.495,313.323 294.829,326.323 294.5,339.5C 292.167,339.5 289.833,339.5 287.5,339.5C 287.171,325.99 287.504,312.656 288.5,299.5 Z"/></g>
<g><path style="opacity:1" fill="#fbfdfe" d="M 293.5,300.5 C 293.5,312.833 293.5,325.167 293.5,337.5C 292.167,337.5 290.833,337.5 289.5,337.5C 289.5,325.167 289.5,312.833 289.5,300.5C 290.833,300.5 292.167,300.5 293.5,300.5 Z"/></g>
<g><path style="opacity:1" fill="#5496ce" d="M 288.5,299.5 C 290.56,298.189 292.726,298.189 295,299.5C 295.827,313.006 295.66,326.34 294.5,339.5C 294.829,326.323 294.495,313.323 293.5,300.5C 292.081,299.549 290.415,299.216 288.5,299.5 Z"/></g>
<g><path style="opacity:1" fill="#98c6eb" d="M 266.5,299.5 C 267.461,301.265 267.795,303.265 267.5,305.5C 265.167,305.5 262.833,305.5 260.5,305.5C 260.216,303.585 260.549,301.919 261.5,300.5C 261.5,301.833 261.5,303.167 261.5,304.5C 263.167,304.5 264.833,304.5 266.5,304.5C 266.5,302.833 266.5,301.167 266.5,299.5 Z"/></g>
<g><path style="opacity:1" fill="#97c3e8" d="M 190.5,305.5 C 186.5,305.5 182.5,305.5 178.5,305.5C 178.5,308.5 178.5,311.5 178.5,314.5C 178.5,314.833 178.5,315.167 178.5,315.5C 177.518,312.038 177.185,308.371 177.5,304.5C 182.032,304.182 186.366,304.515 190.5,305.5 Z"/></g>
<g><path style="opacity:1" fill="#2674bb" d="M 190.5,305.5 C 194.169,307.173 195.169,309.84 193.5,313.5C 188.562,314.392 183.562,314.726 178.5,314.5C 178.5,311.5 178.5,308.5 178.5,305.5C 182.5,305.5 186.5,305.5 190.5,305.5 Z"/></g>
<g><path style="opacity:1" fill="#9dc5e7" d="M 199.5,303.5 C 200.94,304.946 201.607,306.779 201.5,309C 201.486,310.385 201.152,311.551 200.5,312.5C 200.296,309.482 199.963,306.482 199.5,303.5 Z"/></g>
<g><path style="opacity:1" fill="#98c2e7" d="M 251.5,312.5 C 244.914,310.395 238.247,310.062 231.5,311.5C 231.611,310.883 231.944,310.383 232.5,310C 237.5,309.333 242.5,309.333 247.5,310C 249.32,310.2 250.653,311.034 251.5,312.5 Z"/></g>
<g><path style="opacity:1" fill="#9ec7e9" d="M 322.5,311.5 C 316.672,309.853 311.005,310.187 305.5,312.5C 305.577,311.25 306.244,310.417 307.5,310C 311.833,309.333 316.167,309.333 320.5,310C 321.416,310.278 322.082,310.778 322.5,311.5 Z"/></g>
<g><path style="opacity:1" fill="#d7e9f7" d="M 216.5,310.5 C 214.735,311.461 212.735,311.795 210.5,311.5C 210.5,320.167 210.5,328.833 210.5,337.5C 211.833,337.5 213.167,337.5 214.5,337.5C 213.081,338.451 211.415,338.784 209.5,338.5C 209.5,329.167 209.5,319.833 209.5,310.5C 211.688,309.377 214.021,309.377 216.5,310.5 Z"/></g>
<g><path style="opacity:1" fill="#fcfdfe" d="M 216.5,310.5 C 219.397,310.125 222.063,310.625 224.5,312C 222.109,313.603 219.776,315.103 217.5,316.5C 216.25,316.577 215.417,317.244 215,318.5C 214.5,324.825 214.334,331.158 214.5,337.5C 213.167,337.5 211.833,337.5 210.5,337.5C 210.5,328.833 210.5,320.167 210.5,311.5C 212.735,311.795 214.735,311.461 216.5,310.5 Z"/></g>
<g><path style="opacity:1" fill="#f3f8fc" d="M 251.5,312.5 C 251.5,312.833 251.5,313.167 251.5,313.5C 252.105,321.298 252.771,328.964 253.5,336.5C 252.082,338.308 250.082,338.975 247.5,338.5C 246.5,335.833 245.5,335.833 244.5,338.5C 239.802,339.778 235.135,339.778 230.5,338.5C 229.833,337.167 228.833,336.167 227.5,335.5C 227.5,332.5 227.5,329.5 227.5,326.5C 228.659,324.75 230.326,323.75 232.5,323.5C 236.163,323.048 239.83,322.548 243.5,322C 244.416,321.722 245.082,321.222 245.5,320.5C 247.191,317.336 246.191,315.336 242.5,314.5C 241.726,313.853 240.726,313.52 239.5,313.5C 237.645,313.34 236.312,314.007 235.5,315.5C 234.094,315.973 233.427,316.973 233.5,318.5C 231.735,319.461 229.735,319.795 227.5,319.5C 227.517,317.435 227.85,315.435 228.5,313.5C 229.5,312.833 230.5,312.167 231.5,311.5C 238.247,310.062 244.914,310.395 251.5,312.5 Z"/></g>
<g><path style="opacity:1" fill="#f4f8fc" d="M 322.5,311.5 C 325.456,313.788 327.123,316.788 327.5,320.5C 327.5,322.167 327.5,323.833 327.5,325.5C 320.646,325.176 313.979,325.509 307.5,326.5C 306.167,327.5 306.167,328.5 307.5,329.5C 309.309,334.405 312.642,336.071 317.5,334.5C 319.027,334.573 320.027,333.906 320.5,332.5C 320.328,331.508 320.662,330.842 321.5,330.5C 323.167,330.5 324.833,330.5 326.5,330.5C 326.371,332.216 326.038,333.883 325.5,335.5C 324.5,336.167 323.5,336.833 322.5,337.5C 316.842,338.768 311.175,338.768 305.5,337.5C 301.582,333.922 299.916,329.422 300.5,324C 299.629,318.921 301.295,315.088 305.5,312.5C 311.005,310.187 316.672,309.853 322.5,311.5 Z"/></g>
<g><path style="opacity:1" fill="#579ad5" d="M 267.5,339.5 C 267.827,329.652 267.494,319.986 266.5,310.5C 264.833,310.5 263.167,310.5 261.5,310.5C 261.5,319.833 261.5,329.167 261.5,338.5C 262.919,339.451 264.585,339.784 266.5,339.5C 264.44,340.811 262.274,340.811 260,339.5C 259.5,329.506 259.334,319.506 259.5,309.5C 262.5,309.5 265.5,309.5 268.5,309.5C 268.827,319.681 268.494,329.681 267.5,339.5 Z"/></g>
<g><path style="opacity:1" fill="#f7fbfd" d="M 266.5,310.5 C 266.5,319.833 266.5,329.167 266.5,338.5C 264.833,338.5 263.167,338.5 261.5,338.5C 261.5,329.167 261.5,319.833 261.5,310.5C 263.167,310.5 264.833,310.5 266.5,310.5 Z"/></g>
<g><path style="opacity:1" fill="#80b9e7" d="M 266.5,310.5 C 267.494,319.986 267.827,329.652 267.5,339.5C 267.167,339.5 266.833,339.5 266.5,339.5C 264.585,339.784 262.919,339.451 261.5,338.5C 263.167,338.5 264.833,338.5 266.5,338.5C 266.5,329.167 266.5,319.833 266.5,310.5 Z"/></g>
<g><path style="opacity:1" fill="#458ecd" d="M 224.5,309.5 C 225.833,310.833 227.167,312.167 228.5,313.5C 227.85,315.435 227.517,317.435 227.5,319.5C 226.698,318.048 226.198,316.382 226,314.5C 225.617,315.056 225.117,315.389 224.5,315.5C 225.641,313.451 225.641,311.451 224.5,309.5 Z"/></g>
<g><path style="opacity:1" fill="#a3cbec" d="M 242.5,314.5 C 240.097,314.448 237.764,314.781 235.5,315.5C 236.312,314.007 237.645,313.34 239.5,313.5C 240.726,313.52 241.726,313.853 242.5,314.5 Z"/></g>
<g><path style="opacity:1" fill="#5f9bd0" d="M 193.5,313.5 C 193.389,314.117 193.056,314.617 192.5,315C 187.845,315.499 183.179,315.666 178.5,315.5C 178.5,315.167 178.5,314.833 178.5,314.5C 183.562,314.726 188.562,314.392 193.5,313.5 Z"/></g>
<g><path style="opacity:1" fill="#b4d4ef" d="M 216.5,310.5 C 218.948,309.527 221.615,309.194 224.5,309.5C 225.641,311.451 225.641,313.451 224.5,315.5C 222.268,315.701 219.935,316.034 217.5,316.5C 219.776,315.103 222.109,313.603 224.5,312C 222.063,310.625 219.397,310.125 216.5,310.5 Z"/></g>
<g><path style="opacity:1" fill="#88b8e2" d="M 318.5,315.5 C 315.391,315.264 312.391,315.597 309.5,316.5C 310.148,314.414 311.648,313.414 314,313.5C 315.876,313.525 317.376,314.191 318.5,315.5 Z"/></g>
<g><path style="opacity:1" fill="#7fb3e1" d="M 235.5,315.5 C 235.573,317.027 234.906,318.027 233.5,318.5C 233.427,316.973 234.094,315.973 235.5,315.5 Z"/></g>
<g><path style="opacity:1" fill="#4c90cf" d="M 200.5,312.5 C 200.167,314.5 199.833,316.5 199.5,318.5C 200.5,318.5 201.5,318.5 202.5,318.5C 203.481,323.129 203.648,327.796 203,332.5C 202.617,333.056 202.117,333.389 201.5,333.5C 202.511,329.888 202.678,326.221 202,322.5C 200.401,320.944 198.901,319.277 197.5,317.5C 198.275,315.604 199.275,313.937 200.5,312.5 Z"/></g>
<g><path style="opacity:1" fill="#76aad7" d="M 251.5,313.5 C 252.117,313.611 252.617,313.944 253,314.5C 253.5,321.826 253.666,329.159 253.5,336.5C 252.771,328.964 252.105,321.298 251.5,313.5 Z"/></g>
<g><path style="opacity:1" fill="#2d7bc1" d="M 318.5,315.5 C 320.245,317.033 321.245,319.033 321.5,321.5C 316.833,321.5 312.167,321.5 307.5,321.5C 307.433,320.041 307.766,318.708 308.5,317.5C 308.5,316.833 308.833,316.5 309.5,316.5C 312.391,315.597 315.391,315.264 318.5,315.5 Z"/></g>
<g><path style="opacity:1" fill="#80b2de" d="M 245.5,320.5 C 245.082,321.222 244.416,321.722 243.5,322C 239.83,322.548 236.163,323.048 232.5,323.5C 236.392,321.647 240.725,320.647 245.5,320.5 Z"/></g>
<g><path style="opacity:1" fill="#a1caec" d="M 308.5,317.5 C 307.766,318.708 307.433,320.041 307.5,321.5C 312.167,321.5 316.833,321.5 321.5,321.5C 316.695,322.487 311.695,322.821 306.5,322.5C 306.077,320.219 306.744,318.552 308.5,317.5 Z"/></g>
<g><path style="opacity:1" fill="#5c99d3" d="M 191.5,322.5 C 187.5,322.5 183.5,322.5 179.5,322.5C 179.5,325.833 179.5,329.167 179.5,332.5C 183.833,332.5 188.167,332.5 192.5,332.5C 192.5,332.833 192.5,333.167 192.5,333.5C 187.897,334.383 183.23,334.717 178.5,334.5C 178.5,329.833 178.5,325.167 178.5,320.5C 182.514,320.334 186.514,320.501 190.5,321C 191.056,321.383 191.389,321.883 191.5,322.5 Z"/></g>
<g><path style="opacity:1" fill="#1f71b9" d="M 191.5,322.5 C 193.062,322.733 194.395,323.4 195.5,324.5C 196.172,327.942 195.172,330.609 192.5,332.5C 188.167,332.5 183.833,332.5 179.5,332.5C 179.5,329.167 179.5,325.833 179.5,322.5C 183.5,322.5 187.5,322.5 191.5,322.5 Z"/></g>
<g><path style="opacity:1" fill="#93c2ea" d="M 209.5,310.5 C 209.5,319.833 209.5,329.167 209.5,338.5C 211.415,338.784 213.081,338.451 214.5,337.5C 214.334,331.158 214.5,324.825 215,318.5C 215.417,317.244 216.25,316.577 217.5,316.5C 215.647,323.989 214.981,331.656 215.5,339.5C 213.167,339.5 210.833,339.5 208.5,339.5C 208.173,329.652 208.506,319.986 209.5,310.5 Z"/></g>
<g><path style="opacity:1" fill="#9bc8ec" d="M 327.5,320.5 C 328.461,322.265 328.795,324.265 328.5,326.5C 321.5,326.5 314.5,326.5 307.5,326.5C 313.979,325.509 320.646,325.176 327.5,325.5C 327.5,323.833 327.5,322.167 327.5,320.5 Z"/></g>
<g><path style="opacity:1" fill="#86b7e1" d="M 244.5,332.5 C 245.15,330.565 245.483,328.565 245.5,326.5C 242.482,326.704 239.482,327.037 236.5,327.5C 236.918,326.778 237.584,326.278 238.5,326C 241.146,325.503 243.813,325.336 246.5,325.5C 246.662,327.527 246.495,329.527 246,331.5C 245.617,332.056 245.117,332.389 244.5,332.5 Z"/></g>
<g><path style="opacity:1" fill="#2978bf" d="M 244.5,332.5 C 243.833,332.833 243.167,333.167 242.5,333.5C 240.194,333.993 237.861,334.326 235.5,334.5C 231.361,331.574 231.694,329.241 236.5,327.5C 239.482,327.037 242.482,326.704 245.5,326.5C 245.483,328.565 245.15,330.565 244.5,332.5 Z"/></g>
<g><path style="opacity:1" fill="#87b9e5" d="M 227.5,326.5 C 227.5,329.5 227.5,332.5 227.5,335.5C 224.833,332.5 224.833,329.5 227.5,326.5 Z"/></g>
<g><path style="opacity:1" fill="#98c2e8" d="M 325.5,335.5 C 326.038,333.883 326.371,332.216 326.5,330.5C 324.833,330.5 323.167,330.5 321.5,330.5C 322.918,328.692 324.918,328.025 327.5,328.5C 327.662,330.527 327.495,332.527 327,334.5C 326.617,335.056 326.117,335.389 325.5,335.5 Z"/></g>
<g><path style="opacity:1" fill="#c0d9ef" d="M 195.5,324.5 C 196.629,326.628 196.796,328.961 196,331.5C 195.29,332.973 194.124,333.64 192.5,333.5C 192.5,333.167 192.5,332.833 192.5,332.5C 195.172,330.609 196.172,327.942 195.5,324.5 Z"/></g>
<g><path style="opacity:1" fill="#5898d1" d="M 307.5,329.5 C 309.134,330.207 310.468,331.373 311.5,333C 313.473,333.495 315.473,333.662 317.5,333.5C 317.5,333.833 317.5,334.167 317.5,334.5C 312.642,336.071 309.309,334.405 307.5,329.5 Z"/></g>
<g><path style="opacity:1" fill="#a7cdec" d="M 320.5,332.5 C 320.027,333.906 319.027,334.573 317.5,334.5C 317.5,334.167 317.5,333.833 317.5,333.5C 318.391,332.89 319.391,332.557 320.5,332.5 Z"/></g>
<g><path style="opacity:1" fill="#60a4dd" d="M 242.5,333.5 C 240.345,335.534 238.012,335.867 235.5,334.5C 237.861,334.326 240.194,333.993 242.5,333.5 Z"/></g>
<g><path style="opacity:1" fill="#79afde" d="M 227.5,335.5 C 228.833,336.167 229.833,337.167 230.5,338.5C 228.5,338.5 227.5,337.5 227.5,335.5 Z"/></g>
<g><path style="opacity:1" fill="#7bb1df" d="M 201.5,333.5 C 200.732,336.562 198.732,338.228 195.5,338.5C 195.5,338.167 195.5,337.833 195.5,337.5C 197.772,336.559 199.772,335.226 201.5,333.5 Z"/></g>
<g><path style="opacity:1" fill="#79b0e0" d="M 247.5,338.5 C 246.5,338.5 245.5,338.5 244.5,338.5C 245.5,335.833 246.5,335.833 247.5,338.5 Z"/></g>
<g><path style="opacity:1" fill="#97c3e8" d="M 253.5,336.5 C 254.404,337.209 254.737,338.209 254.5,339.5C 251.941,339.802 249.607,339.468 247.5,338.5C 250.082,338.975 252.082,338.308 253.5,336.5 Z"/></g>
<g><path style="opacity:1" fill="#cee3f4" d="M 305.5,337.5 C 311.175,338.768 316.842,338.768 322.5,337.5C 322.5,337.833 322.5,338.167 322.5,338.5C 317.469,339.783 312.469,339.783 307.5,338.5C 306.508,338.672 305.842,338.338 305.5,337.5 Z"/></g>
<g><path style="opacity:1" fill="#4390d1" d="M 230.5,338.5 C 235.135,339.778 239.802,339.778 244.5,338.5C 242.603,339.805 240.269,340.471 237.5,340.5C 234.731,340.471 232.397,339.805 230.5,338.5 Z"/></g>
<g><path style="opacity:1" fill="#4490d0" d="M 307.5,338.5 C 312.469,339.783 317.469,339.783 322.5,338.5C 322.389,339.117 322.056,339.617 321.5,340C 319.167,340.167 316.833,340.333 314.5,340.5C 311.731,340.471 309.397,339.805 307.5,338.5 Z"/></g>
<g><path style="opacity:1" fill="#6d99ce" d="M 152.5,347.5 C 154.801,348.06 157.134,348.56 159.5,349C 220.195,349.822 280.862,349.655 341.5,348.5C 341.082,349.222 340.416,349.722 339.5,350C 278.167,350.667 216.833,350.667 155.5,350C 154.058,349.623 153.058,348.79 152.5,347.5 Z"/></g>
</svg>
