<?xml version="1.0" encoding="UTF-8"?>
<!DOCTYPE svg PUBLIC "-//W3C//DTD SVG 1.1//EN" "http://www.w3.org/Graphics/SVG/1.1/DTD/svg11.dtd">
<svg xmlns="http://www.w3.org/2000/svg" version="1.1" width="500px" height="500px" style="shape-rendering:geometricPrecision; text-rendering:geometricPrecision; image-rendering:optimizeQuality; fill-rule:evenodd; clip-rule:evenodd" xmlns:xlink="http://www.w3.org/1999/xlink">
<g><path style="opacity:1" fill="#fefefe" d="M -0.5,-0.5 C 166.167,-0.5 332.833,-0.5 499.5,-0.5C 499.5,166.167 499.5,332.833 499.5,499.5C 332.833,499.5 166.167,499.5 -0.5,499.5C -0.5,332.833 -0.5,166.167 -0.5,-0.5 Z"/></g>
<g><path style="opacity:1" fill="#1c3870" d="M 156.5,139.5 C 217.168,139.333 277.834,139.5 338.5,140C 350.192,141.358 357.026,147.858 359,159.5C 359.918,220.512 359.585,281.512 358,342.5C 354.057,354.068 345.89,359.568 333.5,359C 277.5,359.667 221.5,359.667 165.5,359C 149.501,359.257 141.001,351.424 140,335.5C 139.333,276.5 139.333,217.5 140,158.5C 142.178,149.163 147.678,142.83 156.5,139.5 Z"/></g>
<g><path style="opacity:1" fill="#fbfcfc" d="M 195.5,208.5 C 207.121,208.322 218.121,210.822 228.5,216C 237.5,222.17 242.167,230.67 242.5,241.5C 232.494,241.666 222.494,241.5 212.5,241C 209.172,229.778 202.339,226.945 192,232.5C 185.813,242.239 184.813,252.572 189,263.5C 193.387,271.407 199.554,273.241 207.5,269C 209.545,266.414 211.211,263.58 212.5,260.5C 222.812,259.501 233.145,259.168 243.5,259.5C 240.582,278.247 229.582,288.747 210.5,291C 191.698,294.516 175.865,289.349 163,275.5C 153.1,258.761 153.1,242.094 163,225.5C 171.778,215.696 182.611,210.029 195.5,208.5 Z"/></g>
<g><path style="opacity:1" fill="#fbfcfc" d="M 294.5,208.5 C 307.841,207.894 320.174,211.061 331.5,218C 339.102,224.036 342.769,231.869 342.5,241.5C 332.478,241.832 322.478,241.499 312.5,240.5C 309.167,229.664 302.501,226.831 292.5,232C 285.061,243.125 284.561,254.625 291,266.5C 300.81,274.357 307.977,272.357 312.5,260.5C 322.812,259.501 333.145,259.168 343.5,259.5C 341.385,276.121 332.052,286.288 315.5,290C 294.97,295.505 277.47,290.671 263,275.5C 250.182,252.606 253.682,232.773 273.5,216C 280.209,212.295 287.209,209.795 294.5,208.5 Z"/></g>
</svg>
