<?xml version="1.0" encoding="UTF-8"?>
<!DOCTYPE svg PUBLIC "-//W3C//DTD SVG 1.1//EN" "http://www.w3.org/Graphics/SVG/1.1/DTD/svg11.dtd">
<svg xmlns="http://www.w3.org/2000/svg" version="1.1" width="500px" height="500px" style="shape-rendering:geometricPrecision; text-rendering:geometricPrecision; image-rendering:optimizeQuality; fill-rule:evenodd; clip-rule:evenodd" xmlns:xlink="http://www.w3.org/1999/xlink">
<g><path style="opacity:1" fill="#fefefe" d="M -0.5,-0.5 C 166.167,-0.5 332.833,-0.5 499.5,-0.5C 499.5,166.167 499.5,332.833 499.5,499.5C 332.833,499.5 166.167,499.5 -0.5,499.5C -0.5,332.833 -0.5,166.167 -0.5,-0.5 Z"/></g>
<g><path style="opacity:1" fill="#fcfdfd" d="M 356.5,146.5 C 359.303,149.386 361.469,152.719 363,156.5C 363.667,219.5 363.667,282.5 363,345.5C 359.917,354.75 353.751,360.75 344.5,363.5C 281.832,363.667 219.166,363.5 156.5,363C 150.769,360.433 146.102,356.6 142.5,351.5C 141.928,350.027 141.095,348.693 140,347.5C 139.167,283.831 139.333,220.164 140.5,156.5C 143.385,148.782 148.718,143.615 156.5,141C 219.5,140.333 282.5,140.333 345.5,141C 349.741,141.787 353.408,143.621 356.5,146.5 Z"/></g>
<g><path style="opacity:1" fill="#4480c0" d="M 159.5,149.5 C 221.196,149.178 282.863,149.511 344.5,150.5C 345.167,150.5 345.5,150.833 345.5,151.5C 283.167,151.5 220.833,151.5 158.5,151.5C 158.5,151.167 158.5,150.833 158.5,150.5C 159.167,150.5 159.5,150.167 159.5,149.5 Z"/></g>
<g><path style="opacity:1" fill="#1f71b8" d="M 158.5,151.5 C 220.833,151.5 283.167,151.5 345.5,151.5C 349.12,152.958 351.62,155.625 353,159.5C 353.667,220.833 353.667,282.167 353,343.5C 351.676,347.323 349.176,349.989 345.5,351.5C 283.189,352.485 220.856,352.819 158.5,352.5C 155.95,351.943 153.95,350.61 152.5,348.5C 152.443,347.391 152.11,346.391 151.5,345.5C 150.348,284.522 150.182,223.522 151,162.5C 151.684,157.64 154.184,153.974 158.5,151.5 Z"/></g>
<g><path style="opacity:1" fill="#f1f1f1" d="M 363.5,150.5 C 361.704,149.207 360.037,147.707 358.5,146C 357.563,145.308 356.897,145.475 356.5,146.5C 353.408,143.621 349.741,141.787 345.5,141C 282.5,140.333 219.5,140.333 156.5,141C 148.718,143.615 143.385,148.782 140.5,156.5C 139.333,220.164 139.167,283.831 140,347.5C 141.095,348.693 141.928,350.027 142.5,351.5C 141.427,352.251 141.26,353.251 142,354.5C 145.038,357.369 147.871,360.369 150.5,363.5C 143.203,359.69 138.703,353.69 137,345.5C 136.333,283.833 136.333,222.167 137,160.5C 140.27,147.563 148.437,139.73 161.5,137C 222.5,136.333 283.5,136.333 344.5,137C 352.707,139.066 359.041,143.566 363.5,150.5 Z"/></g>
<g><path style="opacity:1" fill="#dce6f3" d="M 159.5,149.5 C 190.165,148.833 220.998,148.5 252,148.5C 283.174,148.5 314.007,149.167 344.5,150.5C 282.863,149.511 221.196,149.178 159.5,149.5 Z"/></g>
<g><path style="opacity:1" fill="#5092d0" d="M 226.5,157.5 C 229.355,156.197 232.355,156.197 235.5,157.5C 236.193,158.518 236.859,159.518 237.5,160.5C 235.745,159.928 234.078,159.094 232.5,158C 230.527,157.505 228.527,157.338 226.5,157.5 Z"/></g>
<g><path style="opacity:1" fill="#f9fbfc" d="M 226.5,157.5 C 228.527,157.338 230.527,157.505 232.5,158C 234.078,159.094 235.745,159.928 237.5,160.5C 241.372,164.693 242.539,169.693 241,175.5C 238.823,178.523 235.989,180.523 232.5,181.5C 229.833,181.5 227.167,181.5 224.5,181.5C 221.135,180.135 218.801,177.801 217.5,174.5C 217.253,171.061 217.586,167.728 218.5,164.5C 220.162,162.637 221.829,160.637 223.5,158.5C 224.209,157.596 225.209,157.263 226.5,157.5 Z"/></g>
<g><path style="opacity:1" fill="#d5e3f1" d="M 150.5,158.5 C 149.17,220.53 149.17,282.53 150.5,344.5C 149.167,314.007 148.5,283.174 148.5,252C 148.667,221.167 148.833,190.333 149,159.5C 149.383,158.944 149.883,158.611 150.5,158.5 Z"/></g>
<g><path style="opacity:1" fill="#4581c2" d="M 158.5,150.5 C 158.5,150.833 158.5,151.167 158.5,151.5C 154.184,153.974 151.684,157.64 151,162.5C 150.182,223.522 150.348,284.522 151.5,345.5C 151.167,345.5 150.833,345.5 150.5,345.5C 150.5,345.167 150.5,344.833 150.5,344.5C 149.17,282.53 149.17,220.53 150.5,158.5C 152.167,154.833 154.833,152.167 158.5,150.5 Z"/></g>
<g><path style="opacity:1" fill="#c4dcf0" d="M 223.5,158.5 C 221.829,160.637 220.162,162.637 218.5,164.5C 218.5,164.167 218.5,163.833 218.5,163.5C 219.189,160.811 220.856,159.144 223.5,158.5 Z"/></g>
<g><path style="opacity:1" fill="#d9d9d9" d="M 363.5,150.5 C 364.656,217.138 364.823,283.805 364,350.5C 359.993,358.744 353.493,363.411 344.5,364.5C 344.5,364.167 344.5,363.833 344.5,363.5C 353.751,360.75 359.917,354.75 363,345.5C 363.667,282.5 363.667,219.5 363,156.5C 361.469,152.719 359.303,149.386 356.5,146.5C 356.897,145.475 357.563,145.308 358.5,146C 360.037,147.707 361.704,149.207 363.5,150.5 Z"/></g>
<g><path style="opacity:1" fill="#7ab0df" d="M 218.5,163.5 C 218.5,163.833 218.5,164.167 218.5,164.5C 217.586,167.728 217.253,171.061 217.5,174.5C 216.359,171.36 216.192,168.027 217,164.5C 217.383,163.944 217.883,163.611 218.5,163.5 Z"/></g>
<g><path style="opacity:1" fill="#bad8ee" d="M 224.5,181.5 C 227.167,181.5 229.833,181.5 232.5,181.5C 231.848,182.725 230.681,183.392 229,183.5C 226.992,183.693 225.492,183.026 224.5,181.5 Z"/></g>
<g><path style="opacity:1" fill="#f9fbfd" d="M 223.5,188.5 C 228.214,188.353 232.881,188.686 237.5,189.5C 237.973,190.906 238.973,191.573 240.5,191.5C 241.5,191.833 242.167,192.5 242.5,193.5C 243.899,194.89 245.566,195.89 247.5,196.5C 248.167,197.833 249.167,198.833 250.5,199.5C 251.585,201.587 253.251,202.92 255.5,203.5C 261.843,209.842 268.509,215.842 275.5,221.5C 276.585,223.587 278.251,224.92 280.5,225.5C 284.841,229.544 289.175,233.544 293.5,237.5C 293.5,239.5 294.5,240.5 296.5,240.5C 301.793,245.785 307.46,250.785 313.5,255.5C 314.911,257.914 316.911,259.581 319.5,260.5C 320.833,262.5 322.5,264.167 324.5,265.5C 325.262,267.262 326.596,268.262 328.5,268.5C 333.209,273.175 337.876,277.842 342.5,282.5C 341.817,284.176 340.483,284.843 338.5,284.5C 332.359,281.182 327.026,276.849 322.5,271.5C 321.415,269.413 319.749,268.08 317.5,267.5C 307.809,259.47 298.142,251.47 288.5,243.5C 285.696,242.888 282.696,242.888 279.5,243.5C 269.948,237.222 260.948,230.222 252.5,222.5C 251.313,220.025 249.313,219.025 246.5,219.5C 247.146,231.88 246.479,243.88 244.5,255.5C 244.737,254.209 244.404,253.209 243.5,252.5C 243.573,250.973 242.906,249.973 241.5,249.5C 239.211,244.262 236.378,239.262 233,234.5C 229.368,231.87 226.035,228.87 223,225.5C 222.333,223.5 222.333,221.5 223,219.5C 225.47,215.738 225.97,211.738 224.5,207.5C 222.544,209.351 221.544,211.684 221.5,214.5C 219.787,215.635 219.12,217.302 219.5,219.5C 218.275,220.152 217.608,221.319 217.5,223C 217.514,224.385 217.848,225.551 218.5,226.5C 229.919,235.433 237.919,246.767 242.5,260.5C 243.838,262.275 245.171,263.941 246.5,265.5C 247.134,266.947 248.301,267.613 250,267.5C 251.07,267.472 251.903,267.139 252.5,266.5C 254.027,266.573 255.027,265.906 255.5,264.5C 259.167,260.167 263.167,256.167 267.5,252.5C 269.167,251.5 270.5,250.167 271.5,248.5C 272.833,248.833 274.167,249.167 275.5,249.5C 275.973,250.906 276.973,251.573 278.5,251.5C 280.81,252.325 282.81,253.658 284.5,255.5C 284.427,257.027 285.094,258.027 286.5,258.5C 287.167,259.833 288.167,260.833 289.5,261.5C 290.262,263.262 291.596,264.262 293.5,264.5C 296.517,268.442 295.517,271.109 290.5,272.5C 286.818,272.335 283.152,272.501 279.5,273C 277.829,274.843 276.829,277.009 276.5,279.5C 274.298,283.569 272.965,287.903 272.5,292.5C 272.227,298.216 273.227,303.549 275.5,308.5C 276.159,311.455 276.492,314.455 276.5,317.5C 277.051,320.807 277.384,324.14 277.5,327.5C 277.966,333.491 278.299,339.491 278.5,345.5C 275.089,346.067 273.089,344.734 272.5,341.5C 271.833,339.833 271.167,338.167 270.5,336.5C 270.59,333.848 269.924,331.515 268.5,329.5C 268.5,328.833 268.5,328.167 268.5,327.5C 268.247,323.96 267.581,320.627 266.5,317.5C 265.515,313.924 264.848,310.258 264.5,306.5C 250.775,305.024 236.775,303.691 222.5,302.5C 217.381,300.976 212.381,299.309 207.5,297.5C 205.872,296.147 204.538,296.481 203.5,298.5C 203.5,299.167 203.167,299.5 202.5,299.5C 201.094,299.973 200.427,300.973 200.5,302.5C 199.5,302.833 198.833,303.5 198.5,304.5C 195.757,306.239 193.757,308.573 192.5,311.5C 191.5,311.833 190.833,312.5 190.5,313.5C 189.094,313.973 188.427,314.973 188.5,316.5C 186.345,318.617 185.345,321.284 185.5,324.5C 185.384,327.86 185.051,331.193 184.5,334.5C 182.757,337.495 181.757,340.829 181.5,344.5C 180.068,346.647 178.235,346.98 176,345.5C 175.836,337.801 176.336,330.135 177.5,322.5C 179.054,318.433 179.72,314.1 179.5,309.5C 179.704,306.482 180.037,303.482 180.5,300.5C 180.596,294.627 181.263,288.96 182.5,283.5C 183.645,279.689 183.812,275.689 183,271.5C 182.329,270.748 181.496,270.414 180.5,270.5C 180.167,269.833 179.833,269.167 179.5,268.5C 179.027,267.094 178.027,266.427 176.5,266.5C 174.404,264.646 173.071,262.313 172.5,259.5C 173.437,257.712 174.77,256.379 176.5,255.5C 179.491,255.834 181.824,254.834 183.5,252.5C 184.5,252.5 185.5,252.5 186.5,252.5C 187.138,255.856 185.804,257.856 182.5,258.5C 180.973,258.427 179.973,259.094 179.5,260.5C 180.473,263.135 182.14,265.135 184.5,266.5C 185.261,267.391 186.261,268.058 187.5,268.5C 204.119,267.515 220.786,267.181 237.5,267.5C 237.706,264.505 237.04,261.838 235.5,259.5C 235.167,259.5 234.833,259.5 234.5,259.5C 233.767,252.161 229.767,248.661 222.5,249C 221.295,247.624 219.962,246.458 218.5,245.5C 217.422,242.092 215.089,240.092 211.5,239.5C 211.167,238.5 210.5,237.833 209.5,237.5C 208.5,235.833 207.167,234.5 205.5,233.5C 204.833,233.167 204.167,232.833 203.5,232.5C 202.38,228.528 202.38,224.528 203.5,220.5C 203.5,220.167 203.5,219.833 203.5,219.5C 204.117,219.389 204.617,219.056 205,218.5C 205.395,215.793 205.895,213.127 206.5,210.5C 206.629,208.784 206.962,207.117 207.5,205.5C 209.241,203.605 210.241,201.272 210.5,198.5C 210.5,198.167 210.5,197.833 210.5,197.5C 212.18,196.218 213.513,194.551 214.5,192.5C 214.5,191.833 214.833,191.5 215.5,191.5C 218.397,190.871 221.064,189.871 223.5,188.5 Z"/></g>
<g><path style="opacity:1" fill="#8cbbe4" d="M 223.5,188.5 C 221.064,189.871 218.397,190.871 215.5,191.5C 217.617,189.345 220.284,188.345 223.5,188.5 Z"/></g>
<g><path style="opacity:1" fill="#78aedd" d="M 237.5,189.5 C 239.027,189.427 240.027,190.094 240.5,191.5C 238.973,191.573 237.973,190.906 237.5,189.5 Z"/></g>
<g><path style="opacity:1" fill="#5897cf" d="M 242.5,193.5 C 244.989,193.241 246.656,194.241 247.5,196.5C 245.566,195.89 243.899,194.89 242.5,193.5 Z"/></g>
<g><path style="opacity:1" fill="#bcd7ee" d="M 214.5,192.5 C 213.513,194.551 212.18,196.218 210.5,197.5C 210.67,194.796 212.003,193.129 214.5,192.5 Z"/></g>
<g><path style="opacity:1" fill="#6fa8df" d="M 250.5,199.5 C 252.749,200.08 254.415,201.413 255.5,203.5C 253.251,202.92 251.585,201.587 250.5,199.5 Z"/></g>
<g><path style="opacity:1" fill="#94c1e6" d="M 210.5,198.5 C 210.241,201.272 209.241,203.605 207.5,205.5C 207.643,202.615 208.643,200.282 210.5,198.5 Z"/></g>
<g><path style="opacity:1" fill="#a3c8ea" d="M 206.5,210.5 C 205.895,213.127 205.395,215.793 205,218.5C 204.617,219.056 204.117,219.389 203.5,219.5C 203.677,216.016 204.677,213.016 206.5,210.5 Z"/></g>
<g><path style="opacity:1" fill="#c5dcf1" d="M 219.5,219.5 C 219.5,220.167 219.5,220.833 219.5,221.5C 218.549,222.919 218.216,224.585 218.5,226.5C 217.848,225.551 217.514,224.385 217.5,223C 217.608,221.319 218.275,220.152 219.5,219.5 Z"/></g>
<g><path style="opacity:1" fill="#71a7d7" d="M 221.5,214.5 C 221.073,217.01 220.407,219.343 219.5,221.5C 219.5,220.833 219.5,220.167 219.5,219.5C 219.12,217.302 219.787,215.635 221.5,214.5 Z"/></g>
<g><path style="opacity:1" fill="#66a1d5" d="M 275.5,221.5 C 277.749,222.08 279.415,223.413 280.5,225.5C 278.251,224.92 276.585,223.587 275.5,221.5 Z"/></g>
<g><path style="opacity:1" fill="#8ebce5" d="M 203.5,220.5 C 202.38,224.528 202.38,228.528 203.5,232.5C 202.883,232.389 202.383,232.056 202,231.5C 201.833,230 201.667,228.5 201.5,227C 201.336,224.456 202.003,222.29 203.5,220.5 Z"/></g>
<g><path style="opacity:1" fill="#c6e0f4" d="M 252.5,222.5 C 250.938,222.267 249.605,221.6 248.5,220.5C 248.16,233.699 247.16,246.699 245.5,259.5C 245.567,258.041 245.234,256.708 244.5,255.5C 246.479,243.88 247.146,231.88 246.5,219.5C 249.313,219.025 251.313,220.025 252.5,222.5 Z"/></g>
<g><path style="opacity:1" fill="#77afdd" d="M 248.5,220.5 C 248.5,234.167 248.5,247.833 248.5,261.5C 246.973,261.573 245.973,260.906 245.5,259.5C 247.16,246.699 248.16,233.699 248.5,220.5 Z"/></g>
<g><path style="opacity:1" fill="#3b82c4" d="M 241.5,249.5 C 241.427,251.027 242.094,252.027 243.5,252.5C 244.404,253.209 244.737,254.209 244.5,255.5C 245.234,256.708 245.567,258.041 245.5,259.5C 245.973,260.906 246.973,261.573 248.5,261.5C 247.194,262.467 246.527,263.801 246.5,265.5C 245.171,263.941 243.838,262.275 242.5,260.5C 237.919,246.767 229.919,235.433 218.5,226.5C 218.216,224.585 218.549,222.919 219.5,221.5C 220.407,219.343 221.073,217.01 221.5,214.5C 221.544,211.684 222.544,209.351 224.5,207.5C 225.97,211.738 225.47,215.738 223,219.5C 222.333,221.5 222.333,223.5 223,225.5C 226.035,228.87 229.368,231.87 233,234.5C 236.378,239.262 239.211,244.262 241.5,249.5 Z"/></g>
<g><path style="opacity:1" fill="#78aedd" d="M 205.5,233.5 C 207.167,234.5 208.5,235.833 209.5,237.5C 207.167,237.167 205.833,235.833 205.5,233.5 Z"/></g>
<g><path style="opacity:1" fill="#9fc5e7" d="M 293.5,237.5 C 294.833,238.167 295.833,239.167 296.5,240.5C 294.5,240.5 293.5,239.5 293.5,237.5 Z"/></g>
<g><path style="opacity:1" fill="#bfd9f0" d="M 211.5,239.5 C 215.089,240.092 217.422,242.092 218.5,245.5C 216.833,244.167 215.167,242.833 213.5,241.5C 212.5,241.167 211.833,240.5 211.5,239.5 Z"/></g>
<g><path style="opacity:1" fill="#afd0ee" d="M 288.5,243.5 C 285.344,244.551 282.344,244.551 279.5,243.5C 282.696,242.888 285.696,242.888 288.5,243.5 Z"/></g>
<g><path style="opacity:1" fill="#f3f8fb" d="M 210.5,243.5 C 213.509,247.004 217.009,250.004 221,252.5C 226.67,253.006 229.837,256.006 230.5,261.5C 223.167,261.5 215.833,261.5 208.5,261.5C 207.88,255.074 208.547,249.074 210.5,243.5 Z"/></g>
<g><path style="opacity:1" fill="#a3c8e7" d="M 271.5,248.5 C 270.5,250.167 269.167,251.5 267.5,252.5C 267.833,250.167 269.167,248.833 271.5,248.5 Z"/></g>
<g><path style="opacity:1" fill="#7bb1e1" d="M 275.5,249.5 C 277.027,249.427 278.027,250.094 278.5,251.5C 276.973,251.573 275.973,250.906 275.5,249.5 Z"/></g>
<g><path style="opacity:1" fill="#4288c9" d="M 213.5,241.5 C 215.167,242.833 216.833,244.167 218.5,245.5C 219.962,246.458 221.295,247.624 222.5,249C 229.767,248.661 233.767,252.161 234.5,259.5C 233.21,258.942 232.377,257.942 232,256.5C 231.505,258.473 231.338,260.473 231.5,262.5C 223.316,262.826 215.316,262.492 207.5,261.5C 207.833,261.5 208.167,261.5 208.5,261.5C 215.833,261.5 223.167,261.5 230.5,261.5C 229.837,256.006 226.67,253.006 221,252.5C 217.009,250.004 213.509,247.004 210.5,243.5C 211.496,243.414 212.329,243.748 213,244.5C 213.483,243.552 213.649,242.552 213.5,241.5 Z"/></g>
<g><path style="opacity:1" fill="#9dc5eb" d="M 241.5,249.5 C 242.906,249.973 243.573,250.973 243.5,252.5C 242.094,252.027 241.427,251.027 241.5,249.5 Z"/></g>
<g><path style="opacity:1" fill="#b6d3ee" d="M 183.5,252.5 C 181.824,254.834 179.491,255.834 176.5,255.5C 178.509,253.935 180.843,252.935 183.5,252.5 Z"/></g>
<g><path style="opacity:1" fill="#69a3d7" d="M 313.5,255.5 C 316.089,256.419 318.089,258.086 319.5,260.5C 316.911,259.581 314.911,257.914 313.5,255.5 Z"/></g>
<g><path style="opacity:1" fill="#a3c8e6" d="M 210.5,243.5 C 208.547,249.074 207.88,255.074 208.5,261.5C 208.167,261.5 207.833,261.5 207.5,261.5C 207.5,255.167 207.5,248.833 207.5,242.5C 208.791,242.263 209.791,242.596 210.5,243.5 Z"/></g>
<g><path style="opacity:1" fill="#7bb1e0" d="M 284.5,255.5 C 285.906,255.973 286.573,256.973 286.5,258.5C 285.094,258.027 284.427,257.027 284.5,255.5 Z"/></g>
<g><path style="opacity:1" fill="#95c3e7" d="M 182.5,258.5 C 182.027,259.906 181.027,260.573 179.5,260.5C 179.973,259.094 180.973,258.427 182.5,258.5 Z"/></g>
<g><path style="opacity:1" fill="#74a9db" d="M 289.5,261.5 C 291.404,261.738 292.738,262.738 293.5,264.5C 291.596,264.262 290.262,263.262 289.5,261.5 Z"/></g>
<g><path style="opacity:1" fill="#3788ce" d="M 235.5,263.5 C 236.404,264.209 236.737,265.209 236.5,266.5C 221.167,266.5 205.833,266.5 190.5,266.5C 205.695,266.161 220.695,265.161 235.5,263.5 Z"/></g>
<g><path style="opacity:1" fill="#aacce8" d="M 255.5,264.5 C 255.027,265.906 254.027,266.573 252.5,266.5C 252.973,265.094 253.973,264.427 255.5,264.5 Z"/></g>
<g><path style="opacity:1" fill="#6fa8de" d="M 324.5,265.5 C 326.404,265.738 327.738,266.738 328.5,268.5C 326.596,268.262 325.262,267.262 324.5,265.5 Z"/></g>
<g><path style="opacity:1" fill="#9dc4e3" d="M 176.5,266.5 C 178.027,266.427 179.027,267.094 179.5,268.5C 177.973,268.573 176.973,267.906 176.5,266.5 Z"/></g>
<g><path style="opacity:1" fill="#89bce8" d="M 235.5,259.5 C 237.04,261.838 237.706,264.505 237.5,267.5C 220.786,267.181 204.119,267.515 187.5,268.5C 186.261,268.058 185.261,267.391 184.5,266.5C 186.5,266.5 188.5,266.5 190.5,266.5C 205.833,266.5 221.167,266.5 236.5,266.5C 236.737,265.209 236.404,264.209 235.5,263.5C 235.5,262.167 235.5,260.833 235.5,259.5 Z"/></g>
<g><path style="opacity:1" fill="#6da5d7" d="M 246.5,265.5 C 248.435,266.15 250.435,266.483 252.5,266.5C 251.903,267.139 251.07,267.472 250,267.5C 248.301,267.613 247.134,266.947 246.5,265.5 Z"/></g>
<g><path style="opacity:1" fill="#c1daee" d="M 317.5,267.5 C 319.749,268.08 321.415,269.413 322.5,271.5C 320.251,270.92 318.585,269.587 317.5,267.5 Z"/></g>
<g><path style="opacity:1" fill="#7aaedc" d="M 180.5,270.5 C 181.496,270.414 182.329,270.748 183,271.5C 183.812,275.689 183.645,279.689 182.5,283.5C 183.025,278.86 182.358,274.527 180.5,270.5 Z"/></g>
<g><path style="opacity:1" fill="#84b5e0" d="M 290.5,272.5 C 290.082,273.222 289.416,273.722 288.5,274C 285.5,274.333 282.5,274.667 279.5,275C 278.733,276.47 278.067,277.97 277.5,279.5C 277.167,279.5 276.833,279.5 276.5,279.5C 276.829,277.009 277.829,274.843 279.5,273C 283.152,272.501 286.818,272.335 290.5,272.5 Z"/></g>
<g><path style="opacity:1" fill="#5090cd" d="M 276.5,279.5 C 276.833,279.5 277.167,279.5 277.5,279.5C 277.251,283.546 275.917,287.213 273.5,290.5C 274.393,293.084 274.726,295.751 274.5,298.5C 273.833,296.5 273.167,294.5 272.5,292.5C 272.965,287.903 274.298,283.569 276.5,279.5 Z"/></g>
<g><path style="opacity:1" fill="#9dc6e8" d="M 342.5,282.5 C 344.017,285.495 343.017,286.661 339.5,286C 338.944,285.617 338.611,285.117 338.5,284.5C 340.483,284.843 341.817,284.176 342.5,282.5 Z"/></g>
<g><path style="opacity:1" fill="#77abd9" d="M 207.5,297.5 C 206.167,297.833 204.833,298.167 203.5,298.5C 204.538,296.481 205.872,296.147 207.5,297.5 Z"/></g>
<g><path style="opacity:1" fill="#7aabd7" d="M 202.5,299.5 C 202.573,301.027 201.906,302.027 200.5,302.5C 200.427,300.973 201.094,299.973 202.5,299.5 Z"/></g>
<g><path style="opacity:1" fill="#c9dff3" d="M 205.5,302.5 C 207.898,302.259 209.898,302.926 211.5,304.5C 209.833,304.5 208.167,304.5 206.5,304.5C 206.795,306.735 206.461,308.735 205.5,310.5C 205.5,307.833 205.5,305.167 205.5,302.5 Z"/></g>
<g><path style="opacity:1" fill="#5d9bd1" d="M 180.5,300.5 C 180.037,303.482 179.704,306.482 179.5,309.5C 179.167,309.5 178.833,309.5 178.5,309.5C 178.336,306.813 178.503,304.146 179,301.5C 179.383,300.944 179.883,300.611 180.5,300.5 Z"/></g>
<g><path style="opacity:1" fill="#fafcfd" d="M 211.5,304.5 C 212.167,304.5 212.833,304.5 213.5,304.5C 215.102,306.074 217.102,306.741 219.5,306.5C 219.5,309.5 219.5,312.5 219.5,315.5C 218.732,316.263 218.232,317.263 218,318.5C 217.235,324.817 216.735,331.151 216.5,337.5C 216.834,340.188 216.168,342.521 214.5,344.5C 213.29,344.932 212.29,345.599 211.5,346.5C 209.784,346.371 208.117,346.038 206.5,345.5C 204.806,344.473 203.473,343.139 202.5,341.5C 202.392,336.13 202.725,330.797 203.5,325.5C 203.5,325.167 203.5,324.833 203.5,324.5C 205.211,320.119 205.877,315.453 205.5,310.5C 206.461,308.735 206.795,306.735 206.5,304.5C 208.167,304.5 209.833,304.5 211.5,304.5 Z"/></g>
<g><path style="opacity:1" fill="#afd1ef" d="M 222.5,302.5 C 236.775,303.691 250.775,305.024 264.5,306.5C 253.578,306.224 242.578,306.058 231.5,306C 228.198,305.339 225.198,304.172 222.5,302.5 Z"/></g>
<g><path style="opacity:1" fill="#bbd8f0" d="M 272.5,292.5 C 273.167,294.5 273.833,296.5 274.5,298.5C 275.324,301.764 275.658,305.098 275.5,308.5C 273.227,303.549 272.227,298.216 272.5,292.5 Z"/></g>
<g><path style="opacity:1" fill="#639fd6" d="M 198.5,304.5 C 197.243,307.427 195.243,309.761 192.5,311.5C 193.757,308.573 195.757,306.239 198.5,304.5 Z"/></g>
<g><path style="opacity:1" fill="#f7fafc" d="M 251.5,314.5 C 252.494,323.652 252.827,332.985 252.5,342.5C 250.833,343.5 249.5,344.833 248.5,346.5C 246.435,346.483 244.435,346.15 242.5,345.5C 240.896,344.713 240.229,343.38 240.5,341.5C 239.935,336.851 239.435,332.184 239,327.5C 238.617,326.944 238.117,326.611 237.5,326.5C 237.5,324.5 237.5,322.5 237.5,320.5C 237.5,317.833 237.5,315.167 237.5,312.5C 241.785,311.705 246.119,311.372 250.5,311.5C 250.263,312.791 250.596,313.791 251.5,314.5 Z"/></g>
<g><path style="opacity:1" fill="#a1caeb" d="M 251.5,314.5 C 250.596,313.791 250.263,312.791 250.5,311.5C 246.119,311.372 241.785,311.705 237.5,312.5C 237.5,315.167 237.5,317.833 237.5,320.5C 237.167,320.5 236.833,320.5 236.5,320.5C 236.5,317.167 236.5,313.833 236.5,310.5C 241.5,310.5 246.5,310.5 251.5,310.5C 251.5,311.833 251.5,313.167 251.5,314.5 Z"/></g>
<g><path style="opacity:1" fill="#7fb4e2" d="M 190.5,313.5 C 190.573,315.027 189.906,316.027 188.5,316.5C 188.427,314.973 189.094,313.973 190.5,313.5 Z"/></g>
<g><path style="opacity:1" fill="#b4d2f0" d="M 188.5,316.5 C 187.629,319.112 186.963,321.779 186.5,324.5C 186.167,324.5 185.833,324.5 185.5,324.5C 185.345,321.284 186.345,318.617 188.5,316.5 Z"/></g>
<g><path style="opacity:1" fill="#9ac4e7" d="M 178.5,309.5 C 178.833,309.5 179.167,309.5 179.5,309.5C 179.72,314.1 179.054,318.433 177.5,322.5C 177.467,318.131 177.8,313.798 178.5,309.5 Z"/></g>
<g><path style="opacity:1" fill="#5a99d2" d="M 213.5,304.5 C 216.167,304.833 218.833,305.167 221.5,305.5C 221.309,309.673 220.976,313.84 220.5,318C 220.453,320.295 219.787,322.129 218.5,323.5C 218.833,320.833 219.167,318.167 219.5,315.5C 219.5,312.5 219.5,309.5 219.5,306.5C 217.102,306.741 215.102,306.074 213.5,304.5 Z"/></g>
<g><path style="opacity:1" fill="#6aa5d8" d="M 276.5,317.5 C 277.222,317.918 277.722,318.584 278,319.5C 278.497,322.146 278.664,324.813 278.5,327.5C 278.167,327.5 277.833,327.5 277.5,327.5C 277.384,324.14 277.051,320.807 276.5,317.5 Z"/></g>
<g><path style="opacity:1" fill="#9cc4e6" d="M 205.5,302.5 C 205.5,305.167 205.5,307.833 205.5,310.5C 205.877,315.453 205.211,320.119 203.5,324.5C 203.626,316.972 204.293,309.639 205.5,302.5 Z"/></g>
<g><path style="opacity:1" fill="#63a0d6" d="M 266.5,317.5 C 267.581,320.627 268.247,323.96 268.5,327.5C 267.778,327.082 267.278,326.416 267,325.5C 266.503,322.854 266.336,320.187 266.5,317.5 Z"/></g>
<g><path style="opacity:1" fill="#5a9ad3" d="M 236.5,320.5 C 236.833,320.5 237.167,320.5 237.5,320.5C 237.5,322.5 237.5,324.5 237.5,326.5C 237.704,329.518 238.037,332.518 238.5,335.5C 237.883,335.389 237.383,335.056 237,334.5C 236.501,329.845 236.334,325.179 236.5,320.5 Z"/></g>
<g><path style="opacity:1" fill="#d0e4f4" d="M 237.5,326.5 C 238.117,326.611 238.617,326.944 239,327.5C 239.435,332.184 239.935,336.851 240.5,341.5C 238.692,340.082 238.025,338.082 238.5,335.5C 238.037,332.518 237.704,329.518 237.5,326.5 Z"/></g>
<g><path style="opacity:1" fill="#c9e1f4" d="M 219.5,315.5 C 219.167,318.167 218.833,320.833 218.5,323.5C 218.5,325.833 218.5,328.167 218.5,330.5C 217.833,332.833 217.167,335.167 216.5,337.5C 216.735,331.151 217.235,324.817 218,318.5C 218.232,317.263 218.732,316.263 219.5,315.5 Z"/></g>
<g><path style="opacity:1" fill="#5899d2" d="M 203.5,325.5 C 202.725,330.797 202.392,336.13 202.5,341.5C 201.837,339.527 201.504,337.361 201.5,335C 201.328,331.523 201.994,328.356 203.5,325.5 Z"/></g>
<g><path style="opacity:1" fill="#76adde" d="M 268.5,329.5 C 269.924,331.515 270.59,333.848 270.5,336.5C 269.076,334.485 268.41,332.152 268.5,329.5 Z"/></g>
<g><path style="opacity:1" fill="#bfdaf2" d="M 184.5,334.5 C 184.483,336.565 184.15,338.565 183.5,340.5C 183.771,342.38 183.104,343.713 181.5,344.5C 181.757,340.829 182.757,337.495 184.5,334.5 Z"/></g>
<g><path style="opacity:1" fill="#498fcd" d="M 185.5,324.5 C 185.833,324.5 186.167,324.5 186.5,324.5C 186.497,328.524 186.164,332.524 185.5,336.5C 185.415,338.333 184.748,339.666 183.5,340.5C 184.15,338.565 184.483,336.565 184.5,334.5C 185.051,331.193 185.384,327.86 185.5,324.5 Z"/></g>
<g><path style="opacity:1" fill="#aecfeb" d="M 277.5,327.5 C 277.833,327.5 278.167,327.5 278.5,327.5C 279.624,333.752 279.79,340.085 279,346.5C 274.472,348.152 272.305,346.486 272.5,341.5C 273.089,344.734 275.089,346.067 278.5,345.5C 278.299,339.491 277.966,333.491 277.5,327.5 Z"/></g>
<g><path style="opacity:1" fill="#5a9ad4" d="M 218.5,330.5 C 218.575,334.897 218.075,339.23 217,343.5C 216.329,344.252 215.496,344.586 214.5,344.5C 216.168,342.521 216.834,340.188 216.5,337.5C 217.167,335.167 217.833,332.833 218.5,330.5 Z"/></g>
<g><path style="opacity:1" fill="#74abdc" d="M 252.5,342.5 C 252.167,344.833 250.833,346.167 248.5,346.5C 249.5,344.833 250.833,343.5 252.5,342.5 Z"/></g>
<g><path style="opacity:1" fill="#91bde5" d="M 206.5,345.5 C 208.117,346.038 209.784,346.371 211.5,346.5C 209.545,347.93 207.879,347.597 206.5,345.5 Z"/></g>
<g><path style="opacity:1" fill="#88b7dd" d="M 242.5,345.5 C 244.435,346.15 246.435,346.483 248.5,346.5C 247.903,347.139 247.07,347.472 246,347.5C 244.301,347.613 243.134,346.947 242.5,345.5 Z"/></g>
<g><path style="opacity:1" fill="#b7cbe7" d="M 150.5,345.5 C 150.833,345.5 151.167,345.5 151.5,345.5C 152.11,346.391 152.443,347.391 152.5,348.5C 151.094,348.027 150.427,347.027 150.5,345.5 Z"/></g>
<g><path style="opacity:1" fill="#427ec0" d="M 345.5,351.5 C 345.5,352.167 345.167,352.5 344.5,352.5C 282.542,353.493 220.542,353.826 158.5,353.5C 158.5,353.167 158.5,352.833 158.5,352.5C 220.856,352.819 283.189,352.485 345.5,351.5 Z"/></g>
<g><path style="opacity:1" fill="#b2cae5" d="M 344.5,352.5 C 313.841,353.833 282.841,354.5 251.5,354.5C 220.332,354.5 189.332,354.167 158.5,353.5C 220.542,353.826 282.542,353.493 344.5,352.5 Z"/></g>
<g><path style="opacity:1" fill="#e1e1e1" d="M 142.5,351.5 C 146.102,356.6 150.769,360.433 156.5,363C 219.166,363.5 281.832,363.667 344.5,363.5C 344.5,363.833 344.5,364.167 344.5,364.5C 279.792,364.826 215.125,364.493 150.5,363.5C 147.871,360.369 145.038,357.369 142,354.5C 141.26,353.251 141.427,352.251 142.5,351.5 Z"/></g>
</svg>
