<?xml version="1.0" encoding="UTF-8"?>
<!DOCTYPE svg PUBLIC "-//W3C//DTD SVG 1.1//EN" "http://www.w3.org/Graphics/SVG/1.1/DTD/svg11.dtd">
<svg xmlns="http://www.w3.org/2000/svg" version="1.1" width="500px" height="500px" style="shape-rendering:geometricPrecision; text-rendering:geometricPrecision; image-rendering:optimizeQuality; fill-rule:evenodd; clip-rule:evenodd" xmlns:xlink="http://www.w3.org/1999/xlink">
<g><path style="opacity:1" fill="#fefefe" d="M -0.5,-0.5 C 166.167,-0.5 332.833,-0.5 499.5,-0.5C 499.5,166.167 499.5,332.833 499.5,499.5C 332.833,499.5 166.167,499.5 -0.5,499.5C -0.5,332.833 -0.5,166.167 -0.5,-0.5 Z"/></g>
<g><path style="opacity:1" fill="#2171b8" d="M 312.5,163.5 C 309.5,165.833 306.833,168.5 304.5,171.5C 302.413,172.585 301.08,174.251 300.5,176.5C 295.188,181.146 290.188,186.146 285.5,191.5C 287.882,194.548 290.548,197.215 293.5,199.5C 294.08,201.749 295.413,203.415 297.5,204.5C 301.01,207.358 303.343,211.024 304.5,215.5C 304.427,217.027 305.094,218.027 306.5,218.5C 306.511,220.686 307.511,221.519 309.5,221C 319.556,211.76 329.556,202.26 339.5,192.5C 341.017,192.489 342.184,191.823 343,190.5C 343.5,239.166 343.667,287.832 343.5,336.5C 342.397,340.602 339.73,342.936 335.5,343.5C 287.488,344.162 239.822,343.495 192.5,341.5C 206.867,326.801 221.2,312.134 235.5,297.5C 236.429,296.311 236.762,294.978 236.5,293.5C 233.646,293.076 230.979,292.076 228.5,290.5C 220.702,284.853 212.535,279.853 204,275.5C 199.394,277.939 195.561,281.272 192.5,285.5C 190.5,286.833 188.833,288.5 187.5,290.5C 179.403,299.053 171.07,307.386 162.5,315.5C 161.183,266.313 161.183,216.98 162.5,167.5C 163.167,164.833 164.833,163.167 167.5,162.5C 192.311,161.852 217.144,161.519 242,161.5C 265.843,161.5 289.343,162.167 312.5,163.5 Z"/></g>
<g><path style="opacity:1" fill="#f1f1f1" d="M 168.5,149.5 C 225.168,149.333 281.834,149.5 338.5,150C 343.048,151.858 347.215,154.358 351,157.5C 352.422,160.03 352.755,162.697 352,165.5C 349.652,158.488 344.819,154.321 337.5,153C 280.5,152.333 223.5,152.333 166.5,153C 157.464,156.37 152.631,162.87 152,172.5C 151.333,225.5 151.333,278.5 152,331.5C 151.981,340.973 156.147,347.806 164.5,352C 162.5,352.667 160.5,352.667 158.5,352C 157,349.167 154.833,347 152,345.5C 150.798,342.226 149.798,338.893 149,335.5C 148.333,281.167 148.333,226.833 149,172.5C 151.064,160.945 157.564,153.278 168.5,149.5 Z"/></g>
<g><path style="opacity:1" fill="#618ec9" d="M 312.5,163.5 C 289.343,162.167 265.843,161.5 242,161.5C 217.144,161.519 192.311,161.852 167.5,162.5C 167.918,161.778 168.584,161.278 169.5,161C 217.833,160.333 266.167,160.333 314.5,161C 313.934,161.995 313.267,162.828 312.5,163.5 Z"/></g>
<g><path style="opacity:1" fill="#e4ecf5" d="M 160.5,169.5 C 159.838,218.845 160.505,267.845 162.5,316.5C 162.294,318.549 161.461,318.883 160,317.5C 159.168,267.998 159.335,218.665 160.5,169.5 Z"/></g>
<g><path style="opacity:1" fill="#427fc0" d="M 162.5,167.5 C 161.183,216.98 161.183,266.313 162.5,315.5C 162.5,315.833 162.5,316.167 162.5,316.5C 160.505,267.845 159.838,218.845 160.5,169.5C 161.167,168.833 161.833,168.167 162.5,167.5 Z"/></g>
<g><path style="opacity:1" fill="#b6c9e6" d="M 304.5,171.5 C 303.92,173.749 302.587,175.415 300.5,176.5C 301.08,174.251 302.413,172.585 304.5,171.5 Z"/></g>
<g><path style="opacity:1" fill="#6095cc" d="M 253.5,186.5 C 245.35,186.062 237.35,186.729 229.5,188.5C 230.589,186.883 232.256,186.05 234.5,186C 241.014,185.18 247.347,185.347 253.5,186.5 Z"/></g>
<g><path style="opacity:1" fill="#f7f9fc" d="M 253.5,186.5 C 256.311,187.475 259.311,188.142 262.5,188.5C 265.053,190.584 268.053,191.917 271.5,192.5C 280.357,197.35 287.69,204.017 293.5,212.5C 293.427,214.027 294.094,215.027 295.5,215.5C 297.204,218.256 298.537,221.256 299.5,224.5C 301.777,236.395 302.111,248.395 300.5,260.5C 299.165,264.172 297.832,267.838 296.5,271.5C 295.094,271.973 294.427,272.973 294.5,274.5C 289.864,281.968 284.031,288.301 277,293.5C 268.675,301.984 262.508,311.818 258.5,323C 256.16,327.572 252.826,331.072 248.5,333.5C 246.973,333.427 245.973,334.094 245.5,335.5C 239.654,337.233 233.654,337.9 227.5,337.5C 223.502,336.163 220.168,333.83 217.5,330.5C 217.019,326.651 218.686,324.651 222.5,324.5C 224.368,325.263 226.035,326.263 227.5,327.5C 231.646,328.647 235.98,328.814 240.5,328C 241.056,327.617 241.389,327.117 241.5,326.5C 242.833,325.833 244.167,325.167 245.5,324.5C 249.547,322.408 251.547,319.075 251.5,314.5C 252.906,314.027 253.573,313.027 253.5,311.5C 260.076,297.063 269.576,284.73 282,274.5C 283.609,271.593 285.442,268.927 287.5,266.5C 289.834,264.824 290.834,262.491 290.5,259.5C 292.647,250.444 292.98,241.444 291.5,232.5C 291.655,229.284 290.655,226.617 288.5,224.5C 287.788,222.072 286.788,219.739 285.5,217.5C 283.169,214.842 280.836,212.176 278.5,209.5C 277.415,207.413 275.749,206.08 273.5,205.5C 258.763,196.972 243.097,195.139 226.5,200C 216.339,204.995 208.673,212.495 203.5,222.5C 201.755,224.033 200.755,226.033 200.5,228.5C 201.48,239.056 197.98,241.056 190,234.5C 189.505,232.527 189.338,230.527 189.5,228.5C 191.245,226.967 192.245,224.967 192.5,222.5C 193.075,219.088 194.408,216.088 196.5,213.5C 197.906,213.027 198.573,212.027 198.5,210.5C 203.267,203.066 209.6,197.399 217.5,193.5C 219.027,193.573 220.027,192.906 220.5,191.5C 223.716,191.655 226.383,190.655 228.5,188.5C 228.833,188.5 229.167,188.5 229.5,188.5C 237.35,186.729 245.35,186.062 253.5,186.5 Z"/></g>
<g><path style="opacity:1" fill="#afc3e3" d="M 344.5,334.5 C 345.162,285.489 344.495,236.822 342.5,188.5C 342.811,187.522 343.478,186.855 344.5,186.5C 345.831,235.998 345.831,285.332 344.5,334.5 Z"/></g>
<g><path style="opacity:1" fill="#5288c6" d="M 342.5,188.5 C 344.495,236.822 345.162,285.489 344.5,334.5C 344.672,335.492 344.338,336.158 343.5,336.5C 343.667,287.832 343.5,239.166 343,190.5C 342.184,191.823 341.017,192.489 339.5,192.5C 340.5,191.167 341.5,189.833 342.5,188.5 Z"/></g>
<g><path style="opacity:1" fill="#b5c9e6" d="M 228.5,188.5 C 226.383,190.655 223.716,191.655 220.5,191.5C 222.936,190.129 225.603,189.129 228.5,188.5 Z"/></g>
<g><path style="opacity:1" fill="#6f9ace" d="M 262.5,188.5 C 263.873,188.343 265.207,188.51 266.5,189C 268.431,189.902 270.097,191.069 271.5,192.5C 268.053,191.917 265.053,190.584 262.5,188.5 Z"/></g>
<g><path style="opacity:1" fill="#a1badf" d="M 220.5,191.5 C 220.027,192.906 219.027,193.573 217.5,193.5C 217.973,192.094 218.973,191.427 220.5,191.5 Z"/></g>
<g><path style="opacity:1" fill="#749ed1" d="M 293.5,199.5 C 295.587,200.585 296.92,202.251 297.5,204.5C 295.413,203.415 294.08,201.749 293.5,199.5 Z"/></g>
<g><path style="opacity:1" fill="#f5f7fb" d="M 283.5,230.5 C 284.833,239.833 284.833,249.167 283.5,258.5C 282.014,262.79 279.514,266.456 276,269.5C 272.061,268.792 270.561,266.792 271.5,263.5C 273.931,261.954 275.264,259.621 275.5,256.5C 281.298,234.924 273.632,220.757 252.5,214C 244.007,212.509 236.007,213.843 228.5,218C 226.959,219.371 225.625,220.871 224.5,222.5C 221.395,225.275 219.062,228.608 217.5,232.5C 210.058,231.029 208.558,227.029 213,220.5C 217.533,214.784 223.033,210.451 229.5,207.5C 231.898,207.741 233.898,207.074 235.5,205.5C 252.802,201.707 267.302,206.707 279,220.5C 280.786,223.736 282.286,227.07 283.5,230.5 Z"/></g>
<g><path style="opacity:1" fill="#b7cae7" d="M 273.5,205.5 C 275.749,206.08 277.415,207.413 278.5,209.5C 276.251,208.92 274.585,207.587 273.5,205.5 Z"/></g>
<g><path style="opacity:1" fill="#bacee8" d="M 235.5,205.5 C 233.898,207.074 231.898,207.741 229.5,207.5C 231.102,205.926 233.102,205.259 235.5,205.5 Z"/></g>
<g><path style="opacity:1" fill="#9ab7dd" d="M 198.5,210.5 C 198.573,212.027 197.906,213.027 196.5,213.5C 196.427,211.973 197.094,210.973 198.5,210.5 Z"/></g>
<g><path style="opacity:1" fill="#a7bfe1" d="M 293.5,212.5 C 294.906,212.973 295.573,213.973 295.5,215.5C 294.094,215.027 293.427,214.027 293.5,212.5 Z"/></g>
<g><path style="opacity:1" fill="#96b5dc" d="M 304.5,215.5 C 305.906,215.973 306.573,216.973 306.5,218.5C 305.094,218.027 304.427,217.027 304.5,215.5 Z"/></g>
<g><path style="opacity:1" fill="#91b1da" d="M 192.5,222.5 C 192.245,224.967 191.245,226.967 189.5,228.5C 189.755,226.033 190.755,224.033 192.5,222.5 Z"/></g>
<g><path style="opacity:1" fill="#a6bfe1" d="M 203.5,222.5 C 203.245,224.967 202.245,226.967 200.5,228.5C 200.755,226.033 201.755,224.033 203.5,222.5 Z"/></g>
<g><path style="opacity:1" fill="#6d99ce" d="M 288.5,224.5 C 290.655,226.617 291.655,229.284 291.5,232.5C 290.883,232.389 290.383,232.056 290,231.5C 289.56,229.134 289.06,226.801 288.5,224.5 Z"/></g>
<g><path style="opacity:1" fill="#5d8ec8" d="M 224.5,222.5 C 223.162,226.679 220.828,230.013 217.5,232.5C 219.062,228.608 221.395,225.275 224.5,222.5 Z"/></g>
<g><path style="opacity:1" fill="#cddaee" d="M 299.5,224.5 C 300.793,225.842 301.626,227.509 302,229.5C 302.667,238.833 302.667,248.167 302,257.5C 301.768,258.737 301.268,259.737 300.5,260.5C 302.111,248.395 301.777,236.395 299.5,224.5 Z"/></g>
<g><path style="opacity:1" fill="#bacbe7" d="M 283.5,230.5 C 285.933,234.192 286.933,238.359 286.5,243C 286.694,248.526 285.694,253.693 283.5,258.5C 284.833,249.167 284.833,239.833 283.5,230.5 Z"/></g>
<g><path style="opacity:1" fill="#bccee8" d="M 275.5,256.5 C 275.264,259.621 273.931,261.954 271.5,263.5C 272.079,260.669 273.412,258.336 275.5,256.5 Z"/></g>
<g><path style="opacity:1" fill="#c1d2ea" d="M 290.5,259.5 C 290.834,262.491 289.834,264.824 287.5,266.5C 287.935,263.843 288.935,261.509 290.5,259.5 Z"/></g>
<g><path style="opacity:1" fill="#9db9de" d="M 296.5,271.5 C 296.573,273.027 295.906,274.027 294.5,274.5C 294.427,272.973 295.094,271.973 296.5,271.5 Z"/></g>
<g><path style="opacity:1" fill="#c5d5eb" d="M 192.5,285.5 C 191.833,288.167 190.167,289.833 187.5,290.5C 188.833,288.5 190.5,286.833 192.5,285.5 Z"/></g>
<g><path style="opacity:1" fill="#9bb7dd" d="M 253.5,311.5 C 253.573,313.027 252.906,314.027 251.5,314.5C 251.427,312.973 252.094,311.973 253.5,311.5 Z"/></g>
<g><path style="opacity:1" fill="#cedaee" d="M 251.5,314.5 C 251.547,319.075 249.547,322.408 245.5,324.5C 247.937,321.403 249.937,318.07 251.5,314.5 Z"/></g>
<g><path style="opacity:1" fill="#a5bfe1" d="M 222.5,324.5 C 218.686,324.651 217.019,326.651 217.5,330.5C 215.668,327.046 216.668,324.713 220.5,323.5C 221.416,323.543 222.083,323.876 222.5,324.5 Z"/></g>
<g><path style="opacity:1" fill="#84aad6" d="M 241.5,326.5 C 241.389,327.117 241.056,327.617 240.5,328C 235.98,328.814 231.646,328.647 227.5,327.5C 232.23,327.717 236.897,327.383 241.5,326.5 Z"/></g>
<g><path style="opacity:1" fill="#9ab7dd" d="M 248.5,333.5 C 248.027,334.906 247.027,335.573 245.5,335.5C 245.973,334.094 246.973,333.427 248.5,333.5 Z"/></g>
<g><path style="opacity:1" fill="#528bc6" d="M 245.5,335.5 C 244.942,336.79 243.942,337.623 242.5,338C 237.316,338.816 232.316,338.65 227.5,337.5C 233.654,337.9 239.654,337.233 245.5,335.5 Z"/></g>
<g><path style="opacity:1" fill="#387abd" d="M 192.5,341.5 C 239.822,343.495 287.488,344.162 335.5,343.5C 335.5,343.833 335.5,344.167 335.5,344.5C 286.997,344.832 238.664,344.499 190.5,343.5C 190.833,342.5 191.5,341.833 192.5,341.5 Z"/></g>
<g><path style="opacity:1" fill="#95b4db" d="M 190.5,343.5 C 238.664,344.499 286.997,344.832 335.5,344.5C 286.998,345.831 238.332,345.831 189.5,344.5C 189.624,343.893 189.957,343.56 190.5,343.5 Z"/></g>
<g><path style="opacity:1" fill="#dfdfde" d="M 351.5,340.5 C 353.393,349.516 349.726,353.349 340.5,352C 342.917,350.374 345.417,348.874 348,347.5C 349.18,345.14 350.347,342.807 351.5,340.5 Z"/></g>
</svg>
