<?xml version="1.0" encoding="UTF-8"?>
<!DOCTYPE svg PUBLIC "-//W3C//DTD SVG 1.1//EN" "http://www.w3.org/Graphics/SVG/1.1/DTD/svg11.dtd">
<svg xmlns="http://www.w3.org/2000/svg" version="1.1" width="500px" height="500px" style="shape-rendering:geometricPrecision; text-rendering:geometricPrecision; image-rendering:optimizeQuality; fill-rule:evenodd; clip-rule:evenodd" xmlns:xlink="http://www.w3.org/1999/xlink">
<g><path style="opacity:1" fill="#fefefe" d="M -0.5,-0.5 C 166.167,-0.5 332.833,-0.5 499.5,-0.5C 499.5,166.167 499.5,332.833 499.5,499.5C 332.833,499.5 166.167,499.5 -0.5,499.5C -0.5,332.833 -0.5,166.167 -0.5,-0.5 Z"/></g>
<g><path style="opacity:1" fill="#b7b5b6" d="M 161.5,149.5 C 220.168,149.333 278.834,149.5 337.5,150C 339.332,150.748 340.999,151.748 342.5,153C 340.177,152.694 337.844,152.028 335.5,151C 276.779,150.346 218.113,150.346 159.5,151C 160.416,150.722 161.082,150.222 161.5,149.5 Z"/></g>
<g><path style="opacity:1" fill="#1a65aa" d="M 163.5,154.5 C 220.501,154.333 277.501,154.5 334.5,155C 339,156.833 342.167,160 344,164.5C 344.667,221.167 344.667,277.833 344,334.5C 342.807,339.694 339.64,342.86 334.5,344C 277.167,344.667 219.833,344.667 162.5,344C 158.51,342.01 156.01,338.843 155,334.5C 154.333,277.5 154.333,220.5 155,163.5C 157.094,159.724 159.927,156.724 163.5,154.5 Z"/></g>
<g><path style="opacity:1" fill="#b5b3b4" d="M 152.5,341.5 C 151.21,340.942 150.377,339.942 150,338.5C 149.008,278.751 149.341,219.084 151,159.5C 150.345,218.446 150.345,277.446 151,336.5C 151.608,338.154 152.108,339.821 152.5,341.5 Z"/></g>
<g><path style="opacity:1" fill="#a8a7a7" d="M 344.5,155.5 C 346.984,157.12 348.484,159.453 349,162.5C 349.992,221.582 349.659,280.582 348,339.5C 348.647,280.866 348.647,222.2 348,163.5C 347.079,160.664 345.912,157.998 344.5,155.5 Z"/></g>
<g><path style="opacity:1" fill="#fbfcfd" d="M 271.5,262.5 C 254.675,261.503 237.675,261.17 220.5,261.5C 220.737,260.209 220.404,259.209 219.5,258.5C 218.426,232.056 216.592,205.723 214,179.5C 218.987,170.227 226.153,168.061 235.5,173C 243.715,181.303 243.382,189.303 234.5,197C 232.899,197.273 231.399,197.773 230,198.5C 229.313,207.856 229.479,217.189 230.5,226.5C 242.5,226.5 254.5,226.5 266.5,226.5C 266.5,231.167 266.5,235.833 266.5,240.5C 255.167,240.5 243.833,240.5 232.5,240.5C 232.5,243.5 232.5,246.5 232.5,249.5C 248.503,249.333 264.503,249.5 280.5,250C 287.407,265.559 294.407,281.059 301.5,296.5C 306.491,293.768 311.658,292.434 317,292.5C 318.303,294.94 319.47,297.44 320.5,300C 312.269,304.611 303.603,308.444 294.5,311.5C 292.647,310.811 291.481,309.478 291,307.5C 284.768,292.275 278.268,277.275 271.5,262.5 Z"/></g>
<g><path style="opacity:1" fill="#fbfcfd" d="M 211.5,230.5 C 212.167,232.5 212.833,234.5 213.5,236.5C 213.665,239.518 213.498,242.518 213,245.5C 198.085,257.249 193.418,272.249 199,290.5C 207.513,309.176 222.013,317.01 242.5,314C 258.508,309.324 268.342,298.824 272,282.5C 274.969,288.272 277.803,294.105 280.5,300C 267.849,322.656 248.516,331.99 222.5,328C 197.156,319.98 183.822,302.647 182.5,276C 183.742,255.325 193.409,240.158 211.5,230.5 Z"/></g>
<g><path style="opacity:1" fill="#96b7d8" d="M 211.5,230.5 C 211.56,229.957 211.893,229.624 212.5,229.5C 213.474,231.743 213.808,234.076 213.5,236.5C 212.833,234.5 212.167,232.5 211.5,230.5 Z"/></g>
<g><path style="opacity:1" fill="#c1d5e8" d="M 219.5,258.5 C 220.404,259.209 220.737,260.209 220.5,261.5C 237.675,261.17 254.675,261.503 271.5,262.5C 254.167,262.5 236.833,262.5 219.5,262.5C 219.5,261.167 219.5,259.833 219.5,258.5 Z"/></g>
<g><path style="opacity:1" fill="#b9b8b8" d="M 152.5,341.5 C 156.146,345.824 160.812,348.324 166.5,349C 221.833,349.667 277.167,349.667 332.5,349C 335.643,348.441 338.643,347.774 341.5,347C 339.779,348.527 337.779,349.527 335.5,350C 278.167,350.667 220.833,350.667 163.5,350C 158.242,349.058 154.576,346.224 152.5,341.5 Z"/></g>
</svg>
