<?xml version="1.0" encoding="UTF-8"?>
<!DOCTYPE svg PUBLIC "-//W3C//DTD SVG 1.1//EN" "http://www.w3.org/Graphics/SVG/1.1/DTD/svg11.dtd">
<svg xmlns="http://www.w3.org/2000/svg" version="1.1" width="500px" height="500px" style="shape-rendering:geometricPrecision; text-rendering:geometricPrecision; image-rendering:optimizeQuality; fill-rule:evenodd; clip-rule:evenodd" xmlns:xlink="http://www.w3.org/1999/xlink">
<g><path style="opacity:1" fill="#fefefe" d="M -0.5,-0.5 C 166.167,-0.5 332.833,-0.5 499.5,-0.5C 499.5,166.167 499.5,332.833 499.5,499.5C 332.833,499.5 166.167,499.5 -0.5,499.5C -0.5,332.833 -0.5,166.167 -0.5,-0.5 Z"/></g>
<g><path style="opacity:1" fill="#013983" d="M 147.5,147.5 C 215.5,147.5 283.5,147.5 351.5,147.5C 351.5,215.5 351.5,283.5 351.5,351.5C 283.5,351.5 215.5,351.5 147.5,351.5C 147.5,283.5 147.5,215.5 147.5,147.5 Z"/></g>
<g><path style="opacity:1" fill="#a0aabe" d="M 317.5,197.5 C 318.167,197.833 318.833,198.167 319.5,198.5C 319.629,200.216 319.962,201.883 320.5,203.5C 318.755,201.967 317.755,199.967 317.5,197.5 Z"/></g>
<g><path style="opacity:1" fill="#6f7c96" d="M 164.5,195.5 C 164.245,197.967 163.245,199.967 161.5,201.5C 161.755,199.033 162.755,197.033 164.5,195.5 Z"/></g>
<g><path style="opacity:1" fill="#1a396c" d="M 200.5,156.5 C 188.978,163.185 179.145,171.851 171,182.5C 168.311,186.545 166.144,190.879 164.5,195.5C 162.755,197.033 161.755,199.033 161.5,201.5C 160.652,205.227 159.652,208.893 158.5,212.5C 156.981,215.526 156.315,218.859 156.5,222.5C 156.503,225.025 156.837,227.359 157.5,229.5C 157.5,230.833 157.5,232.167 157.5,233.5C 157.5,234.833 157.5,236.167 157.5,237.5C 156.883,237.389 156.383,237.056 156,236.5C 155.333,228.5 155.333,220.5 156,212.5C 158.791,205.293 161.291,197.96 163.5,190.5C 167.167,184.5 170.833,178.5 174.5,172.5C 175.086,172.709 175.586,173.043 176,173.5C 175.834,169 178,166.833 182.5,167C 182.941,164.059 184.607,162.226 187.5,161.5C 185.876,160.131 185.376,158.464 186,156.5C 187.994,157.664 190.161,158.331 192.5,158.5C 195.011,157.345 197.678,156.678 200.5,156.5 Z"/></g>
<g><path style="opacity:1" fill="#254071" d="M 294.5,168.5 C 295.873,168.343 297.207,168.51 298.5,169C 303.239,172.657 306.906,177.157 309.5,182.5C 304.526,177.861 299.526,173.195 294.5,168.5 Z"/></g>
<g><path style="opacity:1" fill="#e2e5ed" d="M 223.5,151.5 C 234.854,151.34 246.187,151.674 257.5,152.5C 261.417,153.637 265.417,154.47 269.5,155C 276.234,158.075 282.901,161.242 289.5,164.5C 290.585,166.587 292.251,167.92 294.5,168.5C 299.526,173.195 304.526,177.861 309.5,182.5C 312.421,187.341 315.088,192.341 317.5,197.5C 317.755,199.967 318.755,201.967 320.5,203.5C 321.537,204.93 322.204,206.597 322.5,208.5C 323.982,213.015 324.648,217.681 324.5,222.5C 322.399,230.33 323.566,237.663 328,244.5C 330.698,248.025 333.531,251.358 336.5,254.5C 337.777,256.95 339.277,259.283 341,261.5C 341.497,263.81 341.663,266.143 341.5,268.5C 337.757,271.762 333.424,274.095 328.5,275.5C 328.167,276.333 327.833,277.167 327.5,278C 328.5,281 329.5,284 330.5,287C 330.507,288.812 329.84,290.312 328.5,291.5C 329.022,292.607 329.355,293.774 329.5,295C 328.737,303.81 328.237,312.643 328,321.5C 325.914,325.445 322.747,327.779 318.5,328.5C 311.788,328.504 305.121,328.671 298.5,329C 299.381,328.292 300.047,327.458 300.5,326.5C 305.438,325.608 310.438,325.274 315.5,325.5C 318.01,325.946 320.01,325.28 321.5,323.5C 321.811,322.522 322.478,321.855 323.5,321.5C 324.208,312.985 324.875,304.485 325.5,296C 321.337,293.169 321.504,290.669 326,288.5C 326.49,286.455 326.323,284.455 325.5,282.5C 324.735,279.904 324.401,277.237 324.5,274.5C 325.29,273.206 326.29,272.039 327.5,271C 330.56,270.152 333.56,269.152 336.5,268C 337.584,264.6 336.917,261.434 334.5,258.5C 332.388,255.94 330.055,253.606 327.5,251.5C 324.247,247.333 321.747,242.667 320,237.5C 319.501,233.848 319.335,230.182 319.5,226.5C 321.91,221.472 321.91,216.472 319.5,211.5C 319.5,211.167 319.5,210.833 319.5,210.5C 319.245,208.033 318.245,206.033 316.5,204.5C 316.672,203.508 316.338,202.842 315.5,202.5C 315.275,199.454 313.942,197.121 311.5,195.5C 309.86,191.559 307.694,187.892 305,184.5C 301.629,181.297 298.462,177.964 295.5,174.5C 294.415,172.413 292.749,171.08 290.5,170.5C 281.498,163.95 271.498,159.617 260.5,157.5C 257.132,155.941 253.465,155.108 249.5,155C 226.518,151.144 205.851,156.144 187.5,170C 184.961,172.37 182.628,174.87 180.5,177.5C 178.1,179.296 176.433,181.63 175.5,184.5C 174.662,184.842 174.328,185.508 174.5,186.5C 173.624,186.369 172.957,186.702 172.5,187.5C 171.406,191.575 169.572,195.242 167,198.5C 165.308,203.799 163.808,209.132 162.5,214.5C 161.834,218.653 161.501,222.987 161.5,227.5C 161.346,234.398 162.013,241.064 163.5,247.5C 164.768,249.905 165.435,252.572 165.5,255.5C 165.759,258.272 166.759,260.605 168.5,262.5C 168.932,263.71 169.599,264.71 170.5,265.5C 170.5,265.833 170.5,266.167 170.5,266.5C 173.167,269.833 175.833,273.167 178.5,276.5C 182.764,282.701 186.764,289.034 190.5,295.5C 190.5,295.833 190.5,296.167 190.5,296.5C 192.076,299.655 193.076,302.988 193.5,306.5C 192.842,305.602 192.176,304.602 191.5,303.5C 190.702,303.957 190.369,304.624 190.5,305.5C 188.9,303.297 187.567,300.964 186.5,298.5C 182.098,288.593 176.264,279.593 169,271.5C 161.827,259.766 157.994,247.099 157.5,233.5C 157.5,232.167 157.5,230.833 157.5,229.5C 157.375,223.797 157.708,218.13 158.5,212.5C 159.652,208.893 160.652,205.227 161.5,201.5C 163.245,199.967 164.245,197.967 164.5,195.5C 166.144,190.879 168.311,186.545 171,182.5C 179.145,171.851 188.978,163.185 200.5,156.5C 204.239,155.697 207.905,154.697 211.5,153.5C 215.546,153.048 219.546,152.381 223.5,151.5 Z"/></g>
<g><path style="opacity:1" fill="#5a6c89" d="M 311.5,195.5 C 313.942,197.121 315.275,199.454 315.5,202.5C 314.143,201.41 313.143,200.076 312.5,198.5C 311.89,197.609 311.557,196.609 311.5,195.5 Z"/></g>
<g><path style="opacity:1" fill="#b2becd" d="M 194.5,190.5 C 193.864,192.795 192.531,194.461 190.5,195.5C 191.124,193.246 192.457,191.579 194.5,190.5 Z"/></g>
<g><path style="opacity:1" fill="#385075" d="M 180.5,177.5 C 180.787,181.215 179.12,183.548 175.5,184.5C 176.433,181.63 178.1,179.296 180.5,177.5 Z"/></g>
<g><path style="opacity:1" fill="#5d758d" d="M 274.5,177.5 C 276.967,177.755 278.967,178.755 280.5,180.5C 278.033,180.245 276.033,179.245 274.5,177.5 Z"/></g>
<g><path style="opacity:1" fill="#1f3e74" d="M 260.5,157.5 C 271.498,159.617 281.498,163.95 290.5,170.5C 291.585,172.587 293.251,173.92 295.5,174.5C 298.462,177.964 301.629,181.297 305,184.5C 307.694,187.892 309.86,191.559 311.5,195.5C 306.686,191.281 301.853,186.947 297,182.5C 294.859,183.075 292.359,183.408 289.5,183.5C 289.238,184.978 289.571,186.311 290.5,187.5C 296.891,192.232 299.225,198.565 297.5,206.5C 297.245,201.521 295.745,196.854 293,192.5C 288.938,188.269 284.771,184.269 280.5,180.5C 278.967,178.755 276.967,177.755 274.5,177.5C 271.687,177.975 269.687,176.975 268.5,174.5C 271.668,175.864 275.001,176.697 278.5,177C 280.394,178.404 282.394,179.57 284.5,180.5C 285.672,180.081 286.672,179.415 287.5,178.5C 290.084,179.393 292.751,179.726 295.5,179.5C 295.719,178.325 295.386,177.325 294.5,176.5C 290.864,173.538 287.198,170.538 283.5,167.5C 275.92,163.759 268.254,160.426 260.5,157.5 Z"/></g>
<g><path style="opacity:1" fill="#677e96" d="M 259.5,171.5 C 262.167,171.833 264.833,172.167 267.5,172.5C 267.833,173.167 268.167,173.833 268.5,174.5C 265.254,173.946 262.254,172.946 259.5,171.5 Z"/></g>
<g><path style="opacity:1" fill="#8493a3" d="M 221.5,173.5 C 218.026,174.525 214.36,175.192 210.5,175.5C 210.918,174.778 211.584,174.278 212.5,174C 215.482,173.502 218.482,173.335 221.5,173.5 Z"/></g>
<g><path style="opacity:1" fill="#a3acbe" d="M 290.5,170.5 C 292.749,171.08 294.415,172.413 295.5,174.5C 293.251,173.92 291.585,172.587 290.5,170.5 Z"/></g>
<g><path style="opacity:1" fill="#1f3d6a" d="M 225.5,168.5 C 225.5,169.167 225.5,169.833 225.5,170.5C 223.57,170.771 222.236,171.771 221.5,173.5C 218.482,173.335 215.482,173.502 212.5,174C 211.584,174.278 210.918,174.778 210.5,175.5C 208.835,177.939 206.502,179.439 203.5,180C 200.583,183.737 197.583,187.237 194.5,190.5C 192.457,191.579 191.124,193.246 190.5,195.5C 188.563,196.931 186.73,198.598 185,200.5C 182.271,207.3 180.104,214.3 178.5,221.5C 176.926,223.102 176.259,225.102 176.5,227.5C 176.5,229.833 176.5,232.167 176.5,234.5C 176.377,240.609 177.044,246.609 178.5,252.5C 177.194,249.662 176.027,246.662 175,243.5C 174.333,236.167 174.333,228.833 175,221.5C 178.779,213.424 182.112,205.091 185,196.5C 190.507,190.003 196.34,183.836 202.5,178C 205.618,176.143 208.618,174.143 211.5,172C 214.5,171.667 217.5,171.333 220.5,171C 221.617,169.108 223.284,168.275 225.5,168.5 Z"/></g>
<g><path style="opacity:1" fill="#fcfcfd" d="M 256.5,169.5 C 257.29,170.401 258.29,171.068 259.5,171.5C 262.254,172.946 265.254,173.946 268.5,174.5C 269.687,176.975 271.687,177.975 274.5,177.5C 276.033,179.245 278.033,180.245 280.5,180.5C 284.771,184.269 288.938,188.269 293,192.5C 295.745,196.854 297.245,201.521 297.5,206.5C 297.665,210.182 297.499,213.848 297,217.5C 295.681,219.287 294.848,221.287 294.5,223.5C 291.945,226.27 288.945,228.27 285.5,229.5C 282.008,229.446 279.008,230.446 276.5,232.5C 277.02,237.851 276.02,242.851 273.5,247.5C 272.167,248.5 270.833,249.5 269.5,250.5C 265.072,250.71 261.072,251.71 257.5,253.5C 251.559,254.413 245.559,254.746 239.5,254.5C 238.292,253.766 236.959,253.433 235.5,253.5C 233.307,252.203 230.973,252.203 228.5,253.5C 228.624,254.107 228.957,254.44 229.5,254.5C 230.5,255.167 231.5,255.833 232.5,256.5C 232.5,257.5 232.5,258.5 232.5,259.5C 233.473,261.068 233.64,262.735 233,264.5C 230.667,265.167 228.333,265.833 226,266.5C 225.503,268.81 225.337,271.143 225.5,273.5C 221.206,281.419 214.539,284.252 205.5,282C 202.171,280.671 199.171,278.837 196.5,276.5C 194.053,272.263 190.719,268.93 186.5,266.5C 184.257,263.274 183.924,259.774 185.5,256C 184.303,254.48 182.803,253.313 181,252.5C 178.529,246.605 177.029,240.605 176.5,234.5C 176.5,232.167 176.5,229.833 176.5,227.5C 178.074,225.898 178.741,223.898 178.5,221.5C 180.104,214.3 182.271,207.3 185,200.5C 186.73,198.598 188.563,196.931 190.5,195.5C 192.531,194.461 193.864,192.795 194.5,190.5C 197.583,187.237 200.583,183.737 203.5,180C 206.502,179.439 208.835,177.939 210.5,175.5C 214.36,175.192 218.026,174.525 221.5,173.5C 222.236,171.771 223.57,170.771 225.5,170.5C 235.919,170.707 246.253,170.374 256.5,169.5 Z"/></g>
<g><path style="opacity:1" fill="#485c7c" d="M 233.5,167.5 C 238.026,168.377 242.526,168.377 247,167.5C 250.35,167.946 253.517,168.612 256.5,169.5C 246.253,170.374 235.919,170.707 225.5,170.5C 225.5,169.833 225.5,169.167 225.5,168.5C 228.385,168.806 231.052,168.473 233.5,167.5 Z"/></g>
<g><path style="opacity:1" fill="#0d346b" d="M 267.5,172.5 C 264.833,172.167 262.167,171.833 259.5,171.5C 258.29,171.068 257.29,170.401 256.5,169.5C 253.517,168.612 250.35,167.946 247,167.5C 242.526,168.377 238.026,168.377 233.5,167.5C 234.312,166.007 235.645,165.34 237.5,165.5C 245.151,166.465 252.817,167.298 260.5,168C 262.592,170.036 264.926,171.536 267.5,172.5 Z"/></g>
<g><path style="opacity:1" fill="#5d7191" d="M 289.5,164.5 C 291.749,165.08 293.415,166.413 294.5,168.5C 292.251,167.92 290.585,166.587 289.5,164.5 Z"/></g>
<g><path style="opacity:1" fill="#1e3c6c" d="M 260.5,157.5 C 242.537,155.646 224.87,156.813 207.5,161C 198.226,166.039 189.226,171.539 180.5,177.5C 182.628,174.87 184.961,172.37 187.5,170C 205.851,156.144 226.518,151.144 249.5,155C 253.465,155.108 257.132,155.941 260.5,157.5 Z"/></g>
<g><path style="opacity:1" fill="#324872" d="M 257.5,152.5 C 257.5,152.167 257.5,151.833 257.5,151.5C 258.833,151.5 260.167,151.5 261.5,151.5C 267.608,152.694 273.608,154.194 279.5,156C 283.162,158.632 286.495,161.466 289.5,164.5C 282.901,161.242 276.234,158.075 269.5,155C 265.417,154.47 261.417,153.637 257.5,152.5 Z"/></g>
<g><path style="opacity:1" fill="#828ea2" d="M 223.5,150.5 C 223.5,150.833 223.5,151.167 223.5,151.5C 219.546,152.381 215.546,153.048 211.5,153.5C 212.29,152.599 213.29,151.932 214.5,151.5C 217.518,151.296 220.518,150.963 223.5,150.5 Z"/></g>
<g><path style="opacity:1" fill="#c3c7d3" d="M 223.5,151.5 C 223.5,151.167 223.5,150.833 223.5,150.5C 234.857,150.31 246.19,150.644 257.5,151.5C 257.5,151.833 257.5,152.167 257.5,152.5C 246.187,151.674 234.854,151.34 223.5,151.5 Z"/></g>
<g><path style="opacity:1" fill="#253b64" d="M 261.5,151.5 C 260.167,151.5 258.833,151.5 257.5,151.5C 246.19,150.644 234.857,150.31 223.5,150.5C 220.518,150.963 217.518,151.296 214.5,151.5C 216.562,150.224 218.896,149.39 221.5,149C 225.833,148.833 230.167,148.667 234.5,148.5C 243.781,148.272 252.781,149.272 261.5,151.5 Z"/></g>
<g><path style="opacity:1" fill="#8e98ab" d="M 316.5,204.5 C 318.245,206.033 319.245,208.033 319.5,210.5C 317.755,208.967 316.755,206.967 316.5,204.5 Z"/></g>
<g><path style="opacity:1" fill="#2d436b" d="M 174.5,186.5 C 174.282,191.7 172.282,196.033 168.5,199.5C 163.937,210.972 162.27,222.972 163.5,235.5C 163.5,236.833 163.5,238.167 163.5,239.5C 162.507,231.35 162.174,223.017 162.5,214.5C 163.808,209.132 165.308,203.799 167,198.5C 169.572,195.242 171.406,191.575 172.5,187.5C 172.957,186.702 173.624,186.369 174.5,186.5 Z"/></g>
<g><path style="opacity:1" fill="#1e3d6c" d="M 297.5,206.5 C 298.787,207.871 299.453,209.705 299.5,212C 299.848,216.795 298.182,220.629 294.5,223.5C 294.848,221.287 295.681,219.287 297,217.5C 297.499,213.848 297.665,210.182 297.5,206.5 Z"/></g>
<g><path style="opacity:1" fill="#133668" d="M 312.5,198.5 C 313.143,200.076 314.143,201.41 315.5,202.5C 316.338,202.842 316.672,203.508 316.5,204.5C 316.755,206.967 317.755,208.967 319.5,210.5C 319.5,210.833 319.5,211.167 319.5,211.5C 319.5,216.5 319.5,221.5 319.5,226.5C 318.527,228.948 318.194,231.615 318.5,234.5C 317.275,233.848 316.608,232.681 316.5,231C 317.851,227.311 318.518,223.477 318.5,219.5C 316.58,212.492 314.58,205.492 312.5,198.5 Z"/></g>
<g><path style="opacity:1" fill="#46536f" d="M 319.5,211.5 C 321.91,216.472 321.91,221.472 319.5,226.5C 319.5,221.5 319.5,216.5 319.5,211.5 Z"/></g>
<g><path style="opacity:1" fill="#79849c" d="M 322.5,208.5 C 325.431,212.886 326.097,217.552 324.5,222.5C 324.648,217.681 323.982,213.015 322.5,208.5 Z"/></g>
<g><path style="opacity:1" fill="#96a2b3" d="M 178.5,221.5 C 178.741,223.898 178.074,225.898 176.5,227.5C 176.259,225.102 176.926,223.102 178.5,221.5 Z"/></g>
<g><path style="opacity:1" fill="#475d7e" d="M 158.5,212.5 C 157.708,218.13 157.375,223.797 157.5,229.5C 156.837,227.359 156.503,225.025 156.5,222.5C 156.315,218.859 156.981,215.526 158.5,212.5 Z"/></g>
<g><path style="opacity:1" fill="#6d7991" d="M 162.5,214.5 C 162.174,223.017 162.507,231.35 163.5,239.5C 163.5,242.167 163.5,244.833 163.5,247.5C 162.013,241.064 161.346,234.398 161.5,227.5C 161.501,222.987 161.834,218.653 162.5,214.5 Z"/></g>
<g><path style="opacity:1" fill="#a6b3c1" d="M 285.5,229.5 C 282.746,230.946 279.746,231.946 276.5,232.5C 279.008,230.446 282.008,229.446 285.5,229.5 Z"/></g>
<g><path style="opacity:1" fill="#1f3d6e" d="M 294.5,223.5 C 291.547,229.765 286.547,233.432 279.5,234.5C 278.781,238.165 277.948,241.832 277,245.5C 276.184,246.823 275.017,247.489 273.5,247.5C 276.02,242.851 277.02,237.851 276.5,232.5C 279.746,231.946 282.746,230.946 285.5,229.5C 288.945,228.27 291.945,226.27 294.5,223.5 Z"/></g>
<g><path style="opacity:1" fill="#1c3c70" d="M 319.5,198.5 C 320.682,200.838 322.348,202.838 324.5,204.5C 325.145,207.228 325.979,209.895 327,212.5C 327.221,220.843 327.221,229.176 327,237.5C 329.99,240.074 331.49,243.408 331.5,247.5C 333.199,247.34 334.866,247.506 336.5,248C 335.91,250.416 335.91,252.583 336.5,254.5C 333.531,251.358 330.698,248.025 328,244.5C 323.566,237.663 322.399,230.33 324.5,222.5C 326.097,217.552 325.431,212.886 322.5,208.5C 322.204,206.597 321.537,204.93 320.5,203.5C 319.962,201.883 319.629,200.216 319.5,198.5 Z"/></g>
<g><path style="opacity:1" fill="#314875" d="M 319.5,226.5 C 319.335,230.182 319.501,233.848 320,237.5C 321.747,242.667 324.247,247.333 327.5,251.5C 321.106,247.739 318.106,242.073 318.5,234.5C 318.194,231.615 318.527,228.948 319.5,226.5 Z"/></g>
<g><path style="opacity:1" fill="#15386f" d="M 163.5,235.5 C 165.317,239.148 166.817,243.148 168,247.5C 168.176,253.638 169.009,259.638 170.5,265.5C 169.599,264.71 168.932,263.71 168.5,262.5C 168.241,259.728 167.241,257.395 165.5,255.5C 165.435,252.572 164.768,249.905 163.5,247.5C 163.5,244.833 163.5,242.167 163.5,239.5C 163.5,238.167 163.5,236.833 163.5,235.5 Z"/></g>
<g><path style="opacity:1" fill="#bcc6ce" d="M 269.5,250.5 C 268.653,251.966 267.32,252.8 265.5,253C 262.854,253.497 260.187,253.664 257.5,253.5C 261.072,251.71 265.072,250.71 269.5,250.5 Z"/></g>
<g><path style="opacity:1" fill="#69707b" d="M 235.5,253.5 C 233.265,253.205 231.265,253.539 229.5,254.5C 228.957,254.44 228.624,254.107 228.5,253.5C 230.973,252.203 233.307,252.203 235.5,253.5 Z"/></g>
<g><path style="opacity:1" fill="#1c3862" d="M 273.5,247.5 C 272.316,250.849 269.983,253.015 266.5,254C 260.405,255.319 254.239,256.152 248,256.5C 243.165,256.718 238.498,256.051 234,254.5C 232.97,254.836 232.47,255.503 232.5,256.5C 231.5,255.833 230.5,255.167 229.5,254.5C 231.265,253.539 233.265,253.205 235.5,253.5C 236.959,253.433 238.292,253.766 239.5,254.5C 244.985,255.652 250.651,255.818 256.5,255C 257.056,254.617 257.389,254.117 257.5,253.5C 260.187,253.664 262.854,253.497 265.5,253C 267.32,252.8 268.653,251.966 269.5,250.5C 270.833,249.5 272.167,248.5 273.5,247.5 Z"/></g>
<g><path style="opacity:1" fill="#5d6f87" d="M 257.5,253.5 C 257.389,254.117 257.056,254.617 256.5,255C 250.651,255.818 244.985,255.652 239.5,254.5C 245.559,254.746 251.559,254.413 257.5,253.5 Z"/></g>
<g><path style="opacity:1" fill="#374f71" d="M 176.5,234.5 C 177.029,240.605 178.529,246.605 181,252.5C 182.803,253.313 184.303,254.48 185.5,256C 183.924,259.774 184.257,263.274 186.5,266.5C 185.504,266.586 184.671,266.252 184,265.5C 183.667,262.167 183.333,258.833 183,255.5C 181.385,254.614 179.885,253.614 178.5,252.5C 177.044,246.609 176.377,240.609 176.5,234.5 Z"/></g>
<g><path style="opacity:1" fill="#848fa3" d="M 165.5,255.5 C 167.241,257.395 168.241,259.728 168.5,262.5C 166.759,260.605 165.759,258.272 165.5,255.5 Z"/></g>
<g><path style="opacity:1" fill="#556683" d="M 232.5,259.5 C 233.693,259.97 234.36,260.97 234.5,262.5C 234.66,264.355 233.993,265.688 232.5,266.5C 230.565,267.15 228.565,267.483 226.5,267.5C 226.795,269.735 226.461,271.735 225.5,273.5C 225.337,271.143 225.503,268.81 226,266.5C 228.333,265.833 230.667,265.167 233,264.5C 233.64,262.735 233.473,261.068 232.5,259.5 Z"/></g>
<g><path style="opacity:1" fill="#253d6b" d="M 327.5,251.5 C 330.055,253.606 332.388,255.94 334.5,258.5C 336.917,261.434 337.584,264.6 336.5,268C 333.56,269.152 330.56,270.152 327.5,271C 326.29,272.039 325.29,273.206 324.5,274.5C 324.167,274.5 323.833,274.5 323.5,274.5C 323.238,273.022 323.571,271.689 324.5,270.5C 327.855,269.484 331.188,268.484 334.5,267.5C 334.662,265.473 334.495,263.473 334,261.5C 330.347,259.036 328.18,255.702 327.5,251.5 Z"/></g>
<g><path style="opacity:1" fill="#2b436c" d="M 170.5,266.5 C 175.012,268.347 177.679,271.68 178.5,276.5C 175.833,273.167 173.167,269.833 170.5,266.5 Z"/></g>
<g><path style="opacity:1" fill="#8a9baf" d="M 323.5,274.5 C 323.833,274.5 324.167,274.5 324.5,274.5C 324.401,277.237 324.735,279.904 325.5,282.5C 324.883,282.389 324.383,282.056 324,281.5C 323.505,279.527 323.338,277.527 323.5,275.5C 323.5,275.167 323.5,274.833 323.5,274.5 Z"/></g>
<g><path style="opacity:1" fill="#233f70" d="M 178.5,276.5 C 180.426,277.242 182.259,278.242 184,279.5C 185.24,283.679 187.24,287.346 190,290.5C 190.494,292.134 190.66,293.801 190.5,295.5C 186.764,289.034 182.764,282.701 178.5,276.5 Z"/></g>
<g><path style="opacity:1" fill="#1a396b" d="M 232.5,266.5 C 231.713,268.104 230.38,268.771 228.5,268.5C 228.514,272.126 227.514,275.46 225.5,278.5C 222.991,279.921 220.657,281.588 218.5,283.5C 213.23,284.451 207.897,284.785 202.5,284.5C 202.5,283.5 202.5,282.5 202.5,281.5C 198.968,281.632 196.968,279.966 196.5,276.5C 199.171,278.837 202.171,280.671 205.5,282C 214.539,284.252 221.206,281.419 225.5,273.5C 226.461,271.735 226.795,269.735 226.5,267.5C 228.565,267.483 230.565,267.15 232.5,266.5 Z"/></g>
<g><path style="opacity:1" fill="#45597c" d="M 186.5,298.5 C 187.567,300.964 188.9,303.297 190.5,305.5C 190.5,306.833 190.5,308.167 190.5,309.5C 188,306.34 186.667,302.673 186.5,298.5 Z"/></g>
<g><path style="opacity:1" fill="#253e6d" d="M 323.5,275.5 C 323.338,277.527 323.505,279.527 324,281.5C 324.383,282.056 324.883,282.389 325.5,282.5C 326.323,284.455 326.49,286.455 326,288.5C 321.504,290.669 321.337,293.169 325.5,296C 324.875,304.485 324.208,312.985 323.5,321.5C 322.478,321.855 321.811,322.522 321.5,323.5C 319.214,323.595 317.214,324.262 315.5,325.5C 310.438,325.274 305.438,325.608 300.5,326.5C 299.167,326.833 297.833,327.167 296.5,327.5C 300.144,324.586 304.31,322.252 309,320.5C 313.247,322.799 317.58,322.799 322,320.5C 322.56,315.319 322.393,310.152 321.5,305C 321.889,302.584 322.555,300.251 323.5,298C 322.597,295.921 321.931,293.754 321.5,291.5C 321.931,289.246 322.597,287.079 323.5,285C 322.359,281.671 322.359,278.505 323.5,275.5 Z"/></g>
<g><path style="opacity:1" fill="#254070" d="M 157.5,233.5 C 157.994,247.099 161.827,259.766 169,271.5C 176.264,279.593 182.098,288.593 186.5,298.5C 186.667,302.673 188,306.34 190.5,309.5C 191.74,318.809 191.74,328.143 190.5,337.5C 189.076,339.515 188.41,341.848 188.5,344.5C 187.348,340.946 187.515,337.28 189,333.5C 189.667,327.833 189.667,322.167 189,316.5C 187.872,310.374 186.539,304.374 185,298.5C 184.535,297.069 183.701,295.903 182.5,295C 181.065,295.311 179.732,295.145 178.5,294.5C 177.828,291.103 176.995,287.77 176,284.5C 170.274,276.772 164.941,268.772 160,260.5C 157.801,253.003 156.968,245.337 157.5,237.5C 157.5,236.167 157.5,234.833 157.5,233.5 Z"/></g>
<g><path style="opacity:1" fill="#f7f7fd" d="M 193.5,306.5 C 194.792,316.835 194.792,327.169 193.5,337.5C 193.405,339.786 192.738,341.786 191.5,343.5C 190.624,343.631 189.957,343.298 189.5,342.5C 190.246,341.264 190.579,339.93 190.5,338.5C 191.117,338.389 191.617,338.056 192,337.5C 192.167,332.833 192.333,328.167 192.5,323.5C 192.493,318.449 191.827,313.783 190.5,309.5C 190.5,308.167 190.5,306.833 190.5,305.5C 190.369,304.624 190.702,303.957 191.5,303.5C 192.176,304.602 192.842,305.602 193.5,306.5 Z"/></g>
<g><path style="opacity:1" fill="#d2d5e0" d="M 190.5,309.5 C 191.827,313.783 192.493,318.449 192.5,323.5C 192.333,328.167 192.167,332.833 192,337.5C 191.617,338.056 191.117,338.389 190.5,338.5C 190.5,338.167 190.5,337.833 190.5,337.5C 191.74,328.143 191.74,318.809 190.5,309.5 Z"/></g>
<g><path style="opacity:1" fill="#223c67" d="M 190.5,296.5 C 192.411,296.574 193.578,297.574 194,299.5C 197.823,312.297 198.49,325.297 196,338.5C 194.456,340.468 193.289,342.635 192.5,345C 190.934,345.765 189.601,345.598 188.5,344.5C 189.791,344.737 190.791,344.404 191.5,343.5C 192.738,341.786 193.405,339.786 193.5,337.5C 194.975,332.243 195.642,326.743 195.5,321C 195.707,315.898 195.04,311.065 193.5,306.5C 193.076,302.988 192.076,299.655 190.5,296.5 Z"/></g>
<g><path style="opacity:1" fill="#9faab9" d="M 321.5,323.5 C 320.01,325.28 318.01,325.946 315.5,325.5C 317.214,324.262 319.214,323.595 321.5,323.5 Z"/></g>
<g><path style="opacity:1" fill="#bbc3d2" d="M 193.5,306.5 C 195.04,311.065 195.707,315.898 195.5,321C 195.642,326.743 194.975,332.243 193.5,337.5C 194.792,327.169 194.792,316.835 193.5,306.5 Z"/></g>
<g><path style="opacity:1" fill="#cacfdb" d="M 300.5,326.5 C 300.047,327.458 299.381,328.292 298.5,329C 305.121,328.671 311.788,328.504 318.5,328.5C 313.5,329.167 308.5,329.833 303.5,330.5C 299.415,330.372 296.415,332.039 294.5,335.5C 293.833,336.167 293.167,336.833 292.5,337.5C 292.598,334.752 291.598,334.086 289.5,335.5C 291.091,332.569 293.091,329.902 295.5,327.5C 295.833,327.5 296.167,327.5 296.5,327.5C 297.833,327.167 299.167,326.833 300.5,326.5 Z"/></g>
<g><path style="opacity:1" fill="#2a426d" d="M 341.5,268.5 C 342.21,271.86 340.876,273.693 337.5,274C 336.122,277.429 333.789,278.263 330.5,276.5C 330.167,277.333 329.833,278.167 329.5,279C 330.959,282.842 331.625,286.842 331.5,291C 330.165,302.529 329.165,314.029 328.5,325.5C 326.478,327.456 324.145,328.956 321.5,330C 315.509,330.499 309.509,330.666 303.5,330.5C 308.5,329.833 313.5,329.167 318.5,328.5C 322.747,327.779 325.914,325.445 328,321.5C 328.237,312.643 328.737,303.81 329.5,295C 329.355,293.774 329.022,292.607 328.5,291.5C 329.84,290.312 330.507,288.812 330.5,287C 329.5,284 328.5,281 327.5,278C 327.833,277.167 328.167,276.333 328.5,275.5C 333.424,274.095 337.757,271.762 341.5,268.5 Z"/></g>
<g><path style="opacity:1" fill="#133771" d="M 328.5,325.5 C 327.788,328.6 325.788,330.434 322.5,331C 314.389,331.151 306.389,332.151 298.5,334C 296.93,335.397 295.596,336.897 294.5,338.5C 294.5,337.5 294.5,336.5 294.5,335.5C 296.415,332.039 299.415,330.372 303.5,330.5C 309.509,330.666 315.509,330.499 321.5,330C 324.145,328.956 326.478,327.456 328.5,325.5 Z"/></g>
<g><path style="opacity:1" fill="#f1f3f9" d="M 292.5,337.5 C 291.532,339.607 291.198,341.941 291.5,344.5C 290.5,344.5 289.5,344.5 288.5,344.5C 288.5,342.5 288.5,340.5 288.5,338.5C 288.557,337.391 288.89,336.391 289.5,335.5C 291.598,334.086 292.598,334.752 292.5,337.5 Z"/></g>
<g><path style="opacity:1" fill="#425477" d="M 294.5,335.5 C 294.5,336.5 294.5,337.5 294.5,338.5C 294.5,338.833 294.5,339.167 294.5,339.5C 294.028,341.531 293.028,343.198 291.5,344.5C 291.198,341.941 291.532,339.607 292.5,337.5C 293.167,336.833 293.833,336.167 294.5,335.5 Z"/></g>
<g><path style="opacity:1" fill="#8392a6" d="M 190.5,337.5 C 190.5,337.833 190.5,338.167 190.5,338.5C 190.579,339.93 190.246,341.264 189.5,342.5C 189.957,343.298 190.624,343.631 191.5,343.5C 190.791,344.404 189.791,344.737 188.5,344.5C 188.41,341.848 189.076,339.515 190.5,337.5 Z"/></g>
<g><path style="opacity:1" fill="#7d8ca1" d="M 288.5,338.5 C 288.5,340.5 288.5,342.5 288.5,344.5C 289.5,344.5 290.5,344.5 291.5,344.5C 290.432,345.434 289.099,345.768 287.5,345.5C 287.198,342.941 287.532,340.607 288.5,338.5 Z"/></g>
<g><path style="opacity:1" fill="#163971" d="M 295.5,327.5 C 293.091,329.902 291.091,332.569 289.5,335.5C 288.89,336.391 288.557,337.391 288.5,338.5C 287.532,340.607 287.198,342.941 287.5,345.5C 289.099,345.768 290.432,345.434 291.5,344.5C 293.028,343.198 294.028,341.531 294.5,339.5C 294.662,341.527 294.495,343.527 294,345.5C 292.294,346.308 291.461,347.641 291.5,349.5C 288.537,349.849 286.204,348.849 284.5,346.5C 285.874,341.686 287.207,336.853 288.5,332C 289.94,329.052 292.274,327.552 295.5,327.5 Z"/></g>
</svg>
