<?xml version="1.0" encoding="UTF-8"?>
<!DOCTYPE svg PUBLIC "-//W3C//DTD SVG 1.1//EN" "http://www.w3.org/Graphics/SVG/1.1/DTD/svg11.dtd">
<svg xmlns="http://www.w3.org/2000/svg" version="1.1" width="500px" height="500px" style="shape-rendering:geometricPrecision; text-rendering:geometricPrecision; image-rendering:optimizeQuality; fill-rule:evenodd; clip-rule:evenodd" xmlns:xlink="http://www.w3.org/1999/xlink">
<g><path style="opacity:1" fill="#fefefe" d="M -0.5,-0.5 C 166.167,-0.5 332.833,-0.5 499.5,-0.5C 499.5,166.167 499.5,332.833 499.5,499.5C 332.833,499.5 166.167,499.5 -0.5,499.5C -0.5,332.833 -0.5,166.167 -0.5,-0.5 Z"/></g>
<g><path style="opacity:1" fill="#2e6dae" d="M 148.5,142.5 C 215.834,142.333 283.167,142.5 350.5,143C 353.333,144.5 355.5,146.667 357,149.5C 357.667,215.833 357.667,282.167 357,348.5C 355.807,353.027 352.973,355.86 348.5,357C 282.167,357.667 215.833,357.667 149.5,357C 147.391,355.859 145.558,354.359 144,352.5C 142.34,284.582 142.007,216.582 143,148.5C 144.36,145.977 146.193,143.977 148.5,142.5 Z"/></g>
<g><path style="opacity:1" fill="#fafdfc" d="M 154.5,148.5 C 217.834,148.333 281.168,148.5 344.5,149C 346.286,149.785 347.786,150.951 349,152.5C 350.659,216.418 350.993,280.418 350,344.5C 349.226,346.939 347.726,348.773 345.5,350C 281.833,350.667 218.167,350.667 154.5,350C 152.714,349.215 151.214,348.049 150,346.5C 148.341,282.582 148.007,218.582 149,154.5C 150.36,151.977 152.193,149.977 154.5,148.5 Z"/></g>
<g><path style="opacity:1" fill="#1964aa" d="M 339.5,156.5 C 339.5,157.5 339.5,158.5 339.5,159.5C 341.124,159.36 342.29,160.027 343,161.5C 343.818,221.189 343.651,280.855 342.5,340.5C 341.657,342.173 340.324,343.34 338.5,344C 279.167,344.667 219.833,344.667 160.5,344C 157.619,342.749 155.786,340.583 155,337.5C 154.333,278.833 154.333,220.167 155,161.5C 156.122,159.376 157.622,157.543 159.5,156C 189.416,154.841 219.416,154.341 249.5,154.5C 278.833,154.667 308.167,154.833 337.5,155C 338.416,155.278 339.082,155.778 339.5,156.5 Z"/></g>
<g><path style="opacity:1" fill="#2a6daa" d="M 339.5,156.5 C 341.752,156.916 343.252,158.249 344,160.5C 344.667,219.833 344.667,279.167 344,338.5C 343.722,339.416 343.222,340.082 342.5,340.5C 343.651,280.855 343.818,221.189 343,161.5C 342.29,160.027 341.124,159.36 339.5,159.5C 339.5,158.5 339.5,157.5 339.5,156.5 Z"/></g>
<g><path style="opacity:1" fill="#f5f8f9" d="M 230.5,168.5 C 243.883,169.926 248.05,176.926 243,189.5C 235.628,196.436 228.628,196.103 222,188.5C 218.046,178.756 220.879,172.09 230.5,168.5 Z"/></g>
<g><path style="opacity:1" fill="#f7f9fa" d="M 224.5,260.5 C 225.824,248.993 225.824,237.327 224.5,225.5C 223.893,225.624 223.56,225.957 223.5,226.5C 220.629,231.578 218.295,236.912 216.5,242.5C 218.28,250.461 219.447,258.461 220,266.5C 216.219,271.201 212.219,271.534 208,267.5C 205.745,256.574 204.412,245.574 204,234.5C 209.587,224.994 214.92,215.327 220,205.5C 224.815,198.377 231.315,196.544 239.5,200C 252.785,215.407 265.952,230.907 279,246.5C 282.839,250.687 283.339,255.187 280.5,260C 278.305,261.373 275.971,261.706 273.5,261C 261.5,247 249.5,233 237.5,219C 236.365,218.251 235.365,218.417 234.5,219.5C 238.492,224.15 241.992,229.15 245,234.5C 245.812,245.206 245.478,255.873 244,266.5C 236.47,285.422 229.137,304.422 222,323.5C 219.752,329.233 215.586,331.067 209.5,329C 204.845,326.103 203.345,321.937 205,316.5C 211.53,299.911 217.863,283.245 224,266.5C 224.495,264.527 224.662,262.527 224.5,260.5 Z"/></g>
<g><path style="opacity:1" fill="#6999be" d="M 223.5,226.5 C 223.56,225.957 223.893,225.624 224.5,225.5C 225.824,237.327 225.824,248.993 224.5,260.5C 224.828,248.988 224.495,237.654 223.5,226.5 Z"/></g>
<g><path style="opacity:1" fill="#f6f8f9" d="M 246.5,269.5 C 253.071,285.36 259.571,301.36 266,317.5C 267.514,328.984 262.847,332.651 252,328.5C 246.235,315.541 241.902,302.207 239,288.5C 241.214,282.019 243.714,275.686 246.5,269.5 Z"/></g>
<g><path style="opacity:1" fill="#eef4f6" d="M 281.5,261.5 C 283.39,261.297 284.89,261.963 286,263.5C 298.183,285.01 310.35,306.51 322.5,328C 321.407,331.12 319.907,331.287 318,328.5C 306.414,308.997 295.081,289.33 284,269.5C 282.293,267.091 281.46,264.425 281.5,261.5 Z"/></g>
</svg>
