<?xml version="1.0" encoding="UTF-8"?>
<!DOCTYPE svg PUBLIC "-//W3C//DTD SVG 1.1//EN" "http://www.w3.org/Graphics/SVG/1.1/DTD/svg11.dtd">
<svg xmlns="http://www.w3.org/2000/svg" version="1.1" width="500px" height="500px" style="shape-rendering:geometricPrecision; text-rendering:geometricPrecision; image-rendering:optimizeQuality; fill-rule:evenodd; clip-rule:evenodd" xmlns:xlink="http://www.w3.org/1999/xlink">
<g><path style="opacity:1" fill="#fefefe" d="M -0.5,-0.5 C 166.167,-0.5 332.833,-0.5 499.5,-0.5C 499.5,166.167 499.5,332.833 499.5,499.5C 332.833,499.5 166.167,499.5 -0.5,499.5C -0.5,332.833 -0.5,166.167 -0.5,-0.5 Z"/></g>
<g><path style="opacity:1" fill="#0863b1" d="M 139.5,147.5 C 212.833,147.5 286.167,147.5 359.5,147.5C 359.5,215.5 359.5,283.5 359.5,351.5C 286.167,351.5 212.833,351.5 139.5,351.5C 139.5,283.5 139.5,215.5 139.5,147.5 Z"/></g>
<g><path style="opacity:1" fill="#e1e7e7" d="M 248.5,175.5 C 252.869,175.467 257.202,175.8 261.5,176.5C 261.5,177.167 261.5,177.833 261.5,178.5C 260.199,182.943 259.532,187.609 259.5,192.5C 257.763,198.051 256.429,203.718 255.5,209.5C 255.5,210.167 255.167,210.5 254.5,210.5C 253.764,212.229 252.43,213.229 250.5,213.5C 250.461,212.417 250.127,211.417 249.5,210.5C 247.192,209.848 245.525,208.515 244.5,206.5C 245.091,205.849 245.757,205.182 246.5,204.5C 245.143,202.435 243.81,200.435 242.5,198.5C 239.613,193.395 237.28,188.061 235.5,182.5C 236.5,181.167 237.5,179.833 238.5,178.5C 241.655,176.924 244.988,175.924 248.5,175.5 Z"/></g>
<g><path style="opacity:1" fill="#0b63af" d="M 244.5,178.5 C 249.167,178.5 253.833,178.5 258.5,178.5C 258.638,189.084 256.305,199.084 251.5,208.5C 246.187,200.708 241.521,192.542 237.5,184C 239.54,181.664 241.873,179.831 244.5,178.5 Z"/></g>
<g><path style="opacity:1" fill="#f7f126" d="M 261.5,178.5 C 262.943,179.335 263.943,180.668 264.5,182.5C 265.88,180.335 267.547,180.001 269.5,181.5C 269.5,182.167 269.5,182.833 269.5,183.5C 269.5,184.5 269.5,185.5 269.5,186.5C 268.5,186.5 267.5,186.5 266.5,186.5C 266.232,188.099 266.566,189.432 267.5,190.5C 267.5,192.167 267.5,193.833 267.5,195.5C 266.417,195.461 265.417,195.127 264.5,194.5C 263.833,195.5 263.167,196.5 262.5,197.5C 261.999,195.345 260.999,193.678 259.5,192.5C 259.532,187.609 260.199,182.943 261.5,178.5 Z"/></g>
<g><path style="opacity:1" fill="#a1c7dd" d="M 222.5,183.5 C 222.065,185.703 222.065,187.703 222.5,189.5C 222.335,192.518 222.502,195.518 223,198.5C 224.883,199.653 225.716,201.319 225.5,203.5C 225.5,203.833 225.5,204.167 225.5,204.5C 224.391,204.557 223.391,204.89 222.5,205.5C 221.674,200.684 221.174,195.684 221,190.5C 219.661,195.736 219.161,201.07 219.5,206.5C 217.621,198.493 218.621,190.826 222.5,183.5 Z"/></g>
<g><path style="opacity:1" fill="#453fae" d="M 274.5,180.5 C 275.705,181.672 275.705,183.005 274.5,184.5C 275.34,185.735 276.34,186.735 277.5,187.5C 277.205,189.735 277.539,191.735 278.5,193.5C 278.5,194.5 278.5,195.5 278.5,196.5C 277.5,196.5 276.5,196.5 275.5,196.5C 275.5,198.167 275.5,199.833 275.5,201.5C 271.726,201.516 270.726,199.85 272.5,196.5C 272.043,195.702 271.376,195.369 270.5,195.5C 268.972,194.198 267.972,192.531 267.5,190.5C 266.566,189.432 266.232,188.099 266.5,186.5C 267.5,186.5 268.5,186.5 269.5,186.5C 269.5,185.5 269.5,184.5 269.5,183.5C 270.5,183.5 271.5,183.5 272.5,183.5C 272.285,181.821 272.952,180.821 274.5,180.5 Z"/></g>
<g><path style="opacity:1" fill="#463eb2" d="M 229.5,184.5 C 230.928,186.444 232.761,188.111 235,189.5C 235.393,191.199 234.893,192.699 233.5,194C 234.233,195.766 234.567,197.599 234.5,199.5C 232.5,198.833 230.5,198.167 228.5,197.5C 230.263,200.762 229.263,202.762 225.5,203.5C 225.716,201.319 224.883,199.653 223,198.5C 222.502,195.518 222.335,192.518 222.5,189.5C 223.401,188.71 224.068,187.71 224.5,186.5C 225.859,187.007 226.859,188.007 227.5,189.5C 228.17,187.709 228.837,186.042 229.5,184.5 Z"/></g>
<g><path style="opacity:1" fill="#dc5b62" d="M 277.5,187.5 C 278.947,188.134 279.613,189.301 279.5,191C 279.472,192.07 279.139,192.903 278.5,193.5C 277.539,191.735 277.205,189.735 277.5,187.5 Z"/></g>
<g><path style="opacity:1" fill="#eb1b10" d="M 233.5,181.5 C 234.167,181.833 234.833,182.167 235.5,182.5C 237.28,188.061 239.613,193.395 242.5,198.5C 240.402,199.914 239.402,199.248 239.5,196.5C 235.203,197.288 234.37,199.621 237,203.5C 238.342,202.098 239.176,202.431 239.5,204.5C 238.963,205.741 238.296,206.908 237.5,208C 238.414,209.406 239.08,210.906 239.5,212.5C 236.508,213.132 235.841,214.799 237.5,217.5C 237,217.833 236.5,218.167 236,218.5C 234.021,216.405 231.854,216.072 229.5,217.5C 229.733,214.046 228.4,213.046 225.5,214.5C 224.766,213.292 224.433,211.959 224.5,210.5C 226.662,208.831 226.995,206.831 225.5,204.5C 225.5,204.167 225.5,203.833 225.5,203.5C 229.263,202.762 230.263,200.762 228.5,197.5C 230.5,198.167 232.5,198.833 234.5,199.5C 234.567,197.599 234.233,195.766 233.5,194C 234.893,192.699 235.393,191.199 235,189.5C 232.761,188.111 230.928,186.444 229.5,184.5C 230.167,183.833 230.833,183.167 231.5,182.5C 232.492,182.672 233.158,182.338 233.5,181.5 Z"/></g>
<g><path style="opacity:1" fill="#e9eeef" d="M 219.5,206.5 C 219.161,201.07 219.661,195.736 221,190.5C 221.174,195.684 221.674,200.684 222.5,205.5C 222.402,207.553 223.069,209.22 224.5,210.5C 224.433,211.959 224.766,213.292 225.5,214.5C 225.229,216.38 225.896,217.713 227.5,218.5C 227.595,220.786 228.262,222.786 229.5,224.5C 229.433,225.959 229.766,227.292 230.5,228.5C 230.992,230.819 231.992,232.819 233.5,234.5C 234.296,237.556 235.296,240.556 236.5,243.5C 236.248,245.073 235.582,246.406 234.5,247.5C 231.474,251.205 228.808,255.205 226.5,259.5C 223.004,263.819 220.004,268.485 217.5,273.5C 213.472,277.184 210.139,281.518 207.5,286.5C 205.252,289.328 203.252,292.328 201.5,295.5C 198.305,298.404 196.972,302.071 197.5,306.5C 199.074,311.32 201.407,315.653 204.5,319.5C 204.229,321.38 204.896,322.713 206.5,323.5C 206.409,325.698 207.075,326.031 208.5,324.5C 208.285,326.179 208.952,327.179 210.5,327.5C 210.5,327.833 210.5,328.167 210.5,328.5C 209.903,328.735 209.57,329.235 209.5,330C 210.348,331.666 211.348,333.166 212.5,334.5C 212.572,336.311 213.405,337.644 215,338.5C 216.935,336.966 218.101,334.966 218.5,332.5C 221.329,329.213 222.662,325.546 222.5,321.5C 223.675,321.719 224.675,321.386 225.5,320.5C 227.962,315.743 230.295,310.91 232.5,306C 231.944,305.617 231.611,305.117 231.5,304.5C 233.796,303.267 235.13,301.267 235.5,298.5C 236.401,297.71 237.068,296.71 237.5,295.5C 238.153,294.193 238.82,292.86 239.5,291.5C 239.376,290.893 239.043,290.56 238.5,290.5C 238.5,290.167 238.5,289.833 238.5,289.5C 242.171,288.816 243.171,286.816 241.5,283.5C 242.37,281.474 243.87,280.141 246,279.5C 246.791,278.255 247.291,276.922 247.5,275.5C 248.73,273.703 249.396,271.703 249.5,269.5C 250.143,271.076 251.143,272.41 252.5,273.5C 255.044,279.692 258.377,285.359 262.5,290.5C 264.446,294.439 266.779,298.106 269.5,301.5C 271.775,305.615 274.275,309.615 277,313.5C 277.77,314.598 278.603,314.598 279.5,313.5C 279.519,315.06 279.852,316.56 280.5,318C 283.173,321.338 285.839,324.671 288.5,328C 289.449,328.617 290.282,328.451 291,327.5C 292.094,325.922 292.928,324.255 293.5,322.5C 296.278,319.279 298.278,315.612 299.5,311.5C 301.727,310.599 302.727,308.933 302.5,306.5C 304.599,305.63 304.932,304.297 303.5,302.5C 304.5,301.667 305.5,300.833 306.5,300C 305.624,298.414 304.624,296.914 303.5,295.5C 304.167,294.833 304.833,294.167 305.5,293.5C 303.434,292.094 301.268,290.76 299,289.5C 298.316,288.216 298.483,287.049 299.5,286C 297.93,284.603 296.596,283.103 295.5,281.5C 294.833,280.167 293.833,279.167 292.5,278.5C 292.33,275.796 290.997,274.129 288.5,273.5C 288.167,273.5 287.833,273.5 287.5,273.5C 286.217,271.394 285.384,269.06 285,266.5C 284,265.833 283,265.167 282,264.5C 281.284,262.121 280.117,260.121 278.5,258.5C 276.913,254.317 274.579,250.65 271.5,247.5C 269.766,243.7 267.766,240.034 265.5,236.5C 265.5,235.5 265.5,234.5 265.5,233.5C 267.794,230.63 269.128,227.297 269.5,223.5C 271.794,220.63 273.128,217.297 273.5,213.5C 275.01,210.317 276.343,206.984 277.5,203.5C 278.219,201.236 278.552,198.903 278.5,196.5C 278.5,195.5 278.5,194.5 278.5,193.5C 279.139,192.903 279.472,192.07 279.5,191C 279.613,189.301 278.947,188.134 277.5,187.5C 276.34,186.735 275.34,185.735 274.5,184.5C 275.705,183.005 275.705,181.672 274.5,180.5C 274.573,178.973 273.906,177.973 272.5,177.5C 268.909,173.242 264.909,169.242 260.5,165.5C 260.5,164.833 260.167,164.5 259.5,164.5C 259.158,163.662 258.492,163.328 257.5,163.5C 254.754,161.874 251.754,161.207 248.5,161.5C 245.432,161.547 242.432,162.047 239.5,163C 238.058,163.377 237.058,164.21 236.5,165.5C 236.167,165.5 235.833,165.5 235.5,165.5C 233.736,166.326 232.402,167.659 231.5,169.5C 231.5,170.167 231.5,170.833 231.5,171.5C 229.707,173.426 228.707,175.759 228.5,178.5C 226.127,180.579 224.794,183.246 224.5,186.5C 224.068,187.71 223.401,188.71 222.5,189.5C 222.065,187.703 222.065,185.703 222.5,183.5C 224.794,175.414 228.794,168.247 234.5,162C 243.564,156.314 252.564,156.314 261.5,162C 270.56,168.386 277.393,176.552 282,186.5C 282.667,191.167 282.667,195.833 282,200.5C 278.396,211.311 274.396,221.977 270,232.5C 269.333,234.5 269.333,236.5 270,238.5C 282.255,258.519 296.089,277.352 311.5,295C 306.021,309.127 298.855,322.294 290,334.5C 275.685,316.538 262.352,297.871 250,278.5C 238.791,299.586 228.124,320.919 218,342.5C 216.692,344.641 215.192,346.641 213.5,348.5C 211.84,345.353 210.673,342.02 210,338.5C 204.553,329.94 199.886,320.94 196,311.5C 193.362,304.568 194.362,298.234 199,292.5C 210.791,276.415 221.958,259.915 232.5,243C 227.458,231.037 223.124,218.87 219.5,206.5 Z"/></g>
<g><path style="opacity:1" fill="#ba3137" d="M 238.5,290.5 C 239.043,290.56 239.376,290.893 239.5,291.5C 238.82,292.86 238.153,294.193 237.5,295.5C 236.903,295.265 236.57,294.765 236.5,294C 236.978,292.697 237.645,291.531 238.5,290.5 Z"/></g>
<g><path style="opacity:1" fill="#ea1812" d="M 295.5,281.5 C 296.596,283.103 297.93,284.603 299.5,286C 298.483,287.049 298.316,288.216 299,289.5C 301.268,290.76 303.434,292.094 305.5,293.5C 304.833,294.167 304.167,294.833 303.5,295.5C 304.624,296.914 305.624,298.414 306.5,300C 305.5,300.833 304.5,301.667 303.5,302.5C 304.932,304.297 304.599,305.63 302.5,306.5C 300.77,303.892 298.937,303.892 297,306.5C 297.058,308.435 297.891,310.102 299.5,311.5C 298.278,315.612 296.278,319.279 293.5,322.5C 288.947,324.111 287.614,322.611 289.5,318C 289.022,316.697 288.355,315.531 287.5,314.5C 287.5,314.167 287.5,313.833 287.5,313.5C 290.297,312.645 290.964,310.979 289.5,308.5C 290,308.167 290.5,307.833 291,307.5C 292.3,308.707 293.8,309.374 295.5,309.5C 295.613,306.951 294.946,304.618 293.5,302.5C 295.268,298.708 294.268,297.374 290.5,298.5C 289.476,297.148 288.476,295.815 287.5,294.5C 288.191,292.978 289.358,291.978 291,291.5C 292.3,292.707 293.8,293.374 295.5,293.5C 296.29,289.314 296.29,285.314 295.5,281.5 Z"/></g>
<g><path style="opacity:1" fill="#228ab5" d="M 231.5,283.5 C 231.833,283.5 232.167,283.5 232.5,283.5C 233.511,286.018 234.844,286.018 236.5,283.5C 237.452,284.533 237.452,285.7 236.5,287C 236.639,288.301 237.305,289.134 238.5,289.5C 238.5,289.833 238.5,290.167 238.5,290.5C 237.645,291.531 236.978,292.697 236.5,294C 236.57,294.765 236.903,295.265 237.5,295.5C 237.068,296.71 236.401,297.71 235.5,298.5C 233.084,298.961 231.25,300.294 230,302.5C 226.899,301.291 226.732,299.625 229.5,297.5C 227.227,297.864 224.894,297.864 222.5,297.5C 222.5,296.833 222.5,296.167 222.5,295.5C 224.537,293.359 227.037,292.026 230,291.5C 230.311,290.258 229.811,289.258 228.5,288.5C 229.763,286.971 230.763,285.305 231.5,283.5 Z"/></g>
<g><path style="opacity:1" fill="#ee270b" d="M 215.5,289.5 C 215.5,290.167 215.5,290.833 215.5,291.5C 214.067,292.833 212.733,294.333 211.5,296C 209.925,295.621 208.425,295.788 207,296.5C 208.262,299.546 207.428,301.88 204.5,303.5C 203.504,303.586 202.671,303.252 202,302.5C 202.522,300.12 202.355,297.787 201.5,295.5C 203.252,292.328 205.252,289.328 207.5,286.5C 209.011,285.498 210.678,284.831 212.5,284.5C 212.167,286.5 211.833,288.5 211.5,290.5C 212.959,290.567 214.292,290.234 215.5,289.5 Z"/></g>
<g><path style="opacity:1" fill="#4140b1" d="M 231.5,283.5 C 230.763,285.305 229.763,286.971 228.5,288.5C 229.811,289.258 230.311,290.258 230,291.5C 227.037,292.026 224.537,293.359 222.5,295.5C 220.471,294.149 218.638,294.482 217,296.5C 216.5,296.167 216,295.833 215.5,295.5C 218.106,294.076 218.106,292.743 215.5,291.5C 215.5,290.833 215.5,290.167 215.5,289.5C 215.953,288.542 216.619,287.708 217.5,287C 221.624,287.829 222.958,286.162 221.5,282C 221.639,280.699 222.305,279.866 223.5,279.5C 223.833,279.5 224.167,279.5 224.5,279.5C 226.484,279.617 228.15,278.95 229.5,277.5C 230.547,278.922 230.547,280.422 229.5,282C 229.836,283.03 230.503,283.53 231.5,283.5 Z"/></g>
<g><path style="opacity:1" fill="#f2f217" d="M 277.5,281.5 C 278.496,281.414 279.329,281.748 280,282.5C 280.334,284.847 280.167,287.181 279.5,289.5C 283.851,288.533 286.185,290.2 286.5,294.5C 284.16,295.572 283.827,297.239 285.5,299.5C 285,299.833 284.5,300.167 284,300.5C 282.908,299.704 281.741,299.037 280.5,298.5C 279.584,298.543 278.917,298.876 278.5,299.5C 277.833,299.833 277.167,300.167 276.5,300.5C 276.703,298.61 276.037,297.11 274.5,296C 272.925,296.379 271.425,296.212 270,295.5C 269.873,294.223 270.373,293.057 271.5,292C 270.711,290.374 269.711,288.874 268.5,287.5C 271.357,285.242 274.357,283.242 277.5,281.5 Z"/></g>
<g><path style="opacity:1" fill="#268fb4" d="M 287.5,273.5 C 287.833,273.5 288.167,273.5 288.5,273.5C 289.604,275.389 290.937,277.055 292.5,278.5C 293.833,279.167 294.833,280.167 295.5,281.5C 296.29,285.314 296.29,289.314 295.5,293.5C 293.8,293.374 292.3,292.707 291,291.5C 289.358,291.978 288.191,292.978 287.5,294.5C 287.167,294.5 286.833,294.5 286.5,294.5C 286.185,290.2 283.851,288.533 279.5,289.5C 280.167,287.181 280.334,284.847 280,282.5C 279.329,281.748 278.496,281.414 277.5,281.5C 277.5,281.167 277.5,280.833 277.5,280.5C 281.609,279.126 284.943,276.792 287.5,273.5 Z"/></g>
<g><path style="opacity:1" fill="#efef2a" d="M 217.5,273.5 C 216.403,277.871 217.736,278.538 221.5,275.5C 223.111,276.32 223.778,277.654 223.5,279.5C 222.305,279.866 221.639,280.699 221.5,282C 222.958,286.162 221.624,287.829 217.5,287C 216.619,287.708 215.953,288.542 215.5,289.5C 214.292,290.234 212.959,290.567 211.5,290.5C 211.833,288.5 212.167,286.5 212.5,284.5C 210.678,284.831 209.011,285.498 207.5,286.5C 210.139,281.518 213.472,277.184 217.5,273.5 Z"/></g>
<g><path style="opacity:1" fill="#b24948" d="M 288.5,273.5 C 290.997,274.129 292.33,275.796 292.5,278.5C 290.937,277.055 289.604,275.389 288.5,273.5 Z"/></g>
<g><path style="opacity:1" fill="#ed170e" d="M 271.5,247.5 C 274.579,250.65 276.913,254.317 278.5,258.5C 279.171,259.847 279.171,261.014 278.5,262C 276.481,261.848 274.481,261.348 272.5,260.5C 274.347,264.151 273.347,266.818 269.5,268.5C 269.833,269.167 270.167,269.833 270.5,270.5C 272.341,271.23 274.175,271.897 276,272.5C 276.658,274.108 276.158,275.275 274.5,276C 275.386,277.615 276.386,279.115 277.5,280.5C 277.5,280.833 277.5,281.167 277.5,281.5C 274.357,283.242 271.357,285.242 268.5,287.5C 269.711,288.874 270.711,290.374 271.5,292C 270.373,293.057 269.873,294.223 270,295.5C 271.425,296.212 272.925,296.379 274.5,296C 276.037,297.11 276.703,298.61 276.5,300.5C 274.849,303.127 273.016,303.127 271,300.5C 270.235,300.57 269.735,300.903 269.5,301.5C 266.779,298.106 264.446,294.439 262.5,290.5C 268.289,288.63 268.789,285.964 264,282.5C 262.85,283.424 261.85,283.424 261,282.5C 262.41,279.06 261.577,276.227 258.5,274C 259.399,272.764 260.566,271.93 262,271.5C 263.093,273.298 264.593,274.132 266.5,274C 266.957,273.586 267.291,273.086 267.5,272.5C 266.689,271.784 266.022,270.95 265.5,270C 268.842,268.003 269.176,265.67 266.5,263C 261.464,263.936 260.464,262.27 263.5,258C 262.685,256.357 261.685,254.857 260.5,253.5C 261.822,253.67 262.989,253.337 264,252.5C 263.872,250.555 264.038,248.722 264.5,247C 266.391,246.691 267.725,247.525 268.5,249.5C 269.739,249.058 270.739,248.391 271.5,247.5 Z"/></g>
<g><path style="opacity:1" fill="#e4ee24" d="M 249.5,260.5 C 250.644,262.1 251.811,263.767 253,265.5C 254.826,264.159 255.993,264.659 256.5,267C 256.167,268 255.833,269 255.5,270C 257.029,271.582 257.529,273.415 257,275.5C 256.586,275.957 256.086,276.291 255.5,276.5C 254.859,275.007 253.859,274.007 252.5,273.5C 251.143,272.41 250.143,271.076 249.5,269.5C 248.949,266.944 247.949,264.611 246.5,262.5C 247.29,261.599 248.29,260.932 249.5,260.5 Z"/></g>
<g><path style="opacity:1" fill="#eeef26" d="M 247.5,275.5 C 247.291,276.922 246.791,278.255 246,279.5C 243.87,280.141 242.37,281.474 241.5,283.5C 243.171,286.816 242.171,288.816 238.5,289.5C 237.305,289.134 236.639,288.301 236.5,287C 237.452,285.7 237.452,284.533 236.5,283.5C 234.844,286.018 233.511,286.018 232.5,283.5C 233.028,282.279 233.695,281.113 234.5,280C 235.825,280.148 236.992,279.982 238,279.5C 239.236,277.693 239.57,275.693 239,273.5C 239.708,272.619 240.542,271.953 241.5,271.5C 243.561,272.682 245.061,272.015 246,269.5C 247.836,271.07 247.67,272.57 245.5,274C 245.836,275.03 246.503,275.53 247.5,275.5 Z"/></g>
<g><path style="opacity:1" fill="#49397d" d="M 244.5,261.5 C 245.167,261.833 245.833,262.167 246.5,262.5C 247.949,264.611 248.949,266.944 249.5,269.5C 249.396,271.703 248.73,273.703 247.5,275.5C 246.503,275.53 245.836,275.03 245.5,274C 247.67,272.57 247.836,271.07 246,269.5C 245.061,272.015 243.561,272.682 241.5,271.5C 241.5,270.833 241.5,270.167 241.5,269.5C 242.812,268.855 243.812,267.855 244.5,266.5C 243.185,264.801 243.185,263.135 244.5,261.5 Z"/></g>
<g><path style="opacity:1" fill="#433eb6" d="M 278.5,258.5 C 280.117,260.121 281.284,262.121 282,264.5C 283,265.167 284,265.833 285,266.5C 285.384,269.06 286.217,271.394 287.5,273.5C 284.943,276.792 281.609,279.126 277.5,280.5C 276.386,279.115 275.386,277.615 274.5,276C 276.158,275.275 276.658,274.108 276,272.5C 274.175,271.897 272.341,271.23 270.5,270.5C 270.167,269.833 269.833,269.167 269.5,268.5C 273.347,266.818 274.347,264.151 272.5,260.5C 274.481,261.348 276.481,261.848 278.5,262C 279.171,261.014 279.171,259.847 278.5,258.5 Z"/></g>
<g><path style="opacity:1" fill="#ea1f0f" d="M 241.5,245.5 C 242.167,245.5 242.833,245.5 243.5,245.5C 243.389,246.117 243.056,246.617 242.5,247C 243.574,247.739 244.241,248.739 244.5,250C 243.591,251.789 243.424,253.623 244,255.5C 245.008,255.982 246.175,256.148 247.5,256C 248.823,256.816 249.489,257.983 249.5,259.5C 249.5,259.833 249.5,260.167 249.5,260.5C 248.29,260.932 247.29,261.599 246.5,262.5C 245.833,262.167 245.167,261.833 244.5,261.5C 243.648,258.777 242.481,256.11 241,253.5C 240.167,254.5 239.333,255.5 238.5,256.5C 237.575,255.359 236.741,255.359 236,256.5C 235.316,257.784 235.483,258.951 236.5,260C 234.108,262.273 234.108,264.44 236.5,266.5C 235.833,267.5 235.167,268.5 234.5,269.5C 236.625,268.701 238.959,268.701 241.5,269.5C 241.5,270.167 241.5,270.833 241.5,271.5C 240.542,271.953 239.708,272.619 239,273.5C 239.57,275.693 239.236,277.693 238,279.5C 236.992,279.982 235.825,280.148 234.5,280C 233.695,281.113 233.028,282.279 232.5,283.5C 232.167,283.5 231.833,283.5 231.5,283.5C 230.503,283.53 229.836,283.03 229.5,282C 230.547,280.422 230.547,278.922 229.5,277.5C 228.15,278.95 226.484,279.617 224.5,279.5C 225.259,277.564 226.259,275.731 227.5,274C 226.852,272.56 226.519,271.06 226.5,269.5C 229.99,269.849 232.323,268.349 233.5,265C 231.523,262.004 229.357,261.837 227,264.5C 226.5,264.167 226,263.833 225.5,263.5C 226.167,262.5 226.833,261.5 227.5,260.5C 227.376,259.893 227.043,259.56 226.5,259.5C 228.808,255.205 231.474,251.205 234.5,247.5C 235.496,247.586 236.329,247.252 237,246.5C 237.29,248.044 237.956,249.377 239,250.5C 239.366,248.548 240.199,246.882 241.5,245.5 Z"/></g>
<g><path style="opacity:1" fill="#328dad" d="M 226.5,259.5 C 227.043,259.56 227.376,259.893 227.5,260.5C 226.833,261.5 226.167,262.5 225.5,263.5C 226,263.833 226.5,264.167 227,264.5C 229.357,261.837 231.523,262.004 233.5,265C 232.323,268.349 229.99,269.849 226.5,269.5C 226.519,271.06 226.852,272.56 227.5,274C 226.259,275.731 225.259,277.564 224.5,279.5C 224.167,279.5 223.833,279.5 223.5,279.5C 223.778,277.654 223.111,276.32 221.5,275.5C 217.736,278.538 216.403,277.871 217.5,273.5C 220.004,268.485 223.004,263.819 226.5,259.5 Z"/></g>
<g><path style="opacity:1" fill="#2a8eb3" d="M 259.5,253.5 C 259.833,253.5 260.167,253.5 260.5,253.5C 261.685,254.857 262.685,256.357 263.5,258C 260.464,262.27 261.464,263.936 266.5,263C 269.176,265.67 268.842,268.003 265.5,270C 266.022,270.95 266.689,271.784 267.5,272.5C 267.291,273.086 266.957,273.586 266.5,274C 264.593,274.132 263.093,273.298 262,271.5C 260.566,271.93 259.399,272.764 258.5,274C 261.577,276.227 262.41,279.06 261,282.5C 261.85,283.424 262.85,283.424 264,282.5C 268.789,285.964 268.289,288.63 262.5,290.5C 258.377,285.359 255.044,279.692 252.5,273.5C 253.859,274.007 254.859,275.007 255.5,276.5C 256.086,276.291 256.586,275.957 257,275.5C 257.529,273.415 257.029,271.582 255.5,270C 255.833,269 256.167,268 256.5,267C 255.993,264.659 254.826,264.159 253,265.5C 251.811,263.767 250.644,262.1 249.5,260.5C 249.5,260.167 249.5,259.833 249.5,259.5C 250.817,259.179 252.151,258.846 253.5,258.5C 255.056,259.547 256.723,260.214 258.5,260.5C 258.579,259.07 258.246,257.736 257.5,256.5C 258.193,255.482 258.859,254.482 259.5,253.5 Z"/></g>
<g><path style="opacity:1" fill="#eae211" d="M 244.5,261.5 C 243.185,263.135 243.185,264.801 244.5,266.5C 243.812,267.855 242.812,268.855 241.5,269.5C 238.959,268.701 236.625,268.701 234.5,269.5C 235.167,268.5 235.833,267.5 236.5,266.5C 234.108,264.44 234.108,262.273 236.5,260C 235.483,258.951 235.316,257.784 236,256.5C 236.741,255.359 237.575,255.359 238.5,256.5C 239.333,255.5 240.167,254.5 241,253.5C 242.481,256.11 243.648,258.777 244.5,261.5 Z"/></g>
<g><path style="opacity:1" fill="#6d6958" d="M 258.5,245.5 C 259.291,247.309 259.291,249.309 258.5,251.5C 259.291,249.309 259.291,247.309 258.5,245.5 Z"/></g>
<g><path style="opacity:1" fill="#423fb3" d="M 252.5,240.5 C 252.833,240.5 253.167,240.5 253.5,240.5C 253.421,241.93 253.754,243.264 254.5,244.5C 255.905,244.76 257.238,245.093 258.5,245.5C 257.427,247.653 257.427,249.653 258.5,251.5C 258.833,252.167 259.167,252.833 259.5,253.5C 258.859,254.482 258.193,255.482 257.5,256.5C 258.246,257.736 258.579,259.07 258.5,260.5C 256.723,260.214 255.056,259.547 253.5,258.5C 252.151,258.846 250.817,259.179 249.5,259.5C 249.489,257.983 248.823,256.816 247.5,256C 246.175,256.148 245.008,255.982 244,255.5C 243.424,253.623 243.591,251.789 244.5,250C 244.241,248.739 243.574,247.739 242.5,247C 243.056,246.617 243.389,246.117 243.5,245.5C 245.529,244.149 247.362,244.482 249,246.5C 249.5,246.167 250,245.833 250.5,245.5C 248.841,242.799 249.508,241.132 252.5,240.5 Z"/></g>
<g><path style="opacity:1" fill="#533ba2" d="M 235.5,233.5 C 235.813,236.423 237.146,237.423 239.5,236.5C 240.606,238.284 240.606,240.118 239.5,242C 239.808,243.459 240.475,244.626 241.5,245.5C 240.199,246.882 239.366,248.548 239,250.5C 237.956,249.377 237.29,248.044 237,246.5C 236.329,247.252 235.496,247.586 234.5,247.5C 235.582,246.406 236.248,245.073 236.5,243.5C 235.296,240.556 234.296,237.556 233.5,234.5C 234.167,234.167 234.833,233.833 235.5,233.5 Z"/></g>
<g><path style="opacity:1" fill="#f7f217" d="M 265.5,236.5 C 267.766,240.034 269.766,243.7 271.5,247.5C 270.739,248.391 269.739,249.058 268.5,249.5C 267.725,247.525 266.391,246.691 264.5,247C 264.038,248.722 263.872,250.555 264,252.5C 262.989,253.337 261.822,253.67 260.5,253.5C 260.167,253.5 259.833,253.5 259.5,253.5C 259.167,252.833 258.833,252.167 258.5,251.5C 257.427,249.653 257.427,247.653 258.5,245.5C 257.238,245.093 255.905,244.76 254.5,244.5C 253.754,243.264 253.421,241.93 253.5,240.5C 256.709,239.987 257.709,238.32 256.5,235.5C 257.999,233.198 259.332,233.531 260.5,236.5C 262.199,235.185 263.865,235.185 265.5,236.5 Z"/></g>
<g><path style="opacity:1" fill="#eeed1d" d="M 246.5,226.5 C 246.92,228.094 247.586,229.594 248.5,231C 245.597,234.673 246.263,236.34 250.5,236C 252.037,237.11 252.703,238.61 252.5,240.5C 249.508,241.132 248.841,242.799 250.5,245.5C 250,245.833 249.5,246.167 249,246.5C 247.362,244.482 245.529,244.149 243.5,245.5C 242.833,245.5 242.167,245.5 241.5,245.5C 240.475,244.626 239.808,243.459 239.5,242C 240.606,240.118 240.606,238.284 239.5,236.5C 237.146,237.423 235.813,236.423 235.5,233.5C 235.5,232.833 235.5,232.167 235.5,231.5C 235.833,231.5 236.167,231.5 236.5,231.5C 237.496,231.586 238.329,231.252 239,230.5C 239.567,232.983 240.733,233.65 242.5,232.5C 242.929,231.047 243.096,229.381 243,227.5C 244.011,226.663 245.178,226.33 246.5,226.5 Z"/></g>
<g><path style="opacity:1" fill="#70a95b" d="M 242.5,232.5 C 240.733,233.65 239.567,232.983 239,230.5C 238.329,231.252 237.496,231.586 236.5,231.5C 238.863,228.832 240.863,229.165 242.5,232.5 Z"/></g>
<g><path style="opacity:1" fill="#ce2026" d="M 235.5,231.5 C 235.5,232.167 235.5,232.833 235.5,233.5C 234.833,233.833 234.167,234.167 233.5,234.5C 231.992,232.819 230.992,230.819 230.5,228.5C 233.271,227.227 234.938,228.227 235.5,231.5 Z"/></g>
<g><path style="opacity:1" fill="#ec1b0c" d="M 259.5,226.5 C 260.151,229.83 261.484,230.163 263.5,227.5C 264.169,229.631 264.835,231.631 265.5,233.5C 265.5,234.5 265.5,235.5 265.5,236.5C 263.865,235.185 262.199,235.185 260.5,236.5C 259.332,233.531 257.999,233.198 256.5,235.5C 257.709,238.32 256.709,239.987 253.5,240.5C 253.167,240.5 252.833,240.5 252.5,240.5C 252.703,238.61 252.037,237.11 250.5,236C 246.263,236.34 245.597,234.673 248.5,231C 247.586,229.594 246.92,228.094 246.5,226.5C 246.5,226.167 246.5,225.833 246.5,225.5C 248.854,224.072 251.021,224.405 253,226.5C 253.5,226.167 254,225.833 254.5,225.5C 253.754,224.264 253.421,222.93 253.5,221.5C 256.116,222.363 258.116,224.03 259.5,226.5 Z"/></g>
<g><path style="opacity:1" fill="#248cb5" d="M 239.5,212.5 C 240.167,212.5 240.833,212.5 241.5,212.5C 241.269,215.645 240.769,218.645 240,221.5C 241.425,222.212 242.925,222.379 244.5,222C 245.085,223.302 245.751,224.469 246.5,225.5C 246.5,225.833 246.5,226.167 246.5,226.5C 245.178,226.33 244.011,226.663 243,227.5C 243.096,229.381 242.929,231.047 242.5,232.5C 240.863,229.165 238.863,228.832 236.5,231.5C 236.167,231.5 235.833,231.5 235.5,231.5C 234.938,228.227 233.271,227.227 230.5,228.5C 229.766,227.292 229.433,225.959 229.5,224.5C 232.019,222.641 232.019,220.641 229.5,218.5C 229.5,218.167 229.5,217.833 229.5,217.5C 231.854,216.072 234.021,216.405 236,218.5C 236.5,218.167 237,217.833 237.5,217.5C 235.841,214.799 236.508,213.132 239.5,212.5 Z"/></g>
<g><path style="opacity:1" fill="#2884ae" d="M 263.5,212.5 C 263.833,212.5 264.167,212.5 264.5,212.5C 264.5,212.833 264.5,213.167 264.5,213.5C 265.926,214.341 267.26,215.341 268.5,216.5C 269.167,216.833 269.833,217.167 270.5,217.5C 269.659,219.379 269.325,221.379 269.5,223.5C 269.128,227.297 267.794,230.63 265.5,233.5C 264.835,231.631 264.169,229.631 263.5,227.5C 261.484,230.163 260.151,229.83 259.5,226.5C 259.351,225.448 259.517,224.448 260,223.5C 261.845,222.95 263.345,221.95 264.5,220.5C 262.232,218.09 261.899,215.423 263.5,212.5 Z"/></g>
<g><path style="opacity:1" fill="#3e3caa" d="M 244.5,206.5 C 245.525,208.515 247.192,209.848 249.5,210.5C 250.127,211.417 250.461,212.417 250.5,213.5C 251.215,215.56 252.549,217.226 254.5,218.5C 255.205,215.911 255.205,213.244 254.5,210.5C 255.167,210.5 255.5,210.167 255.5,209.5C 256.5,209.5 257.5,209.5 258.5,209.5C 258.5,208.5 258.5,207.5 258.5,206.5C 259.675,206.281 260.675,206.614 261.5,207.5C 259.841,210.201 260.508,211.868 263.5,212.5C 261.899,215.423 262.232,218.09 264.5,220.5C 263.345,221.95 261.845,222.95 260,223.5C 259.517,224.448 259.351,225.448 259.5,226.5C 258.116,224.03 256.116,222.363 253.5,221.5C 253.421,222.93 253.754,224.264 254.5,225.5C 254,225.833 253.5,226.167 253,226.5C 251.021,224.405 248.854,224.072 246.5,225.5C 245.751,224.469 245.085,223.302 244.5,222C 242.925,222.379 241.425,222.212 240,221.5C 240.769,218.645 241.269,215.645 241.5,212.5C 242.87,212.144 243.87,211.31 244.5,210C 243.485,208.627 243.485,207.46 244.5,206.5 Z"/></g>
<g><path style="opacity:1" fill="#dd1616" d="M 227.5,218.5 C 228.167,218.5 228.833,218.5 229.5,218.5C 232.019,220.641 232.019,222.641 229.5,224.5C 228.262,222.786 227.595,220.786 227.5,218.5 Z"/></g>
<g><path style="opacity:1" fill="#765863" d="M 271.5,210.5 C 273.048,210.821 273.715,211.821 273.5,213.5C 273.128,217.297 271.794,220.63 269.5,223.5C 269.325,221.379 269.659,219.379 270.5,217.5C 272.591,215.458 272.924,213.125 271.5,210.5 Z"/></g>
<g><path style="opacity:1" fill="#f9e91e" d="M 229.5,217.5 C 229.5,217.833 229.5,218.167 229.5,218.5C 228.833,218.5 228.167,218.5 227.5,218.5C 225.896,217.713 225.229,216.38 225.5,214.5C 228.4,213.046 229.733,214.046 229.5,217.5 Z"/></g>
<g><path style="opacity:1" fill="#b4b342" d="M 254.5,210.5 C 255.205,213.244 255.205,215.911 254.5,218.5C 252.549,217.226 251.215,215.56 250.5,213.5C 252.43,213.229 253.764,212.229 254.5,210.5 Z"/></g>
<g><path style="opacity:1" fill="#459d6d" d="M 268.5,216.5 C 267.26,215.341 265.926,214.341 264.5,213.5C 265.859,212.993 266.859,211.993 267.5,210.5C 268.466,212.396 268.799,214.396 268.5,216.5 Z"/></g>
<g><path style="opacity:1" fill="#4541a2" d="M 275.5,202.5 C 276.167,202.833 276.833,203.167 277.5,203.5C 276.343,206.984 275.01,210.317 273.5,213.5C 273.715,211.821 273.048,210.821 271.5,210.5C 271.5,209.5 271.5,208.5 271.5,207.5C 272.5,207.5 273.5,207.5 274.5,207.5C 274.629,205.784 274.962,204.117 275.5,202.5 Z"/></g>
<g><path style="opacity:1" fill="#f4e825" d="M 225.5,204.5 C 226.995,206.831 226.662,208.831 224.5,210.5C 223.069,209.22 222.402,207.553 222.5,205.5C 223.391,204.89 224.391,204.557 225.5,204.5 Z"/></g>
<g><path style="opacity:1" fill="#d5101e" d="M 278.5,196.5 C 278.552,198.903 278.219,201.236 277.5,203.5C 276.833,203.167 276.167,202.833 275.5,202.5C 275.5,202.167 275.5,201.833 275.5,201.5C 275.5,199.833 275.5,198.167 275.5,196.5C 276.5,196.5 277.5,196.5 278.5,196.5 Z"/></g>
<g><path style="opacity:1" fill="#edec1f" d="M 270.5,195.5 C 271.376,195.369 272.043,195.702 272.5,196.5C 270.726,199.85 271.726,201.516 275.5,201.5C 275.5,201.833 275.5,202.167 275.5,202.5C 274.962,204.117 274.629,205.784 274.5,207.5C 273.5,207.5 272.5,207.5 271.5,207.5C 271.5,208.5 271.5,209.5 271.5,210.5C 272.924,213.125 272.591,215.458 270.5,217.5C 269.833,217.167 269.167,216.833 268.5,216.5C 268.799,214.396 268.466,212.396 267.5,210.5C 266.859,211.993 265.859,212.993 264.5,213.5C 264.5,213.167 264.5,212.833 264.5,212.5C 264.5,210.833 264.5,209.167 264.5,207.5C 265.5,207.5 266.5,207.5 267.5,207.5C 266.556,204.001 266.556,200.668 267.5,197.5C 269.598,198.914 270.598,198.248 270.5,195.5 Z"/></g>
<g><path style="opacity:1" fill="#f4ec23" d="M 242.5,198.5 C 243.81,200.435 245.143,202.435 246.5,204.5C 245.757,205.182 245.091,205.849 244.5,206.5C 243.485,207.46 243.485,208.627 244.5,210C 243.87,211.31 242.87,212.144 241.5,212.5C 240.833,212.5 240.167,212.5 239.5,212.5C 239.08,210.906 238.414,209.406 237.5,208C 238.296,206.908 238.963,205.741 239.5,204.5C 239.176,202.431 238.342,202.098 237,203.5C 234.37,199.621 235.203,197.288 239.5,196.5C 239.402,199.248 240.402,199.914 242.5,198.5 Z"/></g>
<g><path style="opacity:1" fill="#645b7a" d="M 267.5,190.5 C 267.972,192.531 268.972,194.198 270.5,195.5C 270.598,198.248 269.598,198.914 267.5,197.5C 267.5,196.833 267.5,196.167 267.5,195.5C 267.5,193.833 267.5,192.167 267.5,190.5 Z"/></g>
<g><path style="opacity:1" fill="#eb2a12" d="M 259.5,192.5 C 260.999,193.678 261.999,195.345 262.5,197.5C 263.167,196.5 263.833,195.5 264.5,194.5C 265.417,195.127 266.417,195.461 267.5,195.5C 267.5,196.167 267.5,196.833 267.5,197.5C 266.556,200.668 266.556,204.001 267.5,207.5C 266.5,207.5 265.5,207.5 264.5,207.5C 264.5,209.167 264.5,210.833 264.5,212.5C 264.167,212.5 263.833,212.5 263.5,212.5C 260.508,211.868 259.841,210.201 261.5,207.5C 260.675,206.614 259.675,206.281 258.5,206.5C 258.5,207.5 258.5,208.5 258.5,209.5C 257.5,209.5 256.5,209.5 255.5,209.5C 256.429,203.718 257.763,198.051 259.5,192.5 Z"/></g>
<g><path style="opacity:1" fill="#e7ed37" d="M 228.5,178.5 C 229.5,178.5 230.5,178.5 231.5,178.5C 231.5,179.833 231.5,181.167 231.5,182.5C 230.833,183.167 230.167,183.833 229.5,184.5C 228.837,186.042 228.17,187.709 227.5,189.5C 226.859,188.007 225.859,187.007 224.5,186.5C 224.794,183.246 226.127,180.579 228.5,178.5 Z"/></g>
<g><path style="opacity:1" fill="#1c88b3" d="M 272.5,177.5 C 273.906,177.973 274.573,178.973 274.5,180.5C 272.952,180.821 272.285,181.821 272.5,183.5C 271.5,183.5 270.5,183.5 269.5,183.5C 269.5,182.833 269.5,182.167 269.5,181.5C 269.5,180.167 269.5,178.833 269.5,177.5C 270.5,177.5 271.5,177.5 272.5,177.5 Z"/></g>
<g><path style="opacity:1" fill="#bdc027" d="M 236.5,175.5 C 236.833,175.5 237.167,175.5 237.5,175.5C 237.263,176.791 237.596,177.791 238.5,178.5C 237.5,179.833 236.5,181.167 235.5,182.5C 234.833,182.167 234.167,181.833 233.5,181.5C 233.5,179.833 233.5,178.167 233.5,176.5C 234.609,176.443 235.609,176.11 236.5,175.5 Z"/></g>
<g><path style="opacity:1" fill="#388da4" d="M 231.5,171.5 C 232.309,173.028 232.976,174.694 233.5,176.5C 233.5,178.167 233.5,179.833 233.5,181.5C 233.158,182.338 232.492,182.672 231.5,182.5C 231.5,181.167 231.5,179.833 231.5,178.5C 230.5,178.5 229.5,178.5 228.5,178.5C 228.707,175.759 229.707,173.426 231.5,171.5 Z"/></g>
<g><path style="opacity:1" fill="#da2f1d" d="M 249.5,170.5 C 250.167,170.5 250.833,170.5 251.5,170.5C 251.279,172.664 250.279,174.33 248.5,175.5C 244.988,175.924 241.655,176.924 238.5,178.5C 237.596,177.791 237.263,176.791 237.5,175.5C 238.167,175.5 238.5,175.167 238.5,174.5C 241.104,173.47 243.771,173.47 246.5,174.5C 246.088,172.027 247.088,170.694 249.5,170.5 Z"/></g>
<g><path style="opacity:1" fill="#923d3b" d="M 238.5,174.5 C 238.5,175.167 238.167,175.5 237.5,175.5C 237.167,175.5 236.833,175.5 236.5,175.5C 236.5,173.833 236.5,172.167 236.5,170.5C 239.947,169.476 240.281,170.309 237.5,173C 237.57,173.765 237.903,174.265 238.5,174.5 Z"/></g>
<g><path style="opacity:1" fill="#e11c0b" d="M 235.5,168.5 C 235.328,169.492 235.662,170.158 236.5,170.5C 236.5,172.167 236.5,173.833 236.5,175.5C 235.609,176.11 234.609,176.443 233.5,176.5C 232.976,174.694 232.309,173.028 231.5,171.5C 231.5,170.833 231.5,170.167 231.5,169.5C 232.833,169.167 234.167,168.833 235.5,168.5 Z"/></g>
<g><path style="opacity:1" fill="#4f42b4" d="M 255.5,168.5 C 257.216,168.629 258.883,168.962 260.5,169.5C 261.219,171.764 261.552,174.097 261.5,176.5C 257.202,175.8 252.869,175.467 248.5,175.5C 250.279,174.33 251.279,172.664 251.5,170.5C 253.483,170.843 254.817,170.176 255.5,168.5 Z"/></g>
<g><path style="opacity:1" fill="#e91e15" d="M 260.5,165.5 C 264.909,169.242 268.909,173.242 272.5,177.5C 271.5,177.5 270.5,177.5 269.5,177.5C 269.5,178.833 269.5,180.167 269.5,181.5C 267.547,180.001 265.88,180.335 264.5,182.5C 263.943,180.668 262.943,179.335 261.5,178.5C 261.5,177.833 261.5,177.167 261.5,176.5C 261.552,174.097 261.219,171.764 260.5,169.5C 260.5,168.167 260.5,166.833 260.5,165.5 Z"/></g>
<g><path style="opacity:1" fill="#2c8aae" d="M 248.5,164.5 C 249.718,165.161 251.051,165.828 252.5,166.5C 251.675,167.386 250.675,167.719 249.5,167.5C 249.5,168.5 249.5,169.5 249.5,170.5C 247.088,170.694 246.088,172.027 246.5,174.5C 243.771,173.47 241.104,173.47 238.5,174.5C 237.903,174.265 237.57,173.765 237.5,173C 240.281,170.309 239.947,169.476 236.5,170.5C 235.662,170.158 235.328,169.492 235.5,168.5C 235.5,167.5 235.5,166.5 235.5,165.5C 235.833,165.5 236.167,165.5 236.5,165.5C 236.369,166.239 236.536,166.906 237,167.5C 238.604,166.351 240.27,166.351 242,167.5C 243.694,165.571 245.861,164.571 248.5,164.5 Z"/></g>
<g><path style="opacity:1" fill="#927e56" d="M 259.5,164.5 C 260.167,164.5 260.5,164.833 260.5,165.5C 260.5,166.833 260.5,168.167 260.5,169.5C 258.883,168.962 257.216,168.629 255.5,168.5C 256.568,167.566 257.901,167.232 259.5,167.5C 259.5,166.5 259.5,165.5 259.5,164.5 Z"/></g>
<g><path style="opacity:1" fill="#e2e931" d="M 248.5,163.5 C 251.696,164.112 254.696,164.112 257.5,163.5C 258.492,163.328 259.158,163.662 259.5,164.5C 259.5,165.5 259.5,166.5 259.5,167.5C 257.901,167.232 256.568,167.566 255.5,168.5C 254.817,170.176 253.483,170.843 251.5,170.5C 250.833,170.5 250.167,170.5 249.5,170.5C 249.5,169.5 249.5,168.5 249.5,167.5C 250.675,167.719 251.675,167.386 252.5,166.5C 251.051,165.828 249.718,165.161 248.5,164.5C 248.5,164.167 248.5,163.833 248.5,163.5 Z"/></g>
<g><path style="opacity:1" fill="#dfda4e" d="M 235.5,165.5 C 235.5,166.5 235.5,167.5 235.5,168.5C 234.167,168.833 232.833,169.167 231.5,169.5C 232.402,167.659 233.736,166.326 235.5,165.5 Z"/></g>
<g><path style="opacity:1" fill="#3e46b3" d="M 248.5,161.5 C 248.5,162.167 248.5,162.833 248.5,163.5C 248.5,163.833 248.5,164.167 248.5,164.5C 245.861,164.571 243.694,165.571 242,167.5C 240.27,166.351 238.604,166.351 237,167.5C 236.536,166.906 236.369,166.239 236.5,165.5C 237.058,164.21 238.058,163.377 239.5,163C 242.432,162.047 245.432,161.547 248.5,161.5 Z"/></g>
<g><path style="opacity:1" fill="#e56414" d="M 248.5,161.5 C 251.754,161.207 254.754,161.874 257.5,163.5C 254.696,164.112 251.696,164.112 248.5,163.5C 248.5,162.833 248.5,162.167 248.5,161.5 Z"/></g>
<g><path style="opacity:1" fill="#f5ed19" d="M 215.5,291.5 C 218.106,292.743 218.106,294.076 215.5,295.5C 216,295.833 216.5,296.167 217,296.5C 218.638,294.482 220.471,294.149 222.5,295.5C 222.5,296.167 222.5,296.833 222.5,297.5C 221.4,300.016 219.733,301.016 217.5,300.5C 214.371,302.08 213.537,304.414 215,307.5C 213.225,310.044 211.392,310.044 209.5,307.5C 211.841,303.276 210.841,302.609 206.5,305.5C 205.817,305.137 205.15,304.804 204.5,304.5C 204.5,304.167 204.5,303.833 204.5,303.5C 207.428,301.88 208.262,299.546 207,296.5C 208.425,295.788 209.925,295.621 211.5,296C 212.733,294.333 214.067,292.833 215.5,291.5 Z"/></g>
<g><path style="opacity:1" fill="#4783a6" d="M 201.5,295.5 C 202.355,297.787 202.522,300.12 202,302.5C 202.671,303.252 203.504,303.586 204.5,303.5C 204.5,303.833 204.5,304.167 204.5,304.5C 203.143,305.685 201.643,306.685 200,307.5C 199.098,307.257 198.265,306.923 197.5,306.5C 196.972,302.071 198.305,298.404 201.5,295.5 Z"/></g>
<g><path style="opacity:1" fill="#453db2" d="M 286.5,294.5 C 286.833,294.5 287.167,294.5 287.5,294.5C 288.476,295.815 289.476,297.148 290.5,298.5C 294.268,297.374 295.268,298.708 293.5,302.5C 294.946,304.618 295.613,306.951 295.5,309.5C 293.8,309.374 292.3,308.707 291,307.5C 290.5,307.833 290,308.167 289.5,308.5C 290.964,310.979 290.297,312.645 287.5,313.5C 286.163,312.685 285.163,311.518 284.5,310C 282.567,309.749 280.734,309.249 279,308.5C 278.873,307.223 279.373,306.057 280.5,305C 279.144,303.433 278.477,301.6 278.5,299.5C 278.917,298.876 279.584,298.543 280.5,298.5C 281.741,299.037 282.908,299.704 284,300.5C 284.5,300.167 285,299.833 285.5,299.5C 283.827,297.239 284.16,295.572 286.5,294.5 Z"/></g>
<g><path style="opacity:1" fill="#ea1e12" d="M 235.5,298.5 C 235.13,301.267 233.796,303.267 231.5,304.5C 230.811,303.226 229.977,303.226 229,304.5C 228.5,305.5 228,306.5 227.5,307.5C 228.428,308.768 228.595,310.101 228,311.5C 227,312.833 226,312.833 225,311.5C 223.961,312.71 222.794,313.71 221.5,314.5C 221.167,314.5 220.833,314.5 220.5,314.5C 218.547,313.001 216.88,313.335 215.5,315.5C 214.948,313.997 214.948,312.331 215.5,310.5C 212.626,311.844 209.626,313.01 206.5,314C 205.289,315.113 205.289,316.28 206.5,317.5C 206.145,318.522 205.478,319.189 204.5,319.5C 201.407,315.653 199.074,311.32 197.5,306.5C 198.265,306.923 199.098,307.257 200,307.5C 201.643,306.685 203.143,305.685 204.5,304.5C 205.15,304.804 205.817,305.137 206.5,305.5C 210.841,302.609 211.841,303.276 209.5,307.5C 211.392,310.044 213.225,310.044 215,307.5C 213.537,304.414 214.371,302.08 217.5,300.5C 219.733,301.016 221.4,300.016 222.5,297.5C 224.894,297.864 227.227,297.864 229.5,297.5C 226.732,299.625 226.899,301.291 230,302.5C 231.25,300.294 233.084,298.961 235.5,298.5 Z"/></g>
<g><path style="opacity:1" fill="#f7e921" d="M 302.5,306.5 C 302.727,308.933 301.727,310.599 299.5,311.5C 297.891,310.102 297.058,308.435 297,306.5C 298.937,303.892 300.77,303.892 302.5,306.5 Z"/></g>
<g><path style="opacity:1" fill="#248fb9" d="M 278.5,299.5 C 278.477,301.6 279.144,303.433 280.5,305C 279.373,306.057 278.873,307.223 279,308.5C 280.734,309.249 282.567,309.749 284.5,310C 285.163,311.518 286.163,312.685 287.5,313.5C 287.5,313.833 287.5,314.167 287.5,314.5C 286.305,314.678 285.138,315.011 284,315.5C 282.7,314.293 281.2,313.626 279.5,313.5C 278.603,314.598 277.77,314.598 277,313.5C 274.275,309.615 271.775,305.615 269.5,301.5C 269.735,300.903 270.235,300.57 271,300.5C 273.016,303.127 274.849,303.127 276.5,300.5C 277.167,300.167 277.833,299.833 278.5,299.5 Z"/></g>
<g><path style="opacity:1" fill="#f3f22a" d="M 231.5,304.5 C 231.611,305.117 231.944,305.617 232.5,306C 230.295,310.91 227.962,315.743 225.5,320.5C 224.675,321.386 223.675,321.719 222.5,321.5C 224.063,318.868 223.73,316.535 221.5,314.5C 222.794,313.71 223.961,312.71 225,311.5C 226,312.833 227,312.833 228,311.5C 228.595,310.101 228.428,308.768 227.5,307.5C 228,306.5 228.5,305.5 229,304.5C 229.977,303.226 230.811,303.226 231.5,304.5 Z"/></g>
<g><path style="opacity:1" fill="#433fb3" d="M 220.5,314.5 C 218.822,317.552 218.155,320.885 218.5,324.5C 215.224,324.144 212.557,325.144 210.5,327.5C 208.952,327.179 208.285,326.179 208.5,324.5C 209.85,323.176 209.683,322.176 208,321.5C 206.97,321.836 206.47,322.503 206.5,323.5C 204.896,322.713 204.229,321.38 204.5,319.5C 205.478,319.189 206.145,318.522 206.5,317.5C 205.289,316.28 205.289,315.113 206.5,314C 209.626,313.01 212.626,311.844 215.5,310.5C 214.948,312.331 214.948,313.997 215.5,315.5C 216.88,313.335 218.547,313.001 220.5,314.5 Z"/></g>
<g><path style="opacity:1" fill="#f2f225" d="M 279.5,313.5 C 281.2,313.626 282.7,314.293 284,315.5C 285.138,315.011 286.305,314.678 287.5,314.5C 288.355,315.531 289.022,316.697 289.5,318C 287.614,322.611 288.947,324.111 293.5,322.5C 292.928,324.255 292.094,325.922 291,327.5C 290.282,328.451 289.449,328.617 288.5,328C 285.839,324.671 283.173,321.338 280.5,318C 279.852,316.56 279.519,315.06 279.5,313.5 Z"/></g>
<g><path style="opacity:1" fill="#d0d438" d="M 208.5,324.5 C 207.075,326.031 206.409,325.698 206.5,323.5C 206.47,322.503 206.97,321.836 208,321.5C 209.683,322.176 209.85,323.176 208.5,324.5 Z"/></g>
<g><path style="opacity:1" fill="#2d8bb4" d="M 220.5,314.5 C 220.833,314.5 221.167,314.5 221.5,314.5C 223.73,316.535 224.063,318.868 222.5,321.5C 222.662,325.546 221.329,329.213 218.5,332.5C 216.5,333.167 214.5,333.833 212.5,334.5C 212.421,333.07 212.754,331.736 213.5,330.5C 212.995,329.081 211.995,328.415 210.5,328.5C 210.5,328.167 210.5,327.833 210.5,327.5C 212.557,325.144 215.224,324.144 218.5,324.5C 218.155,320.885 218.822,317.552 220.5,314.5 Z"/></g>
<g><path style="opacity:1" fill="#e0231a" d="M 210.5,328.5 C 211.995,328.415 212.995,329.081 213.5,330.5C 212.754,331.736 212.421,333.07 212.5,334.5C 211.348,333.166 210.348,331.666 209.5,330C 209.57,329.235 209.903,328.735 210.5,328.5 Z"/></g>
<g><path style="opacity:1" fill="#e71d17" d="M 218.5,332.5 C 218.101,334.966 216.935,336.966 215,338.5C 213.405,337.644 212.572,336.311 212.5,334.5C 214.5,333.833 216.5,333.167 218.5,332.5 Z"/></g>
</svg>
