<?xml version="1.0" encoding="UTF-8"?>
<!DOCTYPE svg PUBLIC "-//W3C//DTD SVG 1.1//EN" "http://www.w3.org/Graphics/SVG/1.1/DTD/svg11.dtd">
<svg xmlns="http://www.w3.org/2000/svg" version="1.1" width="500px" height="500px" style="shape-rendering:geometricPrecision; text-rendering:geometricPrecision; image-rendering:optimizeQuality; fill-rule:evenodd; clip-rule:evenodd" xmlns:xlink="http://www.w3.org/1999/xlink">
<g><path style="opacity:1" fill="#fefefe" d="M -0.5,-0.5 C 166.167,-0.5 332.833,-0.5 499.5,-0.5C 499.5,166.167 499.5,332.833 499.5,499.5C 332.833,499.5 166.167,499.5 -0.5,499.5C -0.5,332.833 -0.5,166.167 -0.5,-0.5 Z"/></g>
<g><path style="opacity:1" fill="#034c93" d="M 167.5,144.5 C 220.834,144.333 274.168,144.5 327.5,145C 340.023,147.851 348.523,155.351 353,167.5C 353.667,221.833 353.667,276.167 353,330.5C 349.39,343.777 340.89,351.944 327.5,355C 274.5,355.667 221.5,355.667 168.5,355C 154.9,351.067 146.4,342.233 143,328.5C 142.333,275.833 142.333,223.167 143,170.5C 146.268,157.069 154.435,148.402 167.5,144.5 Z"/></g>
<g><path style="opacity:1" fill="#e9eff5" d="M 216.5,160.5 C 218.144,160.286 219.644,160.62 221,161.5C 228.809,171.61 236.976,181.444 245.5,191C 235.203,184.581 225.203,177.414 215.5,169.5C 205.881,168.359 196.214,168.193 186.5,169C 178.7,171.133 172.2,175.299 167,181.5C 165.798,183.677 165.298,186.011 165.5,188.5C 164.5,188.5 163.5,188.5 162.5,188.5C 162.966,180.749 166.633,174.916 173.5,171C 178.68,167.622 184.347,165.622 190.5,165C 198.5,164.667 206.5,164.333 214.5,164C 215.305,162.887 215.972,161.721 216.5,160.5 Z"/></g>
<g><path style="opacity:1" fill="#eaf0f6" d="M 276.5,160.5 C 279.084,160.569 281.084,161.735 282.5,164C 297.341,162.579 311.341,165.245 324.5,172C 327,174.5 329.5,177 332,179.5C 333.908,182.206 334.741,185.206 334.5,188.5C 333.5,188.5 332.5,188.5 331.5,188.5C 331.037,182.748 328.371,178.248 323.5,175C 319.065,171.632 314.065,169.632 308.5,169C 299.5,168.333 290.5,168.333 281.5,169C 270.729,176.804 260.229,184.971 250,193.5C 249.333,192.833 249.333,192.167 250,191.5C 259.043,181.294 267.877,170.961 276.5,160.5 Z"/></g>
<g><path style="opacity:1" fill="#f9fbfc" d="M 222.5,206.5 C 224.722,206.178 226.556,206.845 228,208.5C 230.157,219.463 232.157,230.463 234,241.5C 235.395,242.815 236.395,242.481 237,240.5C 238.57,230.412 240.57,220.412 243,210.5C 246.143,208.857 248.309,209.691 249.5,213C 248.082,224.777 247.415,236.611 247.5,248.5C 241.57,250.311 235.57,251.811 229.5,253C 223.179,257.128 222.846,261.795 228.5,267C 234.462,269.838 240.796,271.338 247.5,271.5C 243.578,279.016 238.911,286.016 233.5,292.5C 225.997,295.141 219.83,293.474 215,287.5C 211.73,279.085 209.396,270.419 208,261.5C 202.368,252.4 196.868,243.233 191.5,234C 192.409,231.681 194.075,231.014 196.5,232C 200.789,237.958 205.456,243.624 210.5,249C 211.793,249.49 213.127,249.657 214.5,249.5C 210.928,239.185 206.928,229.019 202.5,219C 203.056,215.561 204.889,214.728 208,216.5C 212,224.5 216,232.5 220,240.5C 220.689,241.357 221.522,242.023 222.5,242.5C 222.949,230.421 222.949,218.421 222.5,206.5 Z"/></g>
<g><path style="opacity:1" fill="#f9fbfc" d="M 270.5,243.5 C 278.602,241.636 284.935,244.136 289.5,251C 291.917,252.626 294.417,254.126 297,255.5C 298.441,258.155 299.274,260.988 299.5,264C 297.667,272.498 294.834,280.665 291,288.5C 290.667,298.833 290.333,309.167 290,319.5C 288.522,322.993 286.522,323.326 284,320.5C 283.588,313.475 282.921,306.475 282,299.5C 281.576,297.385 280.409,296.552 278.5,297C 275.596,307.309 273.43,317.809 272,328.5C 270.604,330.527 268.938,330.86 267,329.5C 266.833,327.333 266.667,325.167 266.5,323C 267.947,314.209 268.447,305.376 268,296.5C 261.577,305.674 255.91,315.34 251,325.5C 244.46,327.225 242.793,324.892 246,318.5C 249.41,310.681 253.077,303.014 257,295.5C 257.798,293.741 257.631,292.074 256.5,290.5C 249.041,297.458 241.708,304.625 234.5,312C 231.741,312.977 229.741,312.144 228.5,309.5C 235.089,299.989 241.922,290.656 249,281.5C 259.403,265.195 254.903,259.362 235.5,264C 233.525,263.022 231.858,261.689 230.5,260C 244.347,255.915 257.681,250.415 270.5,243.5 Z"/></g>
<g><path style="opacity:1" fill="#dbe5ef" d="M 300.5,253.5 C 302.888,254.219 304.388,255.885 305,258.5C 305.667,261.5 305.667,264.5 305,267.5C 304.804,269.286 303.971,270.619 302.5,271.5C 302.52,267.005 302.354,262.338 302,257.5C 301.209,256.255 300.709,254.922 300.5,253.5 Z"/></g>
<g><path style="opacity:1" fill="#d9e4ee" d="M 307.5,254.5 C 308.376,254.369 309.043,254.702 309.5,255.5C 312.145,261.313 311.812,266.98 308.5,272.5C 308.686,266.536 308.353,260.536 307.5,254.5 Z"/></g>
<g><path style="opacity:1" fill="#e5ecf4" d="M 201.5,288.5 C 202.496,288.414 203.329,288.748 204,289.5C 205.43,295.098 208.597,299.431 213.5,302.5C 212.635,303.583 211.635,303.749 210.5,303C 205.581,299.324 202.581,294.49 201.5,288.5 Z"/></g>
<g><path style="opacity:1" fill="#dee7f1" d="M 206.5,286.5 C 207.239,286.369 207.906,286.536 208.5,287C 209.874,289.583 211.374,292.083 213,294.5C 215.296,296.057 217.462,297.724 219.5,299.5C 217.813,300.568 216.146,300.401 214.5,299C 210.422,295.663 207.755,291.497 206.5,286.5 Z"/></g>
</svg>
